Varta-Regular.ufo
<glyph name="quotesingle" format="2">
  <advance width="500.2469135802469"/>
  <unicode hex="0027"/>
  <outline>
    <contour>
      <point x="200.28395061728395" y="882.0864197530864" type="line"/>
      <point x="297.1975308641975" y="882.0864197530864" type="line"/>
      <point x="327.95061728395063" y="1233.6296296296296" type="line"/>
      <point x="332.12345679012344" y="1413.8271604938273" type="line"/>
      <point x="164.82716049382717" y="1413.8271604938273" type="line"/>
      <point x="170.2962962962963" y="1233.6296296296296" type="line"/>
    </contour>
  </outline>
</glyph>
<glyph name="plus" format="2">
  <advance width="1012.1481481481482"/>
  <unicode hex="002B"/>
  <outline>
    <contour>
      <point x="443.12345679012344" y="214.9506172839506" type="line"/>
      <point x="568.0246913580247" y="214.9506172839506" type="line"/>
      <point x="568.0246913580247" y="615.9012345679013" type="line"/>
      <point x="942.1481481481482" y="615.9012345679013" type="line"/>
      <point x="942.1481481481482" y="735.0987654320987" type="line"/>
      <point x="568.0246913580247" y="735.0987654320987" type="line"/>
      <point x="568.0246913580247" y="1137.0493827160494" type="line"/>
      <point x="443.12345679012344" y="1137.0493827160494" type="line"/>
      <point x="443.12345679012344" y="735.0987654320987" type="line"/>
      <point x="70.0" y="735.0987654320987" type="line"/>
      <point x="70.0" y="615.9012345679013" type="line"/>
      <point x="443.12345679012344" y="615.9012345679013" type="line"/>
    </contour>
  </outline>
</glyph>
<glyph name="slash" format="2">
  <advance width="719.4814814814815"/>
  <unicode hex="002F"/>
  <outline>
    <contour>
      <point x="19.938271604938272" y="-328.0" type="line"/>
      <point x="137.49382716049382" y="-328.0" type="line"/>
      <point x="695.0246913580247" y="1454.0" type="line"/>
      <point x="579.2345679012345" y="1454.0" type="line"/>
    </contour>
  </outline>
</glyph>
<glyph name="E" format="2">
  <advance width="1063.5061728395062"/>
  <unicode hex="0045"/>
  <anchor x="531.7530864197531" y="0.0" name="bottom"/>
  <anchor x="956.8024691358024" y="10.0" name="ogonek"/>
  <anchor x="567.0617283950618" y="1344.5925925925926" name="top"/>
  <anchor x="20.0" y="1344.5925925925926" name="topleft"/>
  <outline>
    <contour>
      <point x="180.71604938271605" y="0.0" type="line"/>
      <point x="969.8641975308642" y="0.0" type="line"/>
      <point x="969.8641975308642" y="134.9506172839506" type="line"/>
      <point x="339.95061728395063" y="134.9506172839506" type="line"/>
      <point x="339.95061728395063" y="640.4444444444445" type="line"/>
      <point x="852.9753086419753" y="640.4444444444445" type="line"/>
      <point x="852.9753086419753" y="774.925925925926" type="line"/>
      <point x="339.95061728395063" y="774.925925925926" type="line"/>
      <point x="339.95061728395063" y="1210.8765432098764" type="line"/>
      <point x="948.8641975308642" y="1210.8765432098764" type="line"/>
      <point x="948.8641975308642" y="1344.5925925925926" type="line"/>
      <point x="180.71604938271605" y="1344.5925925925926" type="line"/>
    </contour>
  </outline>
</glyph>
<glyph name="F" format="2">
  <advance width="995.0864197530864"/>
  <unicode hex="0046"/>
  <anchor x="497.9259259259259" y="0.0" name="bottom"/>
  <anchor x="497.9259259259259" y="1344.5925925925926" name="top"/>
  <outline>
    <contour>
      <point x="180.71604938271605" y="0.0" type="line"/>
      <point x="339.95061728395063" y="0.0" type="line"/>
      <point x="339.95061728395063" y="609.0370370370371" type="line"/>
      <point x="856.4444444444445" y="609.0370370370371" type="line"/>
      <point x="856.4444444444445" y="742.7530864197531" type="line"/>
      <point x="339.95061728395063" y="742.7530864197531" type="line"/>
      <point x="339.95061728395063" y="1210.8765432098764" type="line"/>
      <point x="949.5679012345679" y="1210.8765432098764" type="line"/>
      <point x="949.5679012345679" y="1344.5925925925926" type="line"/>
      <point x="180.71604938271605" y="1344.5925925925926" type="line"/>
    </contour>
  </outline>
</glyph>
<glyph name="H" format="2">
  <advance width="1319.5061728395062"/>
  <unicode hex="0048"/>
  <anchor x="659.7530864197531" y="0.0" name="bottom"/>
  <anchor x="659.7530864197531" y="672.2962962962963" name="center"/>
  <anchor x="659.7530864197531" y="1344.5925925925926" name="top"/>
  <anchor x="20.0" y="1344.5925925925926" name="topleft"/>
  <outline>
    <contour>
      <point x="180.71604938271605" y="0.0" type="line"/>
      <point x="339.95061728395063" y="0.0" type="line"/>
      <point x="339.95061728395063" y="639.9753086419753" type="line"/>
      <point x="980.7901234567901" y="639.9753086419753" type="line"/>
      <point x="980.7901234567901" y="0.0" type="line"/>
      <point x="1138.0246913580247" y="0.0" type="line"/>
      <point x="1138.0246913580247" y="1344.5925925925926" type="line"/>
      <point x="980.7901234567901" y="1344.5925925925926" type="line"/>
      <point x="980.7901234567901" y="776.8641975308642" type="line"/>
      <point x="339.95061728395063" y="776.8641975308642" type="line"/>
      <point x="339.95061728395063" y="1344.5925925925926" type="line"/>
      <point x="180.71604938271605" y="1344.5925925925926" type="line"/>
    </contour>
  </outline>
</glyph>
<glyph name="I" format="2">
  <advance width="519.6666666666666"/>
  <unicode hex="0049"/>
  <anchor x="260.3333333333333" y="0.0" name="bottom"/>
  <anchor x="467.4938271604938" y="10.0" name="ogonek"/>
  <anchor x="260.3333333333333" y="1344.5925925925926" name="top"/>
  <anchor x="20.0" y="1344.5925925925926" name="topleft"/>
  <outline>
    <contour>
      <point x="180.71604938271605" y="0.0" type="line"/>
      <point x="339.95061728395063" y="0.0" type="line"/>
      <point x="339.95061728395063" y="1344.5925925925926" type="line"/>
      <point x="180.71604938271605" y="1344.5925925925926" type="line"/>
    </contour>
  </outline>
</glyph>
<glyph name="J" format="2">
  <advance width="964.8518518518518"/>
  <unicode hex="004A"/>
  <anchor x="482.9259259259259" y="0.0" name="bottom"/>
  <anchor x="710.5802469135803" y="1344.5925925925926" name="top"/>
  <outline>
    <contour>
      <point x="426.9259259259259" y="-25.0" type="curve" smooth="yes"/>
      <point x="687.6172839506173" y="-25.0"/>
      <point x="790.3703703703703" y="155.0493827160494"/>
      <point x="790.3703703703703" y="384.5679012345679" type="curve" smooth="yes"/>
      <point x="790.3703703703703" y="1344.5925925925926" type="line"/>
      <point x="632.1358024691358" y="1344.5925925925926" type="line"/>
      <point x="632.1358024691358" y="399.9753086419753" type="line"/>
      <point x="632.1358024691358" y="192.7283950617284"/>
      <point x="561.2469135802469" y="114.95061728395062"/>
      <point x="414.4074074074074" y="114.95061728395062" type="curve" smooth="yes"/>
      <point x="315.39506172839504" y="114.95061728395062"/>
      <point x="237.5679012345679" y="159.9506172839506"/>
      <point x="174.20987654320987" y="266.60493827160496" type="curve"/>
      <point x="61.77777777777778" y="186.98765432098764" type="line"/>
      <point x="138.12345679012347" y="48.7037037037037"/>
      <point x="260.0" y="-25.0"/>
    </contour>
  </outline>
</glyph>
<glyph name="L" format="2">
  <advance width="977.5555555555555"/>
  <unicode hex="004C"/>
  <anchor x="489.1604938271605" y="0.0" name="bottom"/>
  <anchor x="489.1604938271605" y="672.2962962962963" name="center"/>
  <anchor x="489.1604938271605" y="1344.5925925925926" name="top"/>
  <anchor x="957.5555555555555" y="1344.5925925925926" name="topright"/>
  <outline>
    <contour>
      <point x="180.71604938271605" y="0.0" type="line"/>
      <point x="931.2716049382716" y="0.0" type="line"/>
      <point x="931.2716049382716" y="134.9506172839506" type="line"/>
      <point x="339.95061728395063" y="134.9506172839506" type="line"/>
      <point x="339.95061728395063" y="1344.5925925925926" type="line"/>
      <point x="180.71604938271605" y="1344.5925925925926" type="line"/>
    </contour>
  </outline>
</glyph>
<glyph name="O" format="2">
  <advance width="1345.2716049382716"/>
  <unicode hex="004F"/>
  <anchor x="672.7530864197531" y="0.0" name="bottom"/>
  <anchor x="672.7530864197531" y="672.2962962962963" name="center"/>
  <anchor x="1210.567901234568" y="10.0" name="ogonek"/>
  <anchor x="672.7530864197531" y="1344.5925925925926" name="top"/>
  <anchor x="20.0" y="1344.5925925925926" name="topleft"/>
  <anchor x="1325.2716049382716" y="1344.5925925925926" name="topright"/>
  <outline>
    <contour>
      <point x="671.5185185185185" y="-25.0" type="curve" smooth="yes"/>
      <point x="1014.7407407407408" y="-25.0"/>
      <point x="1243.20987654321" y="235.65432098765433"/>
      <point x="1243.20987654321" y="675.7654320987655" type="curve" smooth="yes"/>
      <point x="1243.20987654321" y="1113.4074074074074"/>
      <point x="1014.7407407407408" y="1368.8271604938273"/>
      <point x="671.5185185185185" y="1368.8271604938273" type="curve" smooth="yes"/>
      <point x="327.5308641975309" y="1368.8271604938273"/>
      <point x="100.82716049382717" y="1114.641975308642"/>
      <point x="100.82716049382717" y="675.7654320987655" type="curve" smooth="yes"/>
      <point x="100.82716049382717" y="235.65432098765433"/>
      <point x="327.5308641975309" y="-25.0"/>
    </contour>
    <contour>
      <point x="671.5185185185185" y="114.95061728395062" type="curve" smooth="yes"/>
      <point x="418.4938271604938" y="114.95061728395062"/>
      <point x="264.2962962962963" y="326.679012345679"/>
      <point x="264.2962962962963" y="675.7654320987655" type="curve" smooth="yes"/>
      <point x="264.2962962962963" y="1023.3827160493827"/>
      <point x="418.4938271604938" y="1229.8765432098764"/>
      <point x="671.5185185185185" y="1229.8765432098764" type="curve" smooth="yes"/>
      <point x="922.5432098765432" y="1229.8765432098764"/>
      <point x="1079.7407407407406" y="1023.3827160493827"/>
      <point x="1079.7407407407406" y="675.7654320987655" type="curve" smooth="yes"/>
      <point x="1079.7407407407406" y="326.679012345679"/>
      <point x="922.5432098765432" y="114.95061728395062"/>
    </contour>
  </outline>
</glyph>
<glyph name="Q" format="2">
  <advance width="1345.2716049382716"/>
  <unicode hex="0051"/>
  <anchor x="672.7530864197531" y="0.0" name="bottom"/>
  <anchor x="672.7530864197531" y="1344.5925925925926" name="top"/>
  <outline>
    <contour>
      <point x="1022.3333333333334" y="-332.4567901234568" type="curve" smooth="yes"/>
      <point x="1099.851851851852" y="-332.4567901234568"/>
      <point x="1177.1975308641975" y="-316.75308641975306"/>
      <point x="1216.6049382716049" y="-303.34567901234567" type="curve"/>
      <point x="1185.5555555555557" y="-178.679012345679" type="line"/>
      <point x="1149.320987654321" y="-188.91358024691357"/>
      <point x="1098.679012345679" y="-199.14814814814815"/>
      <point x="1038.9135802469136" y="-199.14814814814815" type="curve" smooth="yes"/>
      <point x="908.4567901234568" y="-199.14814814814815"/>
      <point x="797.320987654321" y="-168.1358024691358"/>
      <point x="762.0123456790124" y="-16.88888888888889" type="curve"/>
      <point x="1049.2592592592594" y="28.333333333333332"/>
      <point x="1242.2716049382716" y="280.58024691358025"/>
      <point x="1242.2716049382716" y="678.2962962962963" type="curve" smooth="yes"/>
      <point x="1242.2716049382716" y="1113.1728395061727"/>
      <point x="1013.0370370370371" y="1368.8271604938273"/>
      <point x="669.0493827160494" y="1368.8271604938273" type="curve" smooth="yes"/>
      <point x="326.0617283950617" y="1368.8271604938273"/>
      <point x="98.35802469135803" y="1115.1728395061727"/>
      <point x="98.35802469135803" y="678.2962962962963" type="curve" smooth="yes"/>
      <point x="98.35802469135803" y="274.9382716049383"/>
      <point x="298.01234567901236" y="19.987654320987655"/>
      <point x="590.3086419753087" y="-18.82716049382716" type="curve"/>
      <point x="646.1975308641976" y="-232.5185185185185"/>
      <point x="796.7901234567901" y="-332.4567901234568"/>
    </contour>
    <contour>
      <point x="669.0493827160494" y="114.95061728395062" type="curve" smooth="yes"/>
      <point x="418.25925925925924" y="114.95061728395062"/>
      <point x="262.5925925925926" y="330.44444444444446"/>
      <point x="262.5925925925926" y="678.2962962962963" type="curve" smooth="yes"/>
      <point x="262.5925925925926" y="1024.148148148148"/>
      <point x="418.25925925925924" y="1229.8765432098764"/>
      <point x="669.0493827160494" y="1229.8765432098764" type="curve" smooth="yes"/>
      <point x="919.8395061728395" y="1229.8765432098764"/>
      <point x="1076.2716049382716" y="1024.148148148148"/>
      <point x="1076.2716049382716" y="678.2962962962963" type="curve" smooth="yes"/>
      <point x="1076.2716049382716" y="330.44444444444446"/>
      <point x="919.8395061728395" y="114.95061728395062"/>
    </contour>
  </outline>
</glyph>
<glyph name="U" format="2">
  <advance width="1306.8024691358025"/>
  <unicode hex="0055"/>
  <anchor x="653.5185185185185" y="0.0" name="bottom"/>
  <anchor x="1176.0987654320988" y="10.0" name="ogonek"/>
  <anchor x="653.5185185185185" y="1344.5925925925926" name="top"/>
  <anchor x="1286.8024691358025" y="1344.5925925925926" name="topright"/>
  <outline>
    <contour>
      <point x="652.7530864197531" y="-25.0" type="curve" smooth="yes"/>
      <point x="920.3086419753087" y="-25.0"/>
      <point x="1132.320987654321" y="114.09876543209876"/>
      <point x="1132.320987654321" y="542.679012345679" type="curve" smooth="yes"/>
      <point x="1132.320987654321" y="1344.5925925925926" type="line"/>
      <point x="980.7901234567901" y="1344.5925925925926" type="line"/>
      <point x="980.7901234567901" y="540.925925925926" type="line"/>
      <point x="980.7901234567901" y="212.8395061728395"/>
      <point x="834.5308641975308" y="114.95061728395062"/>
      <point x="652.7530864197531" y="114.95061728395062" type="curve" smooth="yes"/>
      <point x="476.2716049382716" y="114.95061728395062"/>
      <point x="333.71604938271605" y="213.8395061728395"/>
      <point x="333.71604938271605" y="540.925925925926" type="curve" smooth="yes"/>
      <point x="333.71604938271605" y="1344.5925925925926" type="line"/>
      <point x="174.71604938271605" y="1344.5925925925926" type="line"/>
      <point x="174.71604938271605" y="542.679012345679" type="line"/>
      <point x="174.71604938271605" y="116.09876543209876"/>
      <point x="385.4320987654321" y="-25.0"/>
    </contour>
  </outline>
</glyph>
<glyph name="bracketleft" format="2">
  <advance width="612.4320987654321"/>
  <unicode hex="005B"/>
  <outline>
    <contour>
      <point x="193.88888888888889" y="-311.0" type="line"/>
      <point x="553.5061728395061" y="-311.0" type="line"/>
      <point x="553.5061728395061" y="-220.85185185185185" type="line"/>
      <point x="311.96296296296293" y="-220.85185185185185" type="line"/>
      <point x="311.96296296296293" y="1357.0864197530864" type="line"/>
      <point x="553.5061728395061" y="1357.0864197530864" type="line"/>
      <point x="553.5061728395061" y="1450.0" type="line"/>
      <point x="193.88888888888889" y="1450.0" type="line"/>
    </contour>
  </outline>
</glyph>
<glyph name="backslash" format="2">
  <advance width="719.4814814814815"/>
  <unicode hex="005C"/>
  <outline>
    <contour>
      <point x="582.7530864197531" y="-328.0" type="line"/>
      <point x="699.5432098765432" y="-328.0" type="line"/>
      <point x="140.2469135802469" y="1454.0" type="line"/>
      <point x="25.45679012345679" y="1454.0" type="line"/>
    </contour>
  </outline>
</glyph>
<glyph name="grave" format="2">
  <advance width="1107.7530864197531"/>
  <unicode hex="0060"/>
  <outline>
    <contour>
      <point x="562.9012345679013" y="1173.469135802469" type="line"/>
      <point x="683.8024691358024" y="1173.469135802469" type="line"/>
      <point x="498.5061728395062" y="1460.0493827160494" type="line"/>
      <point x="334.38271604938274" y="1460.0493827160494" type="line"/>
    </contour>
  </outline>
</glyph>
<glyph name="d" format="2">
  <advance width="1133.3950617283951"/>
  <unicode hex="0064"/>
  <anchor x="542.1234567901234" y="0.0" name="bottom"/>
  <anchor x="1108.7283950617284" y="993.0493827160494" name="car"/>
  <anchor x="543.8518518518518" y="496.641975308642" name="center"/>
  <anchor x="450.0" y="990.0" name="top"/>
  <anchor x="1113.3950617283951" y="993.0493827160494" name="topright"/>
  <outline>
    <contour>
      <point x="508.358024691358" y="-25.0" type="curve" smooth="yes"/>
      <point x="628.3086419753087" y="-25.0"/>
      <point x="734.604938271605" y="41.358024691358025"/>
      <point x="812.9012345679013" y="118.65432098765432" type="curve"/>
      <point x="818.9012345679013" y="118.65432098765432" type="line"/>
      <point x="832.074074074074" y="0.0" type="line"/>
      <point x="961.5555555555555" y="0.0" type="line"/>
      <point x="961.5555555555555" y="1460.716049382716" type="line"/>
      <point x="805.0864197530864" y="1460.716049382716" type="line"/>
      <point x="805.0864197530864" y="1074.111111111111" type="line"/>
      <point x="812.7901234567901" y="902.2222222222222" type="line"/>
      <point x="722.604938271605" y="974.283950617284"/>
      <point x="646.5432098765432" y="1018.0493827160494"/>
      <point x="530.2469135802469" y="1018.0493827160494" type="curve" smooth="yes"/>
      <point x="295.8888888888889" y="1018.0493827160494"/>
      <point x="97.65432098765432" y="827.0493827160494"/>
      <point x="97.65432098765432" y="495.87654320987656" type="curve" smooth="yes"/>
      <point x="97.65432098765432" y="155.64197530864197"/>
      <point x="261.12345679012344" y="-25.0"/>
    </contour>
    <contour>
      <point x="541.4567901234568" y="107.24691358024691" type="curve" smooth="yes"/>
      <point x="355.9012345679012" y="107.24691358024691"/>
      <point x="258.12345679012344" y="250.50617283950618"/>
      <point x="258.12345679012344" y="497.34567901234567" type="curve" smooth="yes"/>
      <point x="258.12345679012344" y="734.1851851851852"/>
      <point x="384.25925925925924" y="886.8024691358024"/>
      <point x="555.8765432098766" y="886.8024691358024" type="curve" smooth="yes"/>
      <point x="639.358024691358" y="886.8024691358024"/>
      <point x="717.7777777777778" y="857.4444444444445"/>
      <point x="805.0864197530864" y="778.4320987654321" type="curve"/>
      <point x="805.0864197530864" y="247.91358024691357" type="line"/>
      <point x="719.2469135802469" y="154.19753086419752"/>
      <point x="636.4691358024692" y="107.24691358024691"/>
    </contour>
  </outline>
</glyph>
<glyph name="k" format="2">
  <advance width="1003.716049382716"/>
  <unicode hex="006B"/>
  <anchor x="501.9753086419753" y="0.0" name="bottom"/>
  <anchor x="501.9753086419753" y="1804.79012345679" name="top"/>
  <outline>
    <contour>
      <point x="171.07407407407408" y="0.0" type="line"/>
      <point x="324.60493827160496" y="0.0" type="line"/>
      <point x="324.60493827160496" y="262.358024691358" type="line"/>
      <point x="516.925925925926" y="486.03703703703707" type="line"/>
      <point x="813.2469135802469" y="0.0" type="line"/>
      <point x="983.8888888888889" y="0.0" type="line"/>
      <point x="605.9506172839506" y="595.4691358024692" type="line"/>
      <point x="937.4691358024692" y="993.0493827160494" type="line"/>
      <point x="764.8271604938271" y="993.0493827160494" type="line"/>
      <point x="330.8395061728395" y="457.641975308642" type="line"/>
      <point x="324.60493827160496" y="457.641975308642" type="line"/>
      <point x="324.60493827160496" y="1460.716049382716" type="line"/>
      <point x="171.07407407407408" y="1460.716049382716" type="line"/>
    </contour>
  </outline>
</glyph>
<glyph name="l" format="2">
  <advance width="516.1481481481482"/>
  <unicode hex="006C"/>
  <anchor x="258.4567901234568" y="0.0" name="bottom"/>
  <anchor x="473.41975308641975" y="993.0493827160494" name="car"/>
  <anchor x="258.4567901234568" y="902.7777777777778" name="center"/>
  <anchor x="251.5185185185185" y="1343.8271604938273" name="top"/>
  <outline>
    <contour>
      <point x="340.14814814814815" y="-25.0" type="curve" smooth="yes"/>
      <point x="381.9012345679012" y="-25.0"/>
      <point x="409.71604938271605" y="-18.296296296296298"/>
      <point x="431.8888888888889" y="-8.827160493827162" type="curve"/>
      <point x="410.2469135802469" y="109.24691358024691" type="line"/>
      <point x="390.71604938271605" y="105.24691358024691"/>
      <point x="382.71604938271605" y="105.24691358024691"/>
      <point x="373.2469135802469" y="105.24691358024691" type="curve" smooth="yes"/>
      <point x="348.2469135802469" y="105.24691358024691"/>
      <point x="327.0740740740741" y="126.01234567901234"/>
      <point x="327.0740740740741" y="176.88888888888889" type="curve" smooth="yes"/>
      <point x="327.0740740740741" y="1460.716049382716" type="line"/>
      <point x="171.07407407407408" y="1460.716049382716" type="line"/>
      <point x="171.07407407407408" y="189.12345679012344" type="line"/>
      <point x="171.07407407407408" y="50.74074074074074"/>
      <point x="220.65432098765433" y="-25.0"/>
    </contour>
  </outline>
</glyph>
<glyph name="n" format="2">
  <advance width="1115.2716049382716"/>
  <unicode hex="006E"/>
  <anchor x="557.7530864197531" y="0.0" name="bottom"/>
  <anchor x="557.7530864197531" y="993.0493827160494" name="top"/>
  <outline>
    <contour>
      <point x="171.07407407407408" y="0.0" type="line"/>
      <point x="327.0740740740741" y="0.0" type="line"/>
      <point x="327.0740740740741" y="724.074074074074" type="line"/>
      <point x="430.14814814814815" y="828.4444444444445"/>
      <point x="502.8641975308642" y="882.0987654320987"/>
      <point x="607.1111111111111" y="882.0987654320987" type="curve" smooth="yes"/>
      <point x="749.3086419753087" y="882.0987654320987"/>
      <point x="800.9629629629629" y="803.0246913580247"/>
      <point x="800.9629629629629" y="612.6543209876543" type="curve" smooth="yes"/>
      <point x="800.9629629629629" y="0.0" type="line"/>
      <point x="956.4320987654321" y="0.0" type="line"/>
      <point x="956.4320987654321" y="634.0" type="line"/>
      <point x="956.4320987654321" y="888.0"/>
      <point x="868.1975308641976" y="1018.0493827160494"/>
      <point x="654.5555555555555" y="1018.0493827160494" type="curve" smooth="yes"/>
      <point x="517.320987654321" y="1018.0493827160494"/>
      <point x="415.32098765432096" y="943.5185185185185"/>
      <point x="320.7283950617284" y="848.1604938271605" type="curve"/>
      <point x="313.4938271604938" y="848.1604938271605" type="line"/>
      <point x="300.32098765432096" y="993.0493827160494" type="line"/>
      <point x="171.07407407407408" y="993.0493827160494" type="line"/>
    </contour>
  </outline>
</glyph>
<glyph name="r" format="2">
  <advance width="701.2469135802469"/>
  <unicode hex="0072"/>
  <anchor x="256.04938271604937" y="0.0" name="bottom"/>
  <anchor x="408.39506172839504" y="993.0493827160494" name="top"/>
  <outline>
    <contour>
      <point x="171.07407407407408" y="0.0" type="line"/>
      <point x="327.0740740740741" y="0.0" type="line"/>
      <point x="327.0740740740741" y="644.4938271604939" type="line"/>
      <point x="395.1975308641975" y="814.2716049382716"/>
      <point x="497.25925925925924" y="876.6296296296297"/>
      <point x="581.0864197530864" y="876.6296296296297" type="curve" smooth="yes"/>
      <point x="621.5555555555555" y="876.6296296296297"/>
      <point x="643.7283950617284" y="871.395061728395"/>
      <point x="676.9629629629629" y="860.6296296296297" type="curve"/>
      <point x="706.7777777777778" y="997.0493827160494" type="line"/>
      <point x="675.0123456790124" y="1012.5802469135803"/>
      <point x="644.5432098765432" y="1018.0493827160494"/>
      <point x="601.6666666666666" y="1018.0493827160494" type="curve" smooth="yes"/>
      <point x="488.8395061728395" y="1018.0493827160494"/>
      <point x="387.4320987654321" y="937.6913580246913"/>
      <point x="320.7283950617284" y="812.5185185185185" type="curve"/>
      <point x="313.4938271604938" y="812.5185185185185" type="line"/>
      <point x="300.32098765432096" y="993.0493827160494" type="line"/>
      <point x="171.07407407407408" y="993.0493827160494" type="line"/>
    </contour>
  </outline>
</glyph>
<glyph name="t" format="2">
  <advance width="683.3703703703703"/>
  <unicode hex="0074"/>
  <anchor x="401.8024691358025" y="0.0" name="bottom"/>
  <anchor x="533.7283950617284" y="992.5802469135803" name="car"/>
  <anchor x="341.8024691358025" y="496.641975308642" name="center"/>
  <anchor x="288.69135802469134" y="1193.0" name="top"/>
  <anchor x="483.4691358024691" y="993.0493827160494" name="topright"/>
  <outline>
    <contour>
      <point x="477.0987654320988" y="-25.0" type="curve" smooth="yes"/>
      <point x="536.4938271604939" y="-25.0"/>
      <point x="601.6666666666666" y="-6.530864197530864"/>
      <point x="657.4320987654321" y="12.0" type="curve"/>
      <point x="626.0864197530864" y="130.37037037037038" type="line"/>
      <point x="593.0246913580247" y="117.8395061728395"/>
      <point x="547.1975308641976" y="103.30864197530863"/>
      <point x="511.6666666666667" y="103.30864197530863" type="curve" smooth="yes"/>
      <point x="393.82716049382714" y="103.30864197530863"/>
      <point x="356.71604938271605" y="175.02469135802468"/>
      <point x="356.71604938271605" y="298.08641975308643" type="curve" smooth="yes"/>
      <point x="356.71604938271605" y="865.5061728395061" type="line"/>
      <point x="627.9629629629629" y="865.5061728395061" type="line"/>
      <point x="627.9629629629629" y="993.0493827160494" type="line"/>
      <point x="356.71604938271605" y="993.0493827160494" type="line"/>
      <point x="356.71604938271605" y="1273.641975308642" type="line"/>
      <point x="225.0" y="1273.641975308642" type="line"/>
      <point x="205.88888888888889" y="993.0493827160494" type="line"/>
      <point x="50.123456790123456" y="983.5802469135803" type="line"/>
      <point x="50.123456790123456" y="865.5061728395061" type="line"/>
      <point x="199.4814814814815" y="865.5061728395061" type="line"/>
      <point x="199.4814814814815" y="301.91358024691357" type="line"/>
      <point x="199.4814814814815" y="108.28395061728395"/>
      <point x="267.7037037037037" y="-25.0"/>
    </contour>
  </outline>
</glyph>
<glyph name="u" format="2">
  <advance width="1108.5061728395062"/>
  <unicode hex="0075"/>
  <anchor x="554.7530864197531" y="0.0" name="bottom"/>
  <anchor x="1009.0987654320987" y="10.0" name="ogonek"/>
  <anchor x="544.7530864197531" y="993.0493827160494" name="top"/>
  <anchor x="1088.5061728395062" y="993.0493827160494" name="topright"/>
  <outline>
    <contour>
      <point x="460.95061728395063" y="-25.0" type="curve" smooth="yes"/>
      <point x="603.4197530864197" y="-25.0"/>
      <point x="696.716049382716" y="47.82716049382716"/>
      <point x="789.5432098765432" y="156.88888888888889" type="curve"/>
      <point x="795.7777777777778" y="156.88888888888889" type="line"/>
      <point x="808.9506172839506" y="0.0" type="line"/>
      <point x="937.6666666666666" y="0.0" type="line"/>
      <point x="937.6666666666666" y="993.0493827160494" type="line"/>
      <point x="782.1975308641976" y="993.0493827160494" type="line"/>
      <point x="782.1975308641976" y="283.9753086419753" type="line"/>
      <point x="684.358024691358" y="163.37037037037038"/>
      <point x="617.1111111111111" y="110.95061728395062"/>
      <point x="506.8641975308642" y="110.95061728395062" type="curve" smooth="yes"/>
      <point x="365.1975308641975" y="110.95061728395062"/>
      <point x="313.77777777777777" y="191.25925925925927"/>
      <point x="313.77777777777777" y="381.39506172839504" type="curve" smooth="yes"/>
      <point x="313.77777777777777" y="993.0493827160494" type="line"/>
      <point x="157.30864197530863" y="993.0493827160494" type="line"/>
      <point x="157.30864197530863" y="360.04938271604937" type="line"/>
      <point x="157.30864197530863" y="106.04938271604938"/>
      <point x="245.30864197530863" y="-25.0"/>
    </contour>
  </outline>
</glyph>
<glyph name="z" format="2">
  <advance width="862.5555555555555"/>
  <unicode hex="007A"/>
  <anchor x="431.39506172839504" y="0.0" name="bottom"/>
  <anchor x="431.39506172839504" y="496.641975308642" name="center"/>
  <anchor x="431.39506172839504" y="993.0493827160494" name="top"/>
  <outline>
    <contour>
      <point x="62.111111111111114" y="0.0" type="line"/>
      <point x="810.0246913580247" y="0.0" type="line"/>
      <point x="810.0246913580247" y="128.30864197530863" type="line"/>
      <point x="259.8024691358025" y="128.30864197530863" type="line"/>
      <point x="793.4938271604939" y="910.4938271604939" type="line"/>
      <point x="793.4938271604939" y="993.0493827160494" type="line"/>
      <point x="120.70370370370371" y="993.0493827160494" type="line"/>
      <point x="120.70370370370371" y="865.5061728395061" type="line"/>
      <point x="595.8024691358024" y="865.5061728395061" type="line"/>
      <point x="62.111111111111114" y="83.32098765432099" type="line"/>
    </contour>
  </outline>
</glyph>
<glyph name="dieresis" format="2">
  <advance width="1107.7530864197531"/>
  <unicode hex="00A8"/>
  <outline>
    <contour>
      <point x="380.12345679012344" y="1207.8395061728395" type="curve" smooth="yes"/>
      <point x="435.1111111111111" y="1207.8395061728395"/>
      <point x="476.22222222222223" y="1248.6543209876543"/>
      <point x="476.22222222222223" y="1304.1728395061727" type="curve" smooth="yes"/>
      <point x="476.22222222222223" y="1357.9259259259259"/>
      <point x="435.1111111111111" y="1399.5061728395062"/>
      <point x="380.12345679012344" y="1399.5061728395062" type="curve" smooth="yes"/>
      <point x="325.1358024691358" y="1399.5061728395062"/>
      <point x="284.0246913580247" y="1357.9259259259259"/>
      <point x="284.0246913580247" y="1304.1728395061727" type="curve" smooth="yes"/>
      <point x="284.0246913580247" y="1248.6543209876543"/>
      <point x="325.1358024691358" y="1207.8395061728395"/>
    </contour>
    <contour>
      <point x="727.8641975308642" y="1207.8395061728395" type="curve" smooth="yes"/>
      <point x="784.6172839506173" y="1207.8395061728395"/>
      <point x="823.9629629629629" y="1248.6543209876543"/>
      <point x="823.9629629629629" y="1304.1728395061727" type="curve" smooth="yes"/>
      <point x="823.9629629629629" y="1357.9259259259259"/>
      <point x="784.6172839506173" y="1399.5061728395062"/>
      <point x="727.8641975308642" y="1399.5061728395062" type="curve" smooth="yes"/>
      <point x="672.8765432098766" y="1399.5061728395062"/>
      <point x="633.2962962962963" y="1357.9259259259259"/>
      <point x="633.2962962962963" y="1304.1728395061727" type="curve" smooth="yes"/>
      <point x="633.2962962962963" y="1248.6543209876543"/>
      <point x="672.8765432098766" y="1207.8395061728395"/>
    </contour>
  </outline>
</glyph>
<glyph name="logicalnot" format="2">
  <advance width="1012.1481481481482"/>
  <unicode hex="00AC"/>
  <outline>
    <contour>
      <point x="815.716049382716" y="214.9506172839506" type="line"/>
      <point x="942.1481481481482" y="214.9506172839506" type="line"/>
      <point x="942.1481481481482" y="735.0987654320987" type="line"/>
      <point x="70.0" y="735.0987654320987" type="line"/>
      <point x="70.0" y="615.9012345679013" type="line"/>
      <point x="815.716049382716" y="615.9012345679013" type="line"/>
    </contour>
  </outline>
</glyph>
<glyph name="macron" format="2">
  <advance width="1107.7530864197531"/>
  <unicode hex="00AF"/>
  <outline>
    <contour>
      <point x="306.41975308641975" y="1232.4197530864199" type="line"/>
      <point x="802.5679012345679" y="1232.4197530864199" type="line"/>
      <point x="802.5679012345679" y="1342.20987654321" type="line"/>
      <point x="306.41975308641975" y="1342.20987654321" type="line"/>
    </contour>
  </outline>
</glyph>
<glyph name="Lslash" format="2">
  <advance width="983.7283950617284"/>
  <unicode hex="0141"/>
  <outline>
    <contour>
      <point x="185.88888888888889" y="0.0" type="line"/>
      <point x="936.2098765432099" y="0.0" type="line"/>
      <point x="936.2098765432099" y="134.9506172839506" type="line"/>
      <point x="344.8888888888889" y="134.9506172839506" type="line"/>
      <point x="344.8888888888889" y="566.4691358024692" type="line"/>
      <point x="732.6666666666666" y="772.8271604938271" type="line"/>
      <point x="732.6666666666666" y="901.9012345679013" type="line"/>
      <point x="344.8888888888889" y="695.3086419753087" type="line"/>
      <point x="344.8888888888889" y="1344.5925925925926" type="line"/>
      <point x="185.88888888888889" y="1344.5925925925926" type="line"/>
      <point x="185.88888888888889" y="617.1604938271605" type="line"/>
      <point x="20.0" y="531.6296296296297" type="line"/>
      <point x="20.0" y="402.7901234567901" type="line"/>
      <point x="185.88888888888889" y="488.320987654321" type="line"/>
    </contour>
  </outline>
</glyph>
<glyph name="tbar" format="2">
  <advance width="683.3703703703703"/>
  <unicode hex="0167"/>
  <anchor x="401.8024691358025" y="0.0" name="bottom"/>
  <anchor x="533.7283950617284" y="992.5802469135803" name="car"/>
  <anchor x="341.8024691358025" y="496.641975308642" name="center"/>
  <anchor x="288.69135802469134" y="1193.0" name="top"/>
  <anchor x="483.4691358024691" y="993.0493827160494" name="topright"/>
  <outline>
    <contour>
      <point x="52.123456790123456" y="520.4444444444445" type="line"/>
      <point x="624.604938271605" y="520.4444444444445" type="line"/>
      <point x="624.604938271605" y="646.4567901234568" type="line"/>
      <point x="52.123456790123456" y="646.4567901234568" type="line"/>
    </contour>
    <component base="t"/>
  </outline>
</glyph>
<glyph name="Uhorn" format="2">
  <advance width="1333.9753086419753"/>
  <unicode hex="01AF"/>
  <anchor x="666.9876543209876" y="0.0" name="bottom"/>
  <anchor x="666.9876543209876" y="1344.5925925925926" name="top"/>
  <outline>
    <contour>
      <point x="652.7530864197531" y="-25.0" type="curve" smooth="yes"/>
      <point x="920.3086419753087" y="-25.0"/>
      <point x="1132.320987654321" y="118.80246913580247"/>
      <point x="1132.320987654321" y="549.1481481481482" type="curve" smooth="yes"/>
      <point x="1132.320987654321" y="1274.432098765432" type="line"/>
      <point x="1250.6049382716049" y="1299.6666666666667"/>
      <point x="1354.5432098765432" y="1358.2469135802469"/>
      <point x="1354.5432098765432" y="1491.8271604938273" type="curve" smooth="yes"/>
      <point x="1354.5432098765432" y="1541.1728395061727"/>
      <point x="1334.3703703703704" y="1584.5185185185185"/>
      <point x="1307.9012345679012" y="1621.5185185185185" type="curve"/>
      <point x="1193.7037037037037" y="1565.8271604938273" type="line"/>
      <point x="1212.2345679012346" y="1539.0617283950617"/>
      <point x="1224.7037037037037" y="1512.1234567901236"/>
      <point x="1224.7037037037037" y="1482.4197530864199" type="curve" smooth="yes"/>
      <point x="1224.7037037037037" y="1390.3086419753085"/>
      <point x="1155.358024691358" y="1359.4197530864199"/>
      <point x="1044.5802469135801" y="1344.5925925925926" type="curve"/>
      <point x="980.7901234567901" y="1344.5925925925926" type="line"/>
      <point x="980.7901234567901" y="547.395061728395" type="line"/>
      <point x="980.7901234567901" y="218.30864197530863"/>
      <point x="834.5308641975308" y="114.95061728395062"/>
      <point x="652.7530864197531" y="114.95061728395062" type="curve" smooth="yes"/>
      <point x="476.2716049382716" y="114.95061728395062"/>
      <point x="333.71604938271605" y="218.30864197530863"/>
      <point x="333.71604938271605" y="547.395061728395" type="curve" smooth="yes"/>
      <point x="333.71604938271605" y="1344.5925925925926" type="line"/>
      <point x="174.71604938271605" y="1344.5925925925926" type="line"/>
      <point x="174.71604938271605" y="549.1481481481482" type="line"/>
      <point x="174.71604938271605" y="118.80246913580247"/>
      <point x="385.4320987654321" y="-25.0"/>
    </contour>
  </outline>
</glyph>
<glyph name="commaturnedmod" format="2">
  <advance width="276.60493827160496"/>
  <unicode hex="02BB"/>
  <outline>
    <contour>
      <point x="132.6172839506173" y="893.2592592592592" type="curve" smooth="yes"/>
      <point x="192.60493827160494" y="893.2592592592592"/>
      <point x="236.65432098765433" y="935.3086419753087"/>
      <point x="236.65432098765433" y="1001.2345679012345" type="curve" smooth="yes"/>
      <point x="236.65432098765433" y="1065.9876543209878"/>
      <point x="185.60493827160494" y="1101.037037037037"/>
      <point x="132.6172839506173" y="1101.037037037037" type="curve" smooth="yes"/>
      <point x="126.61728395061728" y="1101.037037037037"/>
      <point x="119.38271604938271" y="1101.037037037037"/>
      <point x="114.14814814814815" y="1099.037037037037" type="curve"/>
      <point x="114.14814814814815" y="1215.5061728395062"/>
      <point x="165.55555555555554" y="1284.679012345679"/>
      <point x="266.60493827160496" y="1353.5061728395062" type="curve"/>
      <point x="219.79012345679013" y="1427.2469135802469" type="line"/>
      <point x="83.81481481481481" y="1347.1358024691358"/>
      <point x="10.0" y="1231.679012345679"/>
      <point x="10.0" y="1070.4567901234568" type="curve" smooth="yes"/>
      <point x="10.0" y="956.9506172839506"/>
      <point x="55.58024691358025" y="893.2592592592592"/>
    </contour>
  </outline>
</glyph>
<glyph name="apostrophemod" format="2">
  <advance width="277.60493827160496"/>
  <unicode hex="02BC"/>
  <outline>
    <contour>
      <point x="55.58024691358025" y="898.3086419753087" type="line"/>
      <point x="191.79012345679013" y="977.8888888888889"/>
      <point x="267.60493827160496" y="1092.8765432098764"/>
      <point x="267.60493827160496" y="1253.3333333333333" type="curve" smooth="yes"/>
      <point x="267.60493827160496" y="1367.0740740740741"/>
      <point x="220.55555555555554" y="1432.2962962962963"/>
      <point x="144.22222222222223" y="1432.2962962962963" type="curve" smooth="yes"/>
      <point x="84.0" y="1432.2962962962963"/>
      <point x="40.95061728395062" y="1391.2469135802469"/>
      <point x="40.95061728395062" y="1322.5555555555557" type="curve" smooth="yes"/>
      <point x="40.95061728395062" y="1258.8024691358025"/>
      <point x="90.53086419753086" y="1223.7530864197531"/>
      <point x="144.22222222222223" y="1223.7530864197531" type="curve" smooth="yes"/>
      <point x="150.22222222222223" y="1223.7530864197531"/>
      <point x="155.22222222222223" y="1223.7530864197531"/>
      <point x="161.45679012345678" y="1226.7530864197531" type="curve"/>
      <point x="161.45679012345678" y="1108.0493827160494"/>
      <point x="110.04938271604938" y="1039.8765432098764"/>
      <point x="10.0" y="971.0493827160494" type="curve"/>
    </contour>
  </outline>
</glyph>
<glyph name="ringhalfright" format="2">
  <advance width="243.62962962962962"/>
  <unicode hex="02BE"/>
  <outline>
    <contour>
      <point x="10.0" y="1109.641975308642" type="line"/>
      <point x="153.69135802469137" y="1105.1728395061727"/>
      <point x="233.62962962962962" y="1179.283950617284"/>
      <point x="233.62962962962962" y="1296.6913580246915" type="curve" smooth="yes"/>
      <point x="233.62962962962962" y="1413.0987654320988"/>
      <point x="153.69135802469137" y="1487.9753086419753"/>
      <point x="10.0" y="1483.5061728395062" type="curve"/>
      <point x="10.0" y="1414.111111111111" type="line"/>
      <point x="104.29629629629629" y="1414.111111111111"/>
      <point x="142.88888888888889" y="1366.0493827160494"/>
      <point x="142.88888888888889" y="1296.6913580246915" type="curve" smooth="yes"/>
      <point x="142.88888888888889" y="1227.0987654320988"/>
      <point x="104.29629629629629" y="1178.5061728395062"/>
      <point x="10.0" y="1178.5061728395062" type="curve"/>
    </contour>
  </outline>
</glyph>
<glyph name="ringhalfleft" format="2">
  <advance width="243.39506172839506"/>
  <unicode hex="02BF"/>
  <outline>
    <contour>
      <point x="233.39506172839506" y="1109.641975308642" type="curve"/>
      <point x="233.39506172839506" y="1178.5061728395062" type="line"/>
      <point x="139.09876543209876" y="1178.5061728395062"/>
      <point x="101.27160493827161" y="1227.0987654320988"/>
      <point x="101.27160493827161" y="1296.6913580246915" type="curve" smooth="yes"/>
      <point x="101.27160493827161" y="1366.0493827160494"/>
      <point x="139.09876543209876" y="1414.111111111111"/>
      <point x="233.39506172839506" y="1414.111111111111" type="curve"/>
      <point x="233.39506172839506" y="1483.5061728395062" type="line"/>
      <point x="91.23456790123457" y="1487.9753086419753"/>
      <point x="10.0" y="1413.0987654320988"/>
      <point x="10.0" y="1296.6913580246915" type="curve" smooth="yes"/>
      <point x="10.0" y="1179.283950617284"/>
      <point x="91.23456790123457" y="1105.1728395061727"/>
    </contour>
  </outline>
</glyph>
<glyph name="verticallinemod" format="2">
  <advance width="154.8395061728395"/>
  <unicode hex="02C8"/>
  <outline>
    <contour>
      <point x="22.765432098765434" y="1090.111111111111" type="line"/>
      <point x="132.8395061728395" y="1090.111111111111" type="line"/>
      <point x="144.8395061728395" y="1461.2716049382716" type="line"/>
      <point x="10.0" y="1461.2716049382716" type="line"/>
    </contour>
  </outline>
</glyph>
<glyph name="secondtonechinese" format="2">
  <advance width="370.41975308641975"/>
  <unicode hex="02CA"/>
  <outline>
    <contour>
      <point x="10.0" y="1173.469135802469" type="line"/>
      <point x="130.37037037037038" y="1173.469135802469" type="line"/>
      <point x="360.41975308641975" y="1460.0493827160494" type="line"/>
      <point x="195.53086419753086" y="1460.0493827160494" type="line"/>
    </contour>
  </outline>
</glyph>
<glyph name="fourthtonechinese" format="2">
  <advance width="369.41975308641975"/>
  <unicode hex="02CB"/>
  <outline>
    <contour>
      <point x="238.5185185185185" y="1173.469135802469" type="line"/>
      <point x="359.41975308641975" y="1173.469135802469" type="line"/>
      <point x="174.12345679012344" y="1460.0493827160494" type="line"/>
      <point x="10.0" y="1460.0493827160494" type="line"/>
    </contour>
  </outline>
</glyph>
<glyph name="acutecomb" format="2">
  <unicode hex="0301"/>
  <anchor x="110.51851851851852" y="993.0493827160494" name="_top"/>
  <anchor x="182.69135802469137" y="1351.6913580246915" name="top"/>
  <outline>
    <contour>
      <point x="10.0" y="1173.469135802469" type="line"/>
      <point x="130.90123456790124" y="1173.469135802469" type="line"/>
      <point x="360.18518518518516" y="1460.0493827160494" type="line"/>
      <point x="195.2962962962963" y="1460.0493827160494" type="line"/>
    </contour>
  </outline>
</glyph>
<glyph name="tildecomb" format="2">
  <unicode hex="0303"/>
  <anchor x="289.9753086419753" y="993.0493827160494" name="_top"/>
  <anchor x="289.9753086419753" y="1397.5061728395062" name="top"/>
  <outline>
    <contour>
      <point x="10.0" y="1186.8271604938273" type="curve"/>
      <point x="99.67901234567901" y="1186.8271604938273" type="line"/>
      <point x="111.14814814814815" y="1256.358024691358"/>
      <point x="133.679012345679" y="1291.9506172839506"/>
      <point x="174.97530864197532" y="1291.9506172839506" type="curve" smooth="yes"/>
      <point x="245.80246913580248" y="1291.9506172839506"/>
      <point x="303.679012345679" y="1186.8271604938273"/>
      <point x="408.14814814814815" y="1186.8271604938273" type="curve" smooth="yes"/>
      <point x="508.08641975308643" y="1186.8271604938273"/>
      <point x="559.5432098765432" y="1280.5925925925926"/>
      <point x="569.9506172839506" y="1397.5061728395062" type="curve"/>
      <point x="480.2716049382716" y="1397.5061728395062" type="line"/>
      <point x="468.8024691358025" y="1328.7407407407406"/>
      <point x="446.2716049382716" y="1291.6172839506173"/>
      <point x="404.9753086419753" y="1291.6172839506173" type="curve" smooth="yes"/>
      <point x="337.91358024691357" y="1291.6172839506173"/>
      <point x="276.2716049382716" y="1397.5061728395062"/>
      <point x="171.80246913580248" y="1397.5061728395062" type="curve" smooth="yes"/>
      <point x="71.8641975308642" y="1397.5061728395062"/>
      <point x="20.40740740740741" y="1303.9753086419753"/>
    </contour>
  </outline>
</glyph>
<glyph name="hookabovecomb" format="2">
  <unicode hex="0309"/>
  <anchor x="157.01234567901236" y="993.0493827160494" name="_top"/>
  <anchor x="157.01234567901236" y="1483.5061728395062" name="top"/>
  <outline>
    <contour>
      <point x="81.81481481481481" y="1132.1728395061727" type="line"/>
      <point x="196.97530864197532" y="1153.530864197531"/>
      <point x="304.0246913580247" y="1203.1728395061727"/>
      <point x="304.0246913580247" y="1320.2222222222222" type="curve" smooth="yes"/>
      <point x="304.0246913580247" y="1424.6913580246915"/>
      <point x="198.1358024691358" y="1477.5061728395062"/>
      <point x="27.11111111111111" y="1483.5061728395062" type="curve"/>
      <point x="10.0" y="1391.530864197531" type="line"/>
      <point x="123.23456790123457" y="1386.2962962962963"/>
      <point x="180.82716049382717" y="1357.469135802469"/>
      <point x="180.82716049382717" y="1302.5802469135801" type="curve" smooth="yes"/>
      <point x="180.82716049382717" y="1250.2222222222222"/>
      <point x="130.23456790123456" y="1224.8641975308642"/>
      <point x="63.34567901234568" y="1206.037037037037" type="curve"/>
    </contour>
  </outline>
</glyph>
<glyph name="dblgravecomb" format="2">
  <unicode hex="030F"/>
  <anchor x="300.4691358024691" y="993.0493827160494" name="_top"/>
  <anchor x="300.4691358024691" y="1460.0493827160494" name="top"/>
  <outline>
    <contour>
      <point x="189.11111111111111" y="1168.7037037037037" type="line"/>
      <point x="294.9012345679012" y="1168.7037037037037" type="line"/>
      <point x="149.37037037037038" y="1460.0493827160494" type="line"/>
      <point x="10.0" y="1460.0493827160494" type="line"/>
    </contour>
    <contour>
      <point x="485.38271604938274" y="1168.7037037037037" type="line"/>
      <point x="590.9382716049382" y="1168.7037037037037" type="line"/>
      <point x="446.641975308642" y="1460.0493827160494" type="line"/>
      <point x="307.037037037037" y="1460.0493827160494" type="line"/>
    </contour>
  </outline>
</glyph>
<glyph name="commaturnedabovecomb" format="2">
  <unicode hex="0312"/>
  <anchor x="108.90123456790124" y="993.0493827160494" name="_top"/>
  <anchor x="108.90123456790124" y="1493.5061728395062" name="top"/>
  <outline>
    <contour>
      <point x="110.69135802469135" y="1116.530864197531" type="curve" smooth="yes"/>
      <point x="154.5679012345679" y="1116.530864197531"/>
      <point x="190.44444444444446" y="1146.641975308642"/>
      <point x="190.44444444444446" y="1205.5185185185185" type="curve" smooth="yes"/>
      <point x="190.44444444444446" y="1258.1604938271605"/>
      <point x="148.2716049382716" y="1284.037037037037"/>
      <point x="108.1604938271605" y="1284.037037037037" type="curve" smooth="yes"/>
      <point x="102.39506172839506" y="1284.037037037037"/>
      <point x="98.1604938271605" y="1284.037037037037"/>
      <point x="91.39506172839506" y="1281.2716049382716" type="curve"/>
      <point x="95.8641975308642" y="1343.3333333333333"/>
      <point x="129.80246913580248" y="1393.1604938271605"/>
      <point x="207.80246913580248" y="1431.283950617284" type="curve"/>
      <point x="171.39506172839506" y="1493.5061728395062" type="line"/>
      <point x="57.34567901234568" y="1440.5061728395062"/>
      <point x="10.0" y="1350.3333333333333"/>
      <point x="10.0" y="1254.7530864197531" type="curve" smooth="yes"/>
      <point x="10.0" y="1164.1728395061727"/>
      <point x="45.407407407407405" y="1116.530864197531"/>
    </contour>
  </outline>
</glyph>
<glyph name="horncomb" format="2">
  <unicode hex="031B"/>
  <anchor x="-10.0" y="993.0493827160494" name="_topright"/>
  <anchor x="334.91358024691357" y="1250.5061728395062" name="topright"/>
  <outline>
    <contour>
      <point x="25.17283950617284" y="892.6543209876543" type="line"/>
      <point x="190.45679012345678" y="909.716049382716"/>
      <point x="314.91358024691357" y="975.358024691358"/>
      <point x="314.91358024691357" y="1120.0493827160494" type="curve" smooth="yes"/>
      <point x="314.91358024691357" y="1170.3950617283951"/>
      <point x="295.5061728395062" y="1213.5061728395062"/>
      <point x="269.037037037037" y="1250.5061728395062" type="curve"/>
      <point x="155.60493827160494" y="1194.0493827160494" type="line"/>
      <point x="172.37037037037038" y="1167.5185185185185"/>
      <point x="185.07407407407408" y="1138.8148148148148"/>
      <point x="185.07407407407408" y="1109.641975308642" type="curve" smooth="yes"/>
      <point x="185.07407407407408" y="1027.1728395061727"/>
      <point x="126.54320987654322" y="988.8148148148148"/>
      <point x="10.0" y="973.0493827160494" type="curve"/>
    </contour>
  </outline>
</glyph>
<glyph name="dieresisbelowcomb" format="2">
  <unicode hex="0324"/>
  <anchor x="280.08641975308643" y="0.0" name="_bottom"/>
  <anchor x="280.08641975308643" y="-407.69135802469134" name="bottom"/>
  <outline>
    <contour>
      <point x="453.8395061728395" y="-407.69135802469134" type="curve" smooth="yes"/>
      <point x="510.5925925925926" y="-407.69135802469134"/>
      <point x="550.1728395061729" y="-365.1111111111111"/>
      <point x="550.1728395061729" y="-311.358024691358" type="curve" smooth="yes"/>
      <point x="550.1728395061729" y="-257.0740740740741"/>
      <point x="510.5925925925926" y="-216.02469135802468"/>
      <point x="453.8395061728395" y="-216.02469135802468" type="curve" smooth="yes"/>
      <point x="399.08641975308643" y="-216.02469135802468"/>
      <point x="357.74074074074076" y="-257.0740740740741"/>
      <point x="357.74074074074076" y="-311.358024691358" type="curve" smooth="yes"/>
      <point x="357.74074074074076" y="-365.1111111111111"/>
      <point x="399.08641975308643" y="-407.69135802469134"/>
    </contour>
    <contour>
      <point x="106.33333333333333" y="-407.69135802469134" type="curve" smooth="yes"/>
      <point x="161.08641975308643" y="-407.69135802469134"/>
      <point x="202.4320987654321" y="-365.1111111111111"/>
      <point x="202.4320987654321" y="-311.358024691358" type="curve" smooth="yes"/>
      <point x="202.4320987654321" y="-257.0740740740741"/>
      <point x="161.08641975308643" y="-216.02469135802468"/>
      <point x="106.33333333333333" y="-216.02469135802468" type="curve" smooth="yes"/>
      <point x="49.58024691358025" y="-216.02469135802468"/>
      <point x="10.0" y="-257.0740740740741"/>
      <point x="10.0" y="-311.358024691358" type="curve" smooth="yes"/>
      <point x="10.0" y="-365.1111111111111"/>
      <point x="49.58024691358025" y="-407.69135802469134"/>
    </contour>
  </outline>
</glyph>
<glyph name="commaaccentcomb" format="2">
  <unicode hex="0326"/>
  <anchor x="163.7469135802469" y="0.0" name="_bottom"/>
  <anchor x="163.7469135802469" y="-437.87654320987656" name="bottom"/>
  <outline>
    <contour>
      <point x="26.938271604938272" y="-437.87654320987656" type="line"/>
      <point x="178.03703703703704" y="-425.34567901234567"/>
      <point x="317.4938271604938" y="-370.4074074074074"/>
      <point x="317.4938271604938" y="-253.12345679012347" type="curve" smooth="yes"/>
      <point x="317.4938271604938" y="-162.2469135802469"/>
      <point x="257.25925925925924" y="-117.30864197530865"/>
      <point x="122.75308641975309" y="-96.01234567901234" type="curve"/>
      <point x="86.70370370370371" y="-171.93827160493828" type="line"/>
      <point x="145.93827160493828" y="-185.40740740740742"/>
      <point x="193.65432098765433" y="-208.93827160493828"/>
      <point x="193.65432098765433" y="-263.5925925925926" type="curve" smooth="yes"/>
      <point x="193.65432098765433" y="-316.65432098765433"/>
      <point x="118.35802469135803" y="-344.24691358024694"/>
      <point x="10.0" y="-358.77777777777777" type="curve"/>
    </contour>
  </outline>
</glyph>
<glyph name="ogonekcomb" format="2">
  <unicode hex="0328"/>
  <anchor x="348.4938271604938" y="6.530864197530864" name="_ogonek"/>
  <outline>
    <contour>
      <point x="190.92592592592592" y="-421.17283950617286" type="curve" smooth="yes"/>
      <point x="240.80246913580248" y="-421.17283950617286"/>
      <point x="310.61728395061726" y="-396.7037037037037"/>
      <point x="348.4938271604938" y="-367.2962962962963" type="curve"/>
      <point x="305.679012345679" y="-288.0246913580247" type="line"/>
      <point x="281.61728395061726" y="-305.08641975308643"/>
      <point x="255.3827160493827" y="-314.55555555555554"/>
      <point x="222.320987654321" y="-314.55555555555554" type="curve" smooth="yes"/>
      <point x="173.02469135802468" y="-314.55555555555554"/>
      <point x="127.49382716049382" y="-283.7283950617284"/>
      <point x="127.49382716049382" y="-218.1358024691358" type="curve" smooth="yes"/>
      <point x="127.49382716049382" y="-137.71604938271605"/>
      <point x="180.14814814814815" y="-59.2962962962963"/>
      <point x="269.2716049382716" y="6.530864197530864" type="curve"/>
      <point x="155.0" y="6.530864197530864" type="line"/>
      <point x="86.87654320987654" y="-45.358024691358025"/>
      <point x="10.0" y="-138.12345679012347"/>
      <point x="10.0" y="-248.2962962962963" type="curve" smooth="yes"/>
      <point x="10.0" y="-361.7037037037037"/>
      <point x="90.34567901234568" y="-421.17283950617286"/>
    </contour>
  </outline>
</glyph>
<glyph name="brevebelowcomb" format="2">
  <unicode hex="032E"/>
  <anchor x="265.75308641975306" y="0.0" name="_bottom"/>
  <anchor x="265.75308641975306" y="-421.17283950617286" name="bottom"/>
  <outline>
    <contour>
      <point x="265.75308641975306" y="-421.17283950617286" type="curve" smooth="yes"/>
      <point x="440.6296296296296" y="-421.17283950617286"/>
      <point x="512.2098765432099" y="-281.87654320987656"/>
      <point x="521.5061728395061" y="-163.65432098765433" type="curve"/>
      <point x="423.358024691358" y="-163.65432098765433" type="line"/>
      <point x="412.5925925925926" y="-244.77777777777777"/>
      <point x="363.4691358024691" y="-322.4938271604938"/>
      <point x="265.75308641975306" y="-322.4938271604938" type="curve" smooth="yes"/>
      <point x="168.03703703703704" y="-322.4938271604938"/>
      <point x="118.91358024691358" y="-244.77777777777777"/>
      <point x="108.14814814814815" y="-163.65432098765433" type="curve"/>
      <point x="10.0" y="-163.65432098765433" type="line"/>
      <point x="19.296296296296298" y="-281.87654320987656"/>
      <point x="90.87654320987654" y="-421.17283950617286"/>
    </contour>
  </outline>
</glyph>
<glyph name="candraBindu-deva" format="2">
  <unicode hex="0901"/>
  <anchor x="272.7654320987654" y="1256.3827160493827" name="_candra"/>
  <anchor x="272.0" y="1256.3827160493827" name="_top"/>
  <anchor x="265.17283950617286" y="1880.8395061728395" name="top"/>
  <outline>
    <contour>
      <point x="269.7654320987654" y="1455.6296296296296" type="curve" smooth="yes"/>
      <point x="402.6296296296296" y="1455.6296296296296"/>
      <point x="501.2716049382716" y="1526.7407407407406"/>
      <point x="560.9135802469136" y="1654.7283950617284" type="curve"/>
      <point x="477.8888888888889" y="1705.9506172839506" type="line"/>
      <point x="438.5925925925926" y="1642.358024691358"/>
      <point x="382.4074074074074" y="1577.1234567901236"/>
      <point x="272.4074074074074" y="1577.1234567901236" type="curve" smooth="yes"/>
      <point x="167.58024691358025" y="1577.1234567901236"/>
      <point x="107.04938271604938" y="1633.6543209876543"/>
      <point x="65.75308641975309" y="1703.4814814814815" type="curve"/>
      <point x="-20.975308641975307" y="1648.5555555555557" type="line"/>
      <point x="23.024691358024693" y="1548.9753086419753"/>
      <point x="115.07407407407408" y="1455.6296296296296"/>
    </contour>
    <contour>
      <point x="265.9382716049383" y="1666.358024691358" type="curve" smooth="yes"/>
      <point x="327.4567901234568" y="1666.358024691358"/>
      <point x="352.8641975308642" y="1691.530864197531"/>
      <point x="352.8641975308642" y="1751.5802469135801" type="curve" smooth="yes"/>
      <point x="352.8641975308642" y="1811.8641975308642"/>
      <point x="327.4567901234568" y="1837.2716049382716"/>
      <point x="265.9382716049383" y="1837.2716049382716" type="curve" smooth="yes"/>
      <point x="205.1851851851852" y="1837.2716049382716"/>
      <point x="179.01234567901236" y="1811.8641975308642"/>
      <point x="179.01234567901236" y="1751.5802469135801" type="curve" smooth="yes"/>
      <point x="179.01234567901236" y="1691.530864197531"/>
      <point x="205.1851851851852" y="1666.358024691358"/>
    </contour>
  </outline>
</glyph>
<glyph name="anusvara-deva" format="2">
  <unicode hex="0902"/>
  <anchor x="270.7037037037037" y="1256.3827160493827" name="_top"/>
  <outline>
    <contour>
      <point x="270.7037037037037" y="1428.3950617283951" type="curve" smooth="yes"/>
      <point x="334.3333333333333" y="1428.3950617283951"/>
      <point x="360.91358024691357" y="1454.7407407407406"/>
      <point x="360.91358024691357" y="1517.3703703703704" type="curve" smooth="yes"/>
      <point x="360.91358024691357" y="1580.2345679012346"/>
      <point x="334.3333333333333" y="1606.5802469135801"/>
      <point x="270.7037037037037" y="1606.5802469135801" type="curve" smooth="yes"/>
      <point x="207.83950617283952" y="1606.5802469135801"/>
      <point x="180.49382716049382" y="1580.2345679012346"/>
      <point x="180.49382716049382" y="1517.3703703703704" type="curve" smooth="yes"/>
      <point x="180.49382716049382" y="1454.7407407407406"/>
      <point x="207.83950617283952" y="1428.3950617283951"/>
    </contour>
  </outline>
</glyph>
<glyph name="i-deva" format="2">
  <advance width="998.7654320987655"/>
  <unicode hex="0907"/>
  <anchor x="484.22222222222223" y="1256.3827160493827" name="candra"/>
  <anchor x="734.9753086419753" y="1256.3827160493827" name="top"/>
  <outline>
    <contour>
      <point x="527.2592592592592" y="10.444444444444446" type="curve"/>
      <point x="757.1111111111111" y="10.444444444444446"/>
      <point x="936.8271604938271" y="115.30864197530865"/>
      <point x="936.8271604938271" y="339.5925925925926" type="curve" smooth="yes"/>
      <point x="936.8271604938271" y="553.283950617284"/>
      <point x="791.074074074074" y="594.4074074074074"/>
      <point x="638.320987654321" y="593.641975308642" type="curve" smooth="yes"/>
      <point x="518.679012345679" y="592.8765432098766"/>
      <point x="323.85185185185185" y="572.641975308642"/>
      <point x="261.32098765432096" y="556.5802469135803" type="curve"/>
      <point x="290.44444444444446" y="542.6913580246913" type="line"/>
      <point x="254.71604938271605" y="586.5925925925926"/>
      <point x="234.65432098765433" y="658.7901234567901"/>
      <point x="234.65432098765433" y="716.3827160493827" type="curve" smooth="yes"/>
      <point x="234.65432098765433" y="791.679012345679"/>
      <point x="263.358024691358" y="833.9876543209876"/>
      <point x="393.0740740740741" y="833.9876543209876" type="curve" smooth="yes"/>
      <point x="756.1481481481482" y="833.9876543209876" type="line"/>
      <point x="739.8024691358024" y="963.5802469135803" type="line"/>
      <point x="359.1358024691358" y="963.5802469135803" type="line" smooth="yes"/>
      <point x="185.35802469135803" y="963.5802469135803"/>
      <point x="101.23456790123457" y="889.0617283950618"/>
      <point x="101.23456790123457" y="755.7777777777778" type="curve" smooth="yes"/>
      <point x="101.23456790123457" y="644.9135802469136"/>
      <point x="152.28395061728395" y="513.8148148148148"/>
      <point x="212.5679012345679" y="459.58024691358025" type="curve" smooth="yes"/>
      <point x="235.55555555555554" y="439.2345679012346"/>
      <point x="260.61728395061726" y="426.4567901234568"/>
      <point x="296.74074074074076" y="431.7530864197531" type="curve" smooth="yes"/>
      <point x="353.08641975308643" y="440.04938271604937"/>
      <point x="536.9629629629629" y="461.04938271604937"/>
      <point x="628.0864197530864" y="461.04938271604937" type="curve" smooth="yes"/>
      <point x="759.6913580246913" y="461.04938271604937"/>
      <point x="803.2962962962963" y="410.74074074074076"/>
      <point x="800.0" y="319.65432098765433" type="curve" smooth="yes"/>
      <point x="795.9382716049382" y="214.5679012345679"/>
      <point x="718.7283950617284" y="138.5679012345679"/>
      <point x="518.320987654321" y="138.5679012345679" type="curve" smooth="yes"/>
      <point x="422.95061728395063" y="138.5679012345679"/>
      <point x="333.8888888888889" y="152.92592592592592"/>
      <point x="237.5679012345679" y="201.03703703703704" type="curve"/>
      <point x="317.2345679012346" y="133.71604938271605" type="line"/>
      <point x="223.9506172839506" y="319.7654320987654" type="line"/>
      <point x="91.04938271604938" y="287.9382716049383" type="line"/>
      <point x="87.58024691358024" y="266.358024691358"/>
      <point x="85.34567901234568" y="242.60493827160494"/>
      <point x="85.34567901234568" y="226.19753086419752" type="curve" smooth="yes"/>
      <point x="85.34567901234568" y="109.1604938271605"/>
      <point x="185.44444444444446" y="62.62962962962963"/>
      <point x="299.0740740740741" y="28.160493827160494" type="curve"/>
      <point x="301.358024691358" y="56.333333333333336" type="line"/>
      <point x="368.5925925925926" y="24.20987654320988"/>
      <point x="446.60493827160496" y="10.444444444444446"/>
    </contour>
    <contour>
      <point x="439.2716049382716" y="-289.08641975308643" type="line"/>
      <point x="558.5185185185185" y="-219.58024691358025" type="line"/>
      <point x="293.5432098765432" y="147.62962962962962" type="line"/>
      <point x="207.58024691358025" y="133.2716049382716" type="line"/>
    </contour>
    <contour>
      <point x="-13.641975308641975" y="1133.851851851852" type="line"/>
      <point x="1013.1728395061729" y="1133.851851851852" type="line"/>
      <point x="1013.1728395061729" y="1256.3827160493827" type="line"/>
      <point x="-13.641975308641975" y="1256.3827160493827" type="line"/>
    </contour>
    <contour>
      <point x="665.9506172839506" y="833.9876543209876" type="line"/>
      <point x="810.1851851851852" y="833.9876543209876" type="line"/>
      <point x="810.1851851851852" y="1198.7530864197531" type="line"/>
      <point x="665.9506172839506" y="1198.7530864197531" type="line"/>
    </contour>
  </outline>
</glyph>
<glyph name="kha-deva" format="2">
  <advance width="1596.7407407407406"/>
  <unicode hex="0916"/>
  <anchor x="1319.8024691358025" y="0.0" name="bottom"/>
  <anchor x="1248.79012345679" y="1256.3827160493827" name="candra"/>
  <anchor x="145.03703703703704" y="30.5679012345679" name="nukta"/>
  <anchor x="1317.5061728395062" y="1256.3827160493827" name="top"/>
  <outline>
    <contour>
      <point x="776.4691358024692" y="-56.7037037037037" type="curve" smooth="yes"/>
      <point x="834.5308641975308" y="-56.7037037037037"/>
      <point x="934.3086419753087" y="-51.46913580246913"/>
      <point x="1017.3827160493827" y="-12.925925925925924" type="curve"/>
      <point x="985.9753086419753" y="107.49382716049382" type="line"/>
      <point x="928.8024691358024" y="86.60493827160494"/>
      <point x="851.9135802469136" y="71.18518518518519"/>
      <point x="771.2962962962963" y="71.18518518518519" type="curve" smooth="yes"/>
      <point x="556.4320987654321" y="71.18518518518519"/>
      <point x="347.5679012345679" y="235.53086419753086"/>
      <point x="220.04938271604937" y="604.8518518518518" type="curve"/>
      <point x="197.98765432098764" y="574.4444444444445" type="line"/>
      <point x="232.35802469135803" y="562.0864197530864"/>
      <point x="270.30864197530866" y="551.1481481481482"/>
      <point x="312.5432098765432" y="551.1481481481482" type="curve" smooth="yes"/>
      <point x="416.9753086419753" y="551.1481481481482"/>
      <point x="517.8395061728395" y="614.283950617284"/>
      <point x="517.8395061728395" y="826.3333333333334" type="curve" smooth="yes"/>
      <point x="517.8395061728395" y="1185.1358024691358" type="line"/>
      <point x="371.3703703703704" y="1184.3703703703704" type="line"/>
      <point x="371.3703703703704" y="823.7283950617284" type="line" smooth="yes"/>
      <point x="371.3703703703704" y="721.4074074074074"/>
      <point x="345.5432098765432" y="672.1604938271605"/>
      <point x="267.22222222222223" y="670.6296296296297" type="curve" smooth="yes"/>
      <point x="234.45679012345678" y="669.8641975308642"/>
      <point x="199.09876543209876" y="678.0370370370371"/>
      <point x="157.03703703703704" y="712.3333333333334" type="curve"/>
      <point x="61.95061728395062" y="647.8271604938271" type="line"/>
      <point x="246.6172839506173" y="119.95061728395062"/>
      <point x="498.71604938271605" y="-56.7037037037037"/>
    </contour>
    <contour>
      <point x="951.2222222222222" y="264.4074074074074" type="curve" smooth="yes"/>
      <point x="1102.5185185185185" y="264.4074074074074"/>
      <point x="1222.5061728395062" y="326.1111111111111"/>
      <point x="1297.037037037037" y="421.679012345679" type="curve"/>
      <point x="1283.1234567901236" y="561.7283950617284" type="line"/>
      <point x="1210.4197530864199" y="456.8395061728395"/>
      <point x="1105.2345679012346" y="389.5925925925926"/>
      <point x="971.7407407407408" y="389.5925925925926" type="curve" smooth="yes"/>
      <point x="849.2962962962963" y="389.5925925925926"/>
      <point x="792.1728395061729" y="447.25925925925924"/>
      <point x="792.1728395061729" y="579.6296296296297" type="curve" smooth="yes"/>
      <point x="792.1728395061729" y="702.641975308642"/>
      <point x="841.5802469135803" y="777.1975308641976"/>
      <point x="1009.8641975308642" y="778.9012345679013" type="curve" smooth="yes"/>
      <point x="1092.2222222222222" y="780.1358024691358"/>
      <point x="1191.4444444444443" y="763.9012345679013"/>
      <point x="1297.7407407407406" y="732.4814814814815" type="curve"/>
      <point x="1295.8024691358025" y="829.9382716049382" type="line"/>
      <point x="1235.2716049382716" y="867.1481481481482"/>
      <point x="1121.8641975308642" y="903.4938271604939"/>
      <point x="989.1728395061729" y="903.4938271604939" type="curve" smooth="yes"/>
      <point x="778.7037037037037" y="903.4938271604939"/>
      <point x="643.1728395061729" y="807.5679012345679"/>
      <point x="643.1728395061729" y="579.8024691358024" type="curve" smooth="yes"/>
      <point x="643.1728395061729" y="414.38271604938274"/>
      <point x="730.4814814814815" y="264.4074074074074"/>
    </contour>
    <contour>
      <point x="1246.9506172839506" y="0.0" type="line"/>
      <point x="1392.6543209876543" y="0.0" type="line"/>
      <point x="1392.6543209876543" y="1189.0123456790122" type="line"/>
      <point x="1246.9506172839506" y="1189.0123456790122" type="line"/>
    </contour>
    <contour>
      <point x="-13.641975308641975" y="1133.851851851852" type="line"/>
      <point x="1611.148148148148" y="1133.851851851852" type="line"/>
      <point x="1611.148148148148" y="1256.3827160493827" type="line"/>
      <point x="-13.641975308641975" y="1256.3827160493827" type="line"/>
    </contour>
  </outline>
</glyph>
<glyph name="ga-deva" format="2">
  <advance width="1139.3456790123457"/>
  <unicode hex="0917"/>
  <anchor x="861.1728395061729" y="0.0" name="bottom"/>
  <anchor x="788.2592592592592" y="1256.3827160493827" name="candra"/>
  <anchor x="311.58024691358025" y="134.09876543209876" name="nukta"/>
  <anchor x="861.9382716049382" y="1256.3827160493827" name="top"/>
  <outline>
    <contour>
      <point x="788.320987654321" y="0.23456790123456786" type="line"/>
      <point x="934.0246913580247" y="0.23456790123456786" type="line"/>
      <point x="934.0246913580247" y="1210.4444444444443" type="line"/>
      <point x="788.320987654321" y="1210.4444444444443" type="line"/>
    </contour>
    <contour>
      <point x="269.0" y="379.1975308641975" type="line"/>
      <point x="369.96296296296293" y="381.7283950617284"/>
      <point x="391.0740740740741" y="433.95061728395063"/>
      <point x="391.0740740740741" y="497.58024691358025" type="curve" smooth="yes"/>
      <point x="391.0740740740741" y="695.320987654321" type="line"/>
      <point x="272.7654320987654" y="695.320987654321" type="line"/>
      <point x="95.48148148148148" y="674.6172839506173" type="line"/>
      <point x="95.48148148148148" y="572.9506172839506" type="line"/>
    </contour>
    <contour>
      <point x="246.1358024691358" y="507.0987654320988" type="line"/>
      <point x="391.8395061728395" y="629.2716049382716" type="line"/>
      <point x="391.8395061728395" y="1187.4814814814815" type="line"/>
      <point x="246.1358024691358" y="1187.4814814814815" type="line"/>
    </contour>
    <contour>
      <point x="-13.641975308641975" y="1133.851851851852" type="line"/>
      <point x="1153.5185185185185" y="1133.851851851852" type="line"/>
      <point x="1153.5185185185185" y="1256.3827160493827" type="line"/>
      <point x="-13.641975308641975" y="1256.3827160493827" type="line"/>
    </contour>
  </outline>
</glyph>
<glyph name="nga-deva" format="2">
  <advance width="1125.0123456790122"/>
  <unicode hex="0919"/>
  <anchor x="572.1728395061729" y="-61.19753086419753" name="bottom"/>
  <anchor x="716.2222222222222" y="1257.148148148148" name="candra"/>
  <anchor x="736.1604938271605" y="1256.3827160493827" name="top"/>
  <anchor x="527.4320987654321" y="-222.62962962962962" name="nukta"/>
  <outline>
    <contour>
      <point x="993.2469135802469" y="774.2592592592592" type="curve" smooth="yes"/>
      <point x="929.4444444444445" y="774.2592592592592"/>
      <point x="901.6296296296297" y="747.679012345679"/>
      <point x="901.6296296296297" y="684.1111111111111" type="curve" smooth="yes"/>
      <point x="901.6296296296297" y="620.7777777777778"/>
      <point x="929.4444444444445" y="593.9629629629629"/>
      <point x="993.2469135802469" y="593.9629629629629" type="curve" smooth="yes"/>
      <point x="1057.5802469135801" y="593.9629629629629"/>
      <point x="1084.6296296296296" y="620.7777777777778"/>
      <point x="1084.6296296296296" y="684.1111111111111" type="curve" smooth="yes"/>
      <point x="1084.6296296296296" y="747.679012345679"/>
      <point x="1057.5802469135801" y="774.2592592592592"/>
    </contour>
    <contour>
      <point x="1139.4197530864199" y="1256.3827160493827" type="line"/>
      <point x="872.4320987654321" y="1256.3827160493827" type="line"/>
      <point x="872.4320987654321" y="1133.851851851852" type="line"/>
      <point x="1139.4197530864199" y="1133.851851851852" type="line"/>
    </contour>
    <component base="dda-deva"/>
  </outline>
</glyph>
<glyph name="ja-deva" format="2">
  <advance width="1418.9382716049383"/>
  <unicode hex="091C"/>
  <anchor x="1143.9382716049383" y="0.0" name="bottom"/>
  <anchor x="1027.0" y="1256.3827160493827" name="candra"/>
  <anchor x="139.12345679012347" y="74.69135802469135" name="nukta"/>
  <anchor x="1144.7654320987654" y="1256.3827160493827" name="top"/>
  <outline>
    <contour>
      <point x="528.2962962962963" y="169.2962962962963" type="curve" smooth="yes"/>
      <point x="732.8271604938271" y="169.2962962962963"/>
      <point x="859.5802469135803" y="288.12345679012344"/>
      <point x="859.5802469135803" y="468.82716049382714" type="curve" smooth="yes"/>
      <point x="859.5802469135803" y="621.5432098765432"/>
      <point x="784.395061728395" y="709.3827160493827"/>
      <point x="645.9876543209876" y="782.6172839506173" type="curve"/>
      <point x="564.1111111111111" y="861.925925925926" type="line"/>
      <point x="517.5432098765432" y="761.6172839506173" type="line"/>
      <point x="641.9629629629629" y="700.1975308641976"/>
      <point x="715.0493827160494" y="619.074074074074"/>
      <point x="715.0493827160494" y="492.037037037037" type="curve" smooth="yes"/>
      <point x="715.0493827160494" y="379.9012345679012"/>
      <point x="650.0370370370371" y="306.82716049382714"/>
      <point x="522.4814814814815" y="305.82716049382714" type="curve" smooth="yes"/>
      <point x="264.7037037037037" y="303.82716049382714"/>
      <point x="204.91358024691357" y="621.395061728395"/>
      <point x="180.14814814814815" y="845.9135802469136" type="curve"/>
      <point x="60.308641975308646" y="829.8024691358024" type="line"/>
      <point x="86.19753086419753" y="446.22222222222223"/>
      <point x="211.320987654321" y="169.2962962962963"/>
    </contour>
    <contour>
      <point x="624.0370370370371" y="733.0987654320987" type="line"/>
      <point x="1158.8148148148148" y="733.0987654320987" type="line"/>
      <point x="1158.8148148148148" y="861.925925925926" type="line"/>
      <point x="564.8765432098766" y="861.925925925926" type="line"/>
    </contour>
    <contour>
      <point x="1068.3827160493827" y="0.0" type="line"/>
      <point x="1214.0864197530864" y="0.0" type="line"/>
      <point x="1214.0864197530864" y="1192.8765432098764" type="line"/>
      <point x="1068.3827160493827" y="1192.8765432098764" type="line"/>
    </contour>
    <contour>
      <point x="-13.641975308641975" y="1133.851851851852" type="line"/>
      <point x="1433.3456790123457" y="1133.851851851852" type="line"/>
      <point x="1433.3456790123457" y="1256.3827160493827" type="line"/>
      <point x="-13.641975308641975" y="1256.3827160493827" type="line"/>
    </contour>
  </outline>
</glyph>
<glyph name="jha-deva" format="2">
  <advance width="1501.7654320987654"/>
  <unicode hex="091D"/>
  <anchor x="127.11111111111111" y="-163.08641975308643" name="nukta"/>
  <anchor x="1224.0617283950617" y="0.0" name="bottom"/>
  <anchor x="484.22222222222223" y="1256.3827160493827" name="candra_1"/>
  <anchor x="1132.3827160493827" y="1256.3827160493827" name="candra_2"/>
  <anchor x="734.9753086419753" y="1256.3827160493827" name="top_1"/>
  <anchor x="1224.5925925925926" y="1256.3827160493827" name="top_2"/>
  <outline>
    <contour>
      <point x="854.6666666666666" y="424.38271604938274" type="line"/>
      <point x="960.6666666666666" y="409.9753086419753"/>
      <point x="1149.7283950617284" y="450.74074074074076"/>
      <point x="1213.7283950617284" y="510.74074074074076" type="curve"/>
      <point x="1196.5061728395062" y="646.2222222222222" type="line"/>
      <point x="1079.7407407407406" y="556.925925925926"/>
      <point x="921.7407407407408" y="521.283950617284"/>
      <point x="803.5061728395061" y="532.2222222222222" type="curve"/>
    </contour>
    <component base="i-deva"/>
    <component base="aaMatra-deva" xOffset="946.1234567901234"/>
  </outline>
</glyph>
<glyph name="ttha-deva" format="2">
  <advance width="1172.4074074074074"/>
  <unicode hex="0920"/>
  <anchor x="594.8271604938271" y="-66.4320987654321" name="bottom"/>
  <anchor x="700.9629629629629" y="1256.3827160493827" name="candra"/>
  <anchor x="573.4691358024692" y="-189.20987654320987" name="nukta"/>
  <anchor x="774.0617283950618" y="1256.3827160493827" name="top"/>
  <outline>
    <contour>
      <point x="-13.641975308641975" y="1133.851851851852" type="line"/>
      <point x="1186.8148148148148" y="1133.851851851852" type="line"/>
      <point x="1186.8148148148148" y="1256.3827160493827" type="line"/>
      <point x="-13.641975308641975" y="1256.3827160493827" type="line"/>
    </contour>
    <contour>
      <point x="848.0370370370371" y="852.4691358024692" type="line"/>
      <point x="848.0370370370371" y="1175.6666666666667" type="line"/>
      <point x="703.0370370370371" y="1175.6666666666667" type="line"/>
      <point x="702.2716049382716" y="868.0987654320987" type="line"/>
    </contour>
    <contour>
      <point x="591.5802469135803" y="28.19753086419753" type="curve" smooth="yes"/>
      <point x="918.8148148148148" y="28.19753086419753"/>
      <point x="1088.1604938271605" y="169.1358024691358"/>
      <point x="1088.1604938271605" y="461.18518518518516" type="curve" smooth="yes"/>
      <point x="1088.1604938271605" y="683.7283950617284"/>
      <point x="990.679012345679" y="838.4197530864197"/>
      <point x="793.5802469135803" y="883.9382716049382" type="curve" smooth="yes"/>
      <point x="723.5802469135803" y="898.9382716049382"/>
      <point x="648.9135802469136" y="902.641975308642"/>
      <point x="574.6913580246913" y="902.641975308642" type="curve" smooth="yes"/>
      <point x="251.25925925925927" y="902.641975308642"/>
      <point x="84.24691358024691" y="780.1481481481482"/>
      <point x="84.24691358024691" y="479.9382716049383" type="curve" smooth="yes"/>
      <point x="84.24691358024691" y="186.83950617283952"/>
      <point x="261.41975308641975" y="28.19753086419753"/>
    </contour>
    <contour>
      <point x="587.0" y="160.320987654321" type="curve" smooth="yes"/>
      <point x="340.679012345679" y="160.320987654321"/>
      <point x="237.65432098765433" y="258.22222222222223"/>
      <point x="237.65432098765433" y="464.01234567901236" type="curve" smooth="yes"/>
      <point x="237.65432098765433" y="682.7283950617284"/>
      <point x="340.358024691358" y="771.283950617284"/>
      <point x="578.1604938271605" y="771.283950617284" type="curve" smooth="yes"/>
      <point x="660.0864197530864" y="771.283950617284"/>
      <point x="746.0987654320987" y="766.641975308642"/>
      <point x="813.4691358024692" y="732.9382716049382" type="curve" smooth="yes"/>
      <point x="895.320987654321" y="690.8765432098766"/>
      <point x="936.9876543209876" y="606.8024691358024"/>
      <point x="935.7530864197531" y="464.65432098765433" type="curve" smooth="yes"/>
      <point x="933.8148148148148" y="257.1604938271605"/>
      <point x="822.1481481481482" y="160.320987654321"/>
    </contour>
  </outline>
</glyph>
<glyph name="dda-deva" format="2">
  <advance width="1002.4197530864197"/>
  <unicode hex="0921"/>
  <anchor x="525.5555555555555" y="-83.93827160493827" name="bottom"/>
  <anchor x="663.358024691358" y="1256.3827160493827" name="candra"/>
  <anchor x="527.4320987654321" y="-222.62962962962962" name="nukta"/>
  <anchor x="735.2716049382716" y="1256.3827160493827" name="top"/>
  <outline>
    <contour>
      <point x="-13.641975308641975" y="1133.851851851852" type="line"/>
      <point x="1016.8271604938271" y="1133.851851851852" type="line"/>
      <point x="1016.8271604938271" y="1256.3827160493827" type="line"/>
      <point x="-13.641975308641975" y="1256.3827160493827" type="line"/>
    </contour>
    <contour>
      <point x="664.0123456790124" y="821.0246913580247" type="line"/>
      <point x="808.2469135802469" y="821.0246913580247" type="line"/>
      <point x="808.2469135802469" y="1184.5925925925926" type="line"/>
      <point x="664.0123456790124" y="1184.5925925925926" type="line"/>
    </contour>
    <contour>
      <point x="525.320987654321" y="-3.987654320987654" type="curve" smooth="yes"/>
      <point x="754.6419753086419" y="-3.987654320987654"/>
      <point x="934.8888888888889" y="102.34567901234568"/>
      <point x="934.8888888888889" y="326.6296296296296" type="curve" smooth="yes"/>
      <point x="934.8888888888889" y="540.320987654321"/>
      <point x="788.3703703703703" y="581.4444444444445"/>
      <point x="635.8518518518518" y="580.679012345679" type="curve" smooth="yes"/>
      <point x="516.2098765432099" y="579.9135802469136"/>
      <point x="322.14814814814815" y="559.679012345679"/>
      <point x="259.61728395061726" y="543.6172839506173" type="curve"/>
      <point x="288.74074074074076" y="529.7283950617284" type="line"/>
      <point x="252.01234567901236" y="573.6296296296297"/>
      <point x="232.9506172839506" y="645.8271604938271"/>
      <point x="232.9506172839506" y="703.4197530864197" type="curve" smooth="yes"/>
      <point x="232.9506172839506" y="778.716049382716"/>
      <point x="261.41975308641975" y="821.0246913580247"/>
      <point x="391.1358024691358" y="821.0246913580247" type="curve" smooth="yes"/>
      <point x="754.2098765432099" y="821.0246913580247" type="line"/>
      <point x="738.0987654320987" y="950.6172839506173" type="line"/>
      <point x="357.1975308641975" y="950.6172839506173" type="line" smooth="yes"/>
      <point x="183.41975308641975" y="950.6172839506173"/>
      <point x="99.53086419753086" y="876.0987654320987"/>
      <point x="99.53086419753086" y="742.8148148148148" type="curve" smooth="yes"/>
      <point x="99.53086419753086" y="631.9506172839506"/>
      <point x="150.58024691358025" y="501.08641975308643"/>
      <point x="210.62962962962962" y="446.61728395061726" type="curve" smooth="yes"/>
      <point x="233.3827160493827" y="426.2716049382716"/>
      <point x="258.14814814814815" y="413.4938271604938"/>
      <point x="294.037037037037" y="418.7901234567901" type="curve" smooth="yes"/>
      <point x="351.38271604938274" y="427.320987654321"/>
      <point x="534.4938271604939" y="448.08641975308643"/>
      <point x="626.3827160493827" y="448.08641975308643" type="curve" smooth="yes"/>
      <point x="757.7530864197531" y="448.08641975308643"/>
      <point x="800.5925925925926" y="397.77777777777777"/>
      <point x="798.2962962962963" y="306.69135802469134" type="curve" smooth="yes"/>
      <point x="796.0" y="201.60493827160494"/>
      <point x="717.0246913580247" y="124.37037037037037"/>
      <point x="513.6172839506173" y="124.37037037037037" type="curve" smooth="yes"/>
      <point x="327.44444444444446" y="124.37037037037037"/>
      <point x="218.1358024691358" y="203.14814814814815"/>
      <point x="109.72839506172839" y="294.39506172839504" type="curve"/>
      <point x="45.33333333333333" y="208.79012345679013" type="line"/>
      <point x="166.98765432098764" y="77.65432098765432"/>
      <point x="323.5061728395062" y="-3.987654320987654"/>
    </contour>
  </outline>
</glyph>
<glyph name="bha-deva" format="2">
  <advance width="1221.3333333333333"/>
  <unicode hex="092D"/>
  <anchor x="944.395061728395" y="0.0" name="bottom"/>
  <anchor x="826.6172839506173" y="1256.3827160493827" name="candra"/>
  <anchor x="381.24691358024694" y="52.91358024691358" name="nukta"/>
  <anchor x="944.395061728395" y="1256.3827160493827" name="top"/>
  <outline>
    <contour>
      <point x="297.1975308641975" y="550.2962962962963" type="line"/>
      <point x="442.9012345679012" y="550.2962962962963" type="line"/>
      <point x="442.9012345679012" y="1035.8271604938273" type="line" smooth="yes"/>
      <point x="442.9012345679012" y="1149.6296296296296"/>
      <point x="424.1975308641975" y="1277.9135802469136"/>
      <point x="222.92592592592592" y="1277.9135802469136" type="curve" smooth="yes"/>
      <point x="168.40740740740742" y="1277.9135802469136"/>
      <point x="128.40740740740742" y="1267.6172839506173"/>
      <point x="90.70370370370371" y="1251.9135802469136" type="curve"/>
      <point x="119.64197530864197" y="1132.5555555555557" type="line"/>
      <point x="143.23456790123456" y="1139.5555555555557"/>
      <point x="170.0" y="1148.6172839506173"/>
      <point x="199.2962962962963" y="1148.6172839506173" type="curve" smooth="yes"/>
      <point x="264.9012345679012" y="1148.6172839506173"/>
      <point x="297.1975308641975" y="1124.2592592592594"/>
      <point x="297.1975308641975" y="1039.5925925925926" type="curve" smooth="yes"/>
    </contour>
    <contour>
      <point x="319.82716049382714" y="304.30864197530866" type="line"/>
      <point x="421.32098765432096" y="306.60493827160496"/>
      <point x="441.9012345679012" y="360.0617283950617"/>
      <point x="441.9012345679012" y="423.22222222222223" type="curve" smooth="yes"/>
      <point x="441.9012345679012" y="621.1975308641976" type="line"/>
      <point x="318.7654320987654" y="621.1975308641976" type="line"/>
      <point x="146.30864197530863" y="600.7283950617284" type="line"/>
      <point x="146.30864197530863" y="497.2962962962963" type="line"/>
    </contour>
    <contour>
      <point x="302.962962962963" y="484.77777777777777" type="line"/>
      <point x="982.3703703703703" y="484.77777777777777" type="line"/>
      <point x="982.3703703703703" y="614.1358024691358" type="line"/>
      <point x="302.962962962963" y="614.1358024691358" type="line"/>
    </contour>
    <contour>
      <point x="871.5432098765432" y="0.0" type="line"/>
      <point x="1017.2469135802469" y="0.0" type="line"/>
      <point x="1017.2469135802469" y="1200.6913580246915" type="line"/>
      <point x="871.5432098765432" y="1200.6913580246915" type="line"/>
    </contour>
    <contour>
      <point x="682.4691358024692" y="1133.851851851852" type="line"/>
      <point x="1235.9753086419753" y="1133.851851851852" type="line"/>
      <point x="1235.9753086419753" y="1256.3827160493827" type="line"/>
      <point x="682.4691358024692" y="1256.3827160493827" type="line"/>
    </contour>
  </outline>
</glyph>
<glyph name="ya-deva" format="2">
  <advance width="1144.8641975308642"/>
  <unicode hex="092F"/>
  <anchor x="867.6913580246913" y="0.0" name="bottom"/>
  <anchor x="771.3703703703703" y="1256.3827160493827" name="candra"/>
  <anchor x="196.0" y="56.96296296296296" name="nukta"/>
  <anchor x="867.6913580246913" y="1256.3827160493827" name="top"/>
  <outline>
    <contour>
      <point x="489.2098765432099" y="261.7283950617284" type="curve" smooth="yes"/>
      <point x="611.7407407407408" y="261.7283950617284"/>
      <point x="749.7530864197531" y="315.55555555555554"/>
      <point x="832.8765432098766" y="426.8395061728395" type="curve"/>
      <point x="837.283950617284" y="614.358024691358" type="line"/>
      <point x="748.641975308642" y="462.679012345679"/>
      <point x="623.4567901234568" y="394.55555555555554"/>
      <point x="483.8024691358025" y="394.55555555555554" type="curve" smooth="yes"/>
      <point x="341.25925925925924" y="394.55555555555554"/>
      <point x="258.0246913580247" y="464.3333333333333"/>
      <point x="197.19753086419752" y="649.5308641975308" type="curve"/>
      <point x="156.41975308641975" y="574.9012345679013" type="line"/>
      <point x="364.18518518518516" y="648.0370370370371"/>
      <point x="458.3703703703704" y="761.641975308642"/>
      <point x="458.3703703703704" y="889.3086419753087" type="curve" smooth="yes"/>
      <point x="458.3703703703704" y="967.4814814814815"/>
      <point x="422.30864197530866" y="1054.851851851852"/>
      <point x="343.30864197530866" y="1152.7283950617284" type="curve"/>
      <point x="186.4320987654321" y="1149.432098765432" type="line"/>
      <point x="261.4320987654321" y="1067.962962962963"/>
      <point x="307.25925925925924" y="967.7777777777778"/>
      <point x="307.25925925925924" y="904.716049382716" type="curve" smooth="yes"/>
      <point x="307.25925925925924" y="814.1358024691358"/>
      <point x="238.3827160493827" y="740.4074074074074"/>
      <point x="53.82716049382716" y="672.8148148148148" type="curve"/>
      <point x="106.41975308641976" y="407.38271604938274"/>
      <point x="265.08641975308643" y="261.7283950617284"/>
    </contour>
    <contour>
      <point x="794.8395061728395" y="0.0" type="line"/>
      <point x="940.5432098765432" y="0.0" type="line"/>
      <point x="940.5432098765432" y="1206.2716049382716" type="line"/>
      <point x="794.8395061728395" y="1206.2716049382716" type="line"/>
    </contour>
    <contour>
      <point x="-12.234567901234568" y="1133.851851851852" type="line"/>
      <point x="1159.2716049382716" y="1133.851851851852" type="line"/>
      <point x="1159.2716049382716" y="1256.3827160493827" type="line"/>
      <point x="-12.234567901234568" y="1256.3827160493827" type="line"/>
    </contour>
  </outline>
</glyph>
<glyph name="ha-deva" format="2">
  <advance width="999.320987654321"/>
  <unicode hex="0939"/>
  <anchor x="785.5679012345679" y="-165.66666666666666" name="bottom"/>
  <anchor x="665.5432098765432" y="1256.3827160493827" name="candra"/>
  <anchor x="136.85185185185185" y="-194.97530864197532" name="nukta"/>
  <anchor x="754.3456790123457" y="1256.3827160493827" name="top"/>
  <outline>
    <contour>
      <point x="784.0370370370371" y="-264.85185185185185" type="curve"/>
      <point x="816.4938271604939" y="-149.07407407407408" type="line"/>
      <point x="651.0" y="-105.14814814814815"/>
      <point x="247.7037037037037" y="4.802469135802468"/>
      <point x="242.53086419753086" y="279.7901234567901" type="curve" smooth="yes"/>
      <point x="240.06172839506172" y="419.2962962962963"/>
      <point x="332.9259259259259" y="499.1111111111111"/>
      <point x="540.5679012345679" y="499.1111111111111" type="curve" smooth="yes"/>
      <point x="693.4074074074074" y="499.1111111111111"/>
      <point x="774.7777777777778" y="454.28395061728395"/>
      <point x="774.7777777777778" y="363.4320987654321" type="curve" smooth="yes"/>
      <point x="774.7777777777778" y="283.5925925925926"/>
      <point x="701.3086419753087" y="241.28395061728395"/>
      <point x="613.2962962962963" y="224.0493827160494" type="curve"/>
      <point x="653.2716049382716" y="109.03703703703704" type="line"/>
      <point x="797.4444444444445" y="127.14814814814815"/>
      <point x="903.4938271604939" y="225.6172839506173"/>
      <point x="903.4938271604939" y="362.60493827160496" type="curve" smooth="yes"/>
      <point x="903.4938271604939" y="544.716049382716"/>
      <point x="758.4444444444445" y="629.0"/>
      <point x="540.395061728395" y="629.0" type="curve" smooth="yes"/>
      <point x="341.2345679012346" y="629.0"/>
      <point x="96.5925925925926" y="560.2469135802469"/>
      <point x="96.5925925925926" y="296.48148148148147" type="curve" smooth="yes"/>
      <point x="96.5925925925926" y="92.77777777777777"/>
      <point x="274.4691358024691" y="-146.320987654321"/>
    </contour>
    <contour>
      <point x="261.5061728395062" y="490.2098765432099" type="curve"/>
      <point x="356.358024691358" y="525.3703703703703" type="line"/>
      <point x="303.65432098765433" y="612.0123456790124"/>
      <point x="267.7037037037037" y="692.3703703703703"/>
      <point x="270.2345679012346" y="758.0370370370371" type="curve" smooth="yes"/>
      <point x="272.7654320987654" y="816.641975308642"/>
      <point x="315.4320987654321" y="844.7530864197531"/>
      <point x="410.08641975308643" y="844.7530864197531" type="curve" smooth="yes"/>
      <point x="827.9629629629629" y="844.7530864197531" type="line"/>
      <point x="827.9629629629629" y="1174.3703703703704" type="line"/>
      <point x="681.4938271604939" y="1174.3703703703704" type="line"/>
      <point x="681.4938271604939" y="973.5802469135803" type="line"/>
      <point x="383.38271604938274" y="973.5802469135803" type="line" smooth="yes"/>
      <point x="217.07407407407408" y="973.5802469135803"/>
      <point x="124.88888888888889" y="907.4320987654321"/>
      <point x="123.35802469135803" y="790.4320987654321" type="curve" smooth="yes"/>
      <point x="121.82716049382717" y="694.1975308641976"/>
      <point x="172.11111111111111" y="600.7283950617284"/>
    </contour>
    <contour>
      <point x="-13.641975308641975" y="1133.851851851852" type="line"/>
      <point x="1013.7283950617284" y="1133.851851851852" type="line"/>
      <point x="1013.7283950617284" y="1256.3827160493827" type="line"/>
      <point x="-13.641975308641975" y="1256.3827160493827" type="line"/>
    </contour>
  </outline>
</glyph>
<glyph name="ooeMatra-deva" format="2">
  <advance width="555.641975308642"/>
  <unicode hex="093B"/>
  <anchor x="277.9382716049383" y="0.0" name="bottom"/>
  <anchor x="186.25925925925927" y="1256.3827160493827" name="candra"/>
  <anchor x="278.4691358024691" y="1256.3827160493827" name="top"/>
  <outline>
    <contour>
      <point x="205.08641975308643" y="1107.8395061728395" type="line"/>
      <point x="350.0246913580247" y="1107.8395061728395" type="line"/>
      <point x="350.0246913580247" y="1485.20987654321" type="line"/>
      <point x="205.08641975308643" y="1485.20987654321" type="line"/>
    </contour>
    <component base="aaMatra-deva"/>
  </outline>
</glyph>
<glyph name="nukta-deva" format="2">
  <unicode hex="093C"/>
  <anchor x="275.5925925925926" y="-168.65432098765433" name="_nukta"/>
  <anchor x="274.18518518518516" y="-356.14814814814815" name="bottom"/>
  <outline>
    <contour>
      <point x="275.358024691358" y="-78.9753086419753" type="curve" smooth="yes"/>
      <point x="212.25925925925927" y="-78.9753086419753"/>
      <point x="184.679012345679" y="-105.55555555555556"/>
      <point x="184.679012345679" y="-168.65432098765433" type="curve" smooth="yes"/>
      <point x="184.679012345679" y="-230.7530864197531"/>
      <point x="212.25925925925927" y="-257.3333333333333"/>
      <point x="275.358024691358" y="-257.3333333333333" type="curve" smooth="yes"/>
      <point x="338.4567901234568" y="-257.3333333333333"/>
      <point x="365.2716049382716" y="-230.7530864197531"/>
      <point x="365.2716049382716" y="-168.65432098765433" type="curve" smooth="yes"/>
      <point x="365.2716049382716" y="-105.55555555555556"/>
      <point x="338.4567901234568" y="-78.9753086419753"/>
    </contour>
  </outline>
</glyph>
<glyph name="aaMatra-deva" format="2">
  <advance width="555.641975308642"/>
  <unicode hex="093E"/>
  <anchor x="277.9382716049383" y="0.0" name="bottom"/>
  <anchor x="186.25925925925927" y="1256.3827160493827" name="candra"/>
  <anchor x="278.4691358024691" y="1256.3827160493827" name="top"/>
  <outline>
    <contour>
      <point x="204.85185185185185" y="0.0" type="line"/>
      <point x="351.32098765432096" y="0.0" type="line"/>
      <point x="351.32098765432096" y="1196.5185185185185" type="line"/>
      <point x="204.85185185185185" y="1196.5185185185185" type="line"/>
    </contour>
    <contour>
      <point x="-13.641975308641975" y="1133.851851851852" type="line"/>
      <point x="570.0493827160494" y="1133.851851851852" type="line"/>
      <point x="570.0493827160494" y="1256.3827160493827" type="line"/>
      <point x="-13.641975308641975" y="1256.3827160493827" type="line"/>
    </contour>
  </outline>
</glyph>
<glyph name="iMatra-deva" format="2">
  <advance width="554.8765432098766"/>
  <unicode hex="093F"/>
  <anchor x="1359.0123456790122" y="1414.8024691358025" name="candra"/>
  <anchor x="1358.6296296296296" y="1424.1851851851852" name="imatra"/>
  <anchor x="1347.2962962962963" y="1422.716049382716" name="top"/>
  <outline>
    <contour>
      <point x="261.04938271604937" y="1194.7037037037037" type="curve"/>
      <point x="385.9382716049383" y="1197.8765432098764" type="line"/>
      <point x="271.1975308641975" y="1331.0493827160494"/>
      <point x="245.19753086419752" y="1398.0"/>
      <point x="245.19753086419752" y="1468.8765432098764" type="curve" smooth="yes"/>
      <point x="245.19753086419752" y="1583.3086419753085"/>
      <point x="314.3333333333333" y="1643.0864197530864"/>
      <point x="503.28395061728395" y="1643.0864197530864" type="curve" smooth="yes"/>
      <point x="758.9876543209876" y="1643.0864197530864"/>
      <point x="1040.6543209876543" y="1537.2592592592594"/>
      <point x="1333.1851851851852" y="1339.1604938271605" type="curve"/>
      <point x="1385.3456790123457" y="1424.1851851851852" type="line"/>
      <point x="1082.6666666666667" y="1652.9012345679012"/>
      <point x="756.4814814814815" y="1775.0864197530864"/>
      <point x="486.0617283950617" y="1775.0864197530864" type="curve" smooth="yes"/>
      <point x="250.33333333333334" y="1775.0864197530864"/>
      <point x="97.08641975308642" y="1693.5432098765432"/>
      <point x="97.08641975308642" y="1499.5061728395062" type="curve" smooth="yes"/>
      <point x="97.08641975308642" y="1397.641975308642"/>
      <point x="139.9506172839506" y="1302.7037037037037"/>
    </contour>
    <contour>
      <point x="204.85185185185185" y="0.23456790123456786" type="line"/>
      <point x="350.55555555555554" y="0.23456790123456786" type="line"/>
      <point x="350.55555555555554" y="1195.567901234568" type="line"/>
      <point x="204.85185185185185" y="1195.567901234568" type="line"/>
    </contour>
    <contour>
      <point x="-13.641975308641975" y="1133.851851851852" type="line"/>
      <point x="573.7530864197531" y="1133.851851851852" type="line"/>
      <point x="573.7530864197531" y="1256.3827160493827" type="line"/>
      <point x="-13.641975308641975" y="1256.3827160493827" type="line"/>
    </contour>
  </outline>
</glyph>
<glyph name="uMatra-deva" format="2">
  <unicode hex="0941"/>
  <anchor x="208.8148148148148" y="0.0" name="_bottom"/>
  <outline>
    <contour>
      <point x="179.40740740740742" y="-521.1975308641976" type="curve" smooth="yes"/>
      <point x="377.5061728395062" y="-521.1975308641976"/>
      <point x="490.38271604938274" y="-405.14814814814815"/>
      <point x="490.38271604938274" y="-249.62962962962962" type="curve" smooth="yes"/>
      <point x="490.38271604938274" y="-108.93827160493827"/>
      <point x="393.2716049382716" y="9.407407407407407"/>
      <point x="208.8148148148148" y="9.407407407407407" type="curve" smooth="yes"/>
      <point x="155.06172839506172" y="9.407407407407407"/>
      <point x="80.66666666666667" y="-1.7654320987654322"/>
      <point x="7.4938271604938285" y="-37.7037037037037" type="curve"/>
      <point x="45.888888888888886" y="-149.9506172839506" type="line"/>
      <point x="109.65432098765432" y="-124.18518518518519"/>
      <point x="162.59259259259258" y="-114.30864197530863"/>
      <point x="209.0493827160494" y="-114.30864197530863" type="curve" smooth="yes"/>
      <point x="294.5925925925926" y="-114.30864197530863"/>
      <point x="353.4938271604938" y="-145.90123456790124"/>
      <point x="353.4938271604938" y="-249.62962962962962" type="curve" smooth="yes"/>
      <point x="353.4938271604938" y="-336.5308641975309"/>
      <point x="295.48148148148147" y="-394.30864197530866"/>
      <point x="178.7037037037037" y="-394.30864197530866" type="curve" smooth="yes"/>
      <point x="57.2716049382716" y="-394.30864197530866"/>
      <point x="-57.7283950617284" y="-353.0740740740741"/>
      <point x="-228.90123456790124" y="-156.9506172839506" type="curve"/>
      <point x="-301.51851851851853" y="-228.16049382716048" type="line"/>
      <point x="-112.46913580246914" y="-466.14814814814815"/>
      <point x="36.876543209876544" y="-521.1975308641976"/>
    </contour>
  </outline>
</glyph>
<glyph name="uuMatra-deva" format="2">
  <unicode hex="0942"/>
  <anchor x="265.4074074074074" y="0.0" name="_bottom"/>
  <outline>
    <contour>
      <point x="265.2962962962963" y="-514.2592592592592" type="curve" smooth="yes"/>
      <point x="319.58024691358025" y="-514.2592592592592"/>
      <point x="393.2098765432099" y="-503.85185185185185"/>
      <point x="466.38271604938274" y="-467.91358024691357" type="curve"/>
      <point x="428.22222222222223" y="-356.60493827160496" type="line"/>
      <point x="364.98765432098764" y="-382.3703703703704"/>
      <point x="312.04938271604937" y="-392.24691358024694"/>
      <point x="265.0617283950617" y="-392.24691358024694" type="curve" smooth="yes"/>
      <point x="179.28395061728395" y="-392.24691358024694"/>
      <point x="120.38271604938271" y="-361.41975308641975"/>
      <point x="120.38271604938271" y="-255.98765432098764" type="curve" smooth="yes"/>
      <point x="120.38271604938271" y="-168.320987654321"/>
      <point x="179.16049382716048" y="-110.5432098765432"/>
      <point x="295.17283950617286" y="-110.5432098765432" type="curve" smooth="yes"/>
      <point x="417.3703703703704" y="-110.5432098765432"/>
      <point x="531.604938271605" y="-151.77777777777777"/>
      <point x="703.5432098765432" y="-347.9012345679012" type="curve"/>
      <point x="775.6296296296297" y="-277.4567901234568" type="line"/>
      <point x="586.5802469135803" y="-39.46913580246913"/>
      <point x="437.0" y="16.11111111111111"/>
      <point x="294.7037037037037" y="16.11111111111111" type="curve" smooth="yes"/>
      <point x="97.1358024691358" y="16.11111111111111"/>
      <point x="-16.271604938271604" y="-99.93827160493827"/>
      <point x="-16.271604938271604" y="-255.45679012345678" type="curve" smooth="yes"/>
      <point x="-16.271604938271604" y="-396.679012345679"/>
      <point x="81.37037037037037" y="-514.2592592592592"/>
    </contour>
  </outline>
</glyph>
<glyph name="rVocalicMatra-deva" format="2">
  <unicode hex="0943"/>
  <anchor x="249.11111111111111" y="0.0" name="_bottom"/>
  <outline>
    <contour>
      <point x="251.59259259259258" y="-443.55555555555554" type="curve" smooth="yes"/>
      <point x="360.8888888888889" y="-443.55555555555554"/>
      <point x="460.5925925925926" y="-401.962962962963"/>
      <point x="534.7654320987655" y="-346.25925925925924" type="curve"/>
      <point x="481.5432098765432" y="-246.06172839506172" type="line"/>
      <point x="419.60493827160496" y="-289.12345679012344"/>
      <point x="338.41975308641975" y="-324.95061728395063"/>
      <point x="261.4691358024691" y="-326.48148148148147" type="curve" smooth="yes"/>
      <point x="175.92592592592592" y="-328.01234567901236"/>
      <point x="120.96296296296296" y="-286.12345679012344"/>
      <point x="120.96296296296296" y="-211.09876543209876" type="curve" smooth="yes"/>
      <point x="120.96296296296296" y="-123.37037037037037"/>
      <point x="187.5185185185185" y="-71.07407407407408"/>
      <point x="336.1604938271605" y="-29.851851851851855" type="curve"/>
      <point x="285.82716049382714" y="69.34567901234567" type="line"/>
      <point x="99.76543209876543" y="29.999999999999996"/>
      <point x="-14.45679012345679" y="-74.2962962962963"/>
      <point x="-14.45679012345679" y="-215.03703703703704" type="curve"/>
      <point x="-14.45679012345679" y="-363.4567901234568"/>
      <point x="117.25925925925927" y="-443.55555555555554"/>
    </contour>
  </outline>
</glyph>
<glyph name="rrVocalicMatra-deva" format="2">
  <unicode hex="0944"/>
  <anchor x="277.9382716049383" y="0.0" name="_bottom"/>
  <outline>
    <contour>
      <point x="324.4074074074074" y="-761.5308641975308" type="curve" smooth="yes"/>
      <point x="431.641975308642" y="-761.5308641975308"/>
      <point x="535.5802469135803" y="-724.2345679012345"/>
      <point x="608.6913580246913" y="-669.0617283950618" type="curve"/>
      <point x="556.2345679012345" y="-568.8641975308642" type="line"/>
      <point x="493.0617283950617" y="-616.2222222222222"/>
      <point x="405.87654320987656" y="-646.2222222222222"/>
      <point x="331.4567901234568" y="-646.2222222222222" type="curve" smooth="yes"/>
      <point x="244.79012345679013" y="-646.2222222222222"/>
      <point x="205.54320987654322" y="-608.5061728395062"/>
      <point x="205.54320987654322" y="-539.6666666666666" type="curve" smooth="yes"/>
      <point x="205.54320987654322" y="-464.82716049382714"/>
      <point x="265.1975308641975" y="-423.5308641975309"/>
      <point x="419.2716049382716" y="-406.7654320987654" type="curve"/>
      <point x="406.4567901234568" y="-300.69135802469134" type="line"/>
      <point x="143.0493827160494" y="-317.7530864197531"/>
      <point x="72.18518518518519" y="-434.08641975308643"/>
      <point x="72.18518518518519" y="-537.3086419753087" type="curve" smooth="yes"/>
      <point x="72.18518518518519" y="-664.5925925925926"/>
      <point x="166.93827160493828" y="-761.5308641975308"/>
    </contour>
    <contour>
      <point x="272.2962962962963" y="-390.77777777777777" type="curve"/>
      <point x="334.55555555555554" y="-332.91358024691357" type="line"/>
      <point x="186.14814814814815" y="-310.74074074074076"/>
      <point x="140.1358024691358" y="-252.50617283950618"/>
      <point x="140.1358024691358" y="-186.7283950617284" type="curve" smooth="yes"/>
      <point x="140.1358024691358" y="-105.37037037037038"/>
      <point x="204.58024691358025" y="-63.93827160493828"/>
      <point x="349.44444444444446" y="-65.06172839506173" type="curve"/>
      <point x="349.44444444444446" y="49.24691358024691" type="line"/>
      <point x="338.037037037037" y="50.24691358024691"/>
      <point x="333.4567901234568" y="51.24691358024691"/>
      <point x="322.04938271604937" y="51.24691358024691" type="curve" smooth="yes"/>
      <point x="172.58024691358025" y="51.24691358024691"/>
      <point x="1.3703703703703711" y="-19.92592592592593"/>
      <point x="1.3703703703703711" y="-167.97530864197532" type="curve" smooth="yes"/>
      <point x="1.3703703703703711" y="-238.38271604938274"/>
      <point x="19.37037037037037" y="-360.67901234567904"/>
    </contour>
  </outline>
</glyph>
<glyph name="eCandraMatra-deva" format="2">
  <unicode hex="0945"/>
  <anchor x="273.0" y="1256.3827160493827" name="_candra"/>
  <anchor x="272.0" y="1256.3827160493827" name="_top"/>
  <anchor x="272.0" y="1508.9753086419753" name="candra"/>
  <anchor x="274.0" y="1519.5061728395062" name="top"/>
  <outline>
    <contour>
      <point x="273.12345679012344" y="1393.432098765432" type="curve" smooth="yes"/>
      <point x="416.8024691358025" y="1393.432098765432"/>
      <point x="522.8518518518518" y="1467.1234567901236"/>
      <point x="587.6666666666666" y="1600.2716049382716" type="curve"/>
      <point x="497.2962962962963" y="1653.8395061728395" type="line"/>
      <point x="455.2962962962963" y="1588.1358024691358"/>
      <point x="394.641975308642" y="1520.5555555555557"/>
      <point x="276.0" y="1520.5555555555557" type="curve" smooth="yes"/>
      <point x="162.76543209876544" y="1520.5555555555557"/>
      <point x="98.06172839506173" y="1578.962962962963"/>
      <point x="53.2962962962963" y="1651.1358024691358" type="curve"/>
      <point x="-41.01234567901234" y="1593.6296296296296" type="line"/>
      <point x="6.691358024691361" y="1490.2962962962963"/>
      <point x="106.14814814814815" y="1393.432098765432"/>
    </contour>
  </outline>
</glyph>
<glyph name="eShortMatra-deva" format="2">
  <unicode hex="0946"/>
  <anchor x="258.12345679012344" y="1256.3827160493827" name="_top"/>
  <anchor x="417.0617283950617" y="1482.432098765432" name="candra"/>
  <anchor x="416.5925925925926" y="1485.962962962963" name="top"/>
  <outline>
    <contour>
      <point x="289.641975308642" y="1179.8641975308642" type="line"/>
      <point x="313.69135802469134" y="1243.4938271604938"/>
      <point x="333.037037037037" y="1305.8271604938273"/>
      <point x="333.037037037037" y="1391.358024691358" type="curve" smooth="yes"/>
      <point x="333.037037037037" y="1515.3456790123457"/>
      <point x="276.1604938271605" y="1601.8765432098764"/>
      <point x="126.38271604938271" y="1637.9382716049383" type="curve" smooth="yes"/>
      <point x="75.44444444444444" y="1650.1728395061727" type="line" smooth="yes"/>
      <point x="-56.345679012345684" y="1682.0617283950617"/>
      <point x="-94.17283950617283" y="1718.469135802469"/>
      <point x="-94.17283950617283" y="1761.0123456790122" type="curve" smooth="yes"/>
      <point x="-94.17283950617283" y="1775.3086419753085"/>
      <point x="-92.93827160493828" y="1788.2469135802469"/>
      <point x="-91.17283950617283" y="1800.9506172839506" type="curve"/>
      <point x="-183.01234567901236" y="1813.2962962962963" type="line"/>
      <point x="-199.12345679012347" y="1778.7777777777778"/>
      <point x="-204.35802469135803" y="1749.3703703703704"/>
      <point x="-204.35802469135803" y="1719.6666666666667" type="curve" smooth="yes"/>
      <point x="-204.35802469135803" y="1643.79012345679"/>
      <point x="-137.30864197530863" y="1571.9259259259259"/>
      <point x="24.864197530864196" y="1529.3456790123457" type="curve" smooth="yes"/>
      <point x="93.64197530864197" y="1511.5802469135801" type="line" smooth="yes"/>
      <point x="206.79012345679013" y="1482.7530864197531"/>
      <point x="215.85185185185185" y="1429.79012345679"/>
      <point x="215.85185185185185" y="1305.8395061728395" type="curve" smooth="yes"/>
      <point x="215.85185185185185" y="1272.0123456790122"/>
      <point x="210.08641975308643" y="1237.0740740740741"/>
      <point x="204.320987654321" y="1204.4444444444443" type="curve"/>
    </contour>
  </outline>
</glyph>
<glyph name="eMatra-deva" format="2">
  <unicode hex="0947"/>
  <anchor x="264.12345679012344" y="1256.3827160493827" name="_top"/>
  <anchor x="479.0" y="1357.7283950617284" name="candra"/>
  <anchor x="451.74074074074076" y="1256.3827160493827" name="top"/>
  <outline>
    <contour>
      <point x="223.74074074074073" y="1210.9259259259259" type="line"/>
      <point x="330.9259259259259" y="1254.0864197530864" type="line"/>
      <point x="146.39506172839506" y="1722.7654320987654"/>
      <point x="67.25925925925925" y="1798.679012345679"/>
      <point x="-215.01234567901236" y="1798.679012345679" type="curve" smooth="yes"/>
      <point x="-264.8395061728395" y="1798.679012345679"/>
      <point x="-305.71604938271605" y="1794.679012345679"/>
      <point x="-365.9382716049383" y="1782.2716049382716" type="curve"/>
      <point x="-343.82716049382714" y="1658.79012345679" type="line"/>
      <point x="-305.18518518518516" y="1665.320987654321"/>
      <point x="-261.71604938271605" y="1669.79012345679"/>
      <point x="-199.46913580246914" y="1669.79012345679" type="curve" smooth="yes"/>
      <point x="3.1234567901234573" y="1669.79012345679"/>
      <point x="63.55555555555556" y="1564.4567901234568"/>
      <point x="204.97530864197532" y="1252.1604938271605" type="curve" smooth="yes"/>
    </contour>
  </outline>
</glyph>
<glyph name="aiMatra-deva" format="2">
  <unicode hex="0948"/>
  <anchor x="262.9753086419753" y="1256.3827160493827" name="_top"/>
  <anchor x="453.69135802469134" y="1455.320987654321" name="candra"/>
  <anchor x="335.9382716049383" y="1256.3827160493827" name="top"/>
  <outline>
    <contour>
      <point x="220.1604938271605" y="1210.9753086419753" type="curve"/>
      <point x="295.18518518518516" y="1238.9012345679012" type="line"/>
      <point x="192.12345679012347" y="1705.8271604938273"/>
      <point x="55.45679012345679" y="1818.7037037037037"/>
      <point x="-233.07407407407408" y="1818.7037037037037" type="curve" smooth="yes"/>
      <point x="-311.6296296296296" y="1818.7037037037037"/>
      <point x="-365.6666666666667" y="1808.5925925925926"/>
      <point x="-414.55555555555554" y="1799.358024691358" type="curve"/>
      <point x="-390.2716049382716" y="1684.5185185185185" type="line"/>
      <point x="-332.58024691358025" y="1695.9259259259259"/>
      <point x="-281.41975308641975" y="1703.8024691358025"/>
      <point x="-224.30864197530863" y="1703.8024691358025" type="curve" smooth="yes"/>
      <point x="-43.51851851851852" y="1703.8024691358025"/>
      <point x="79.54320987654322" y="1643.1851851851852"/>
      <point x="192.79012345679013" y="1324.7530864197531" type="curve"/>
      <point x="221.96296296296296" y="1332.5061728395062" type="line"/>
      <point x="78.30864197530865" y="1499.6296296296296"/>
      <point x="13.271604938271606" y="1555.5555555555557"/>
      <point x="-156.2962962962963" y="1557.0864197530864" type="curve" smooth="yes"/>
      <point x="-234.35802469135803" y="1557.851851851852"/>
      <point x="-302.5679012345679" y="1548.6172839506173"/>
      <point x="-367.1975308641975" y="1535.037037037037" type="curve"/>
      <point x="-341.679012345679" y="1429.0740740740741" type="line"/>
      <point x="-273.6296296296296" y="1441.2469135802469"/>
      <point x="-213.69135802469137" y="1447.9506172839506"/>
      <point x="-148.28395061728395" y="1447.9506172839506" type="curve" smooth="yes"/>
      <point x="28.617283950617285" y="1447.9506172839506"/>
      <point x="103.49382716049382" y="1366.716049382716"/>
    </contour>
  </outline>
</glyph>
<glyph name="halant-deva" format="2">
  <unicode hex="094D"/>
  <anchor x="145.08641975308643" y="0.0" name="_bottom"/>
  <anchor x="171.0" y="-324.77777777777777" name="bottom"/>
  <anchor x="149.40740740740742" y="-364.04938271604937" name="nukta"/>
  <outline>
    <contour>
      <point x="558.4814814814815" y="-461.01234567901236" type="curve"/>
      <point x="628.4567901234568" y="-392.8024691358025" type="line"/>
      <point x="373.641975308642" y="-124.06172839506173"/>
      <point x="263.8395061728395" y="-72.90123456790124"/>
      <point x="99.49382716049382" y="-72.90123456790124" type="curve" smooth="yes"/>
      <point x="41.617283950617285" y="-72.90123456790124"/>
      <point x="-0.3209876543209891" y="-78.37037037037037"/>
      <point x="-60.79012345679013" y="-88.4320987654321" type="curve"/>
      <point x="-38.44444444444444" y="-221.25925925925927" type="line"/>
      <point x="22.555555555555554" y="-212.19753086419752"/>
      <point x="61.55555555555556" y="-209.49382716049382"/>
      <point x="115.55555555555556" y="-209.49382716049382" type="curve" smooth="yes"/>
      <point x="247.49382716049382" y="-209.49382716049382"/>
      <point x="322.1975308641975" y="-232.4320987654321"/>
    </contour>
  </outline>
</glyph>
<glyph name="awMatra-deva" format="2">
  <advance width="555.641975308642"/>
  <unicode hex="094F"/>
  <anchor x="277.9382716049383" y="0.0" name="bottom"/>
  <anchor x="186.25925925925927" y="1256.3827160493827" name="candra"/>
  <anchor x="278.4691358024691" y="1256.3827160493827" name="top"/>
  <outline>
    <contour>
      <point x="308.5925925925926" y="1193.9382716049383" type="line"/>
      <point x="355.9753086419753" y="1272.7407407407406"/>
      <point x="374.25925925925924" y="1340.0740740740741"/>
      <point x="374.25925925925924" y="1397.0493827160494" type="curve" smooth="yes"/>
      <point x="374.25925925925924" y="1529.5061728395062"/>
      <point x="276.9753086419753" y="1599.3827160493827"/>
      <point x="96.67901234567901" y="1631.20987654321" type="curve" smooth="yes"/>
      <point x="-92.04938271604938" y="1663.1975308641975" type="line" smooth="yes"/>
      <point x="-237.82716049382717" y="1689.5555555555557"/>
      <point x="-275.95061728395063" y="1721.8641975308642"/>
      <point x="-277.8888888888889" y="1772.2222222222222" type="curve" smooth="yes"/>
      <point x="-278.12345679012344" y="1781.5185185185185"/>
      <point x="-278.12345679012344" y="1791.0493827160494"/>
      <point x="-276.5925925925926" y="1801.5802469135801" type="curve"/>
      <point x="-341.98765432098764" y="1814.5185185185185" type="line"/>
      <point x="-364.2716049382716" y="1787.111111111111"/>
      <point x="-374.44444444444446" y="1757.2345679012346"/>
      <point x="-374.44444444444446" y="1728.5925925925926" type="curve" smooth="yes"/>
      <point x="-374.44444444444446" y="1654.358024691358"/>
      <point x="-310.5061728395062" y="1586.6543209876543"/>
      <point x="-188.62962962962962" y="1564.1234567901236" type="curve" smooth="yes"/>
      <point x="48.54320987654321" y="1521.9506172839506" type="line" smooth="yes"/>
      <point x="201.02469135802468" y="1492.8271604938273"/>
      <point x="274.0617283950617" y="1457.111111111111"/>
      <point x="274.0617283950617" y="1347.79012345679" type="curve" smooth="yes"/>
      <point x="274.0617283950617" y="1319.2716049382716"/>
      <point x="271.2962962962963" y="1279.679012345679"/>
      <point x="250.4814814814815" y="1223.9753086419753" type="curve"/>
    </contour>
    <contour>
      <point x="260.4938271604938" y="1092.9753086419753" type="line"/>
      <point x="273.1358024691358" y="1140.6172839506173"/>
      <point x="282.5432098765432" y="1185.9012345679012"/>
      <point x="282.5432098765432" y="1224.7777777777778" type="curve" smooth="yes"/>
      <point x="282.5432098765432" y="1359.9012345679012"/>
      <point x="209.11111111111111" y="1405.8271604938273"/>
      <point x="22.123456790123456" y="1434.7654320987654" type="curve" smooth="yes"/>
      <point x="-225.25925925925924" y="1473.2222222222222" type="line" smooth="yes"/>
      <point x="-375.85185185185185" y="1495.2222222222222"/>
      <point x="-412.2716049382716" y="1553.0"/>
      <point x="-413.5061728395062" y="1620.7654320987654" type="curve" smooth="yes"/>
      <point x="-413.74074074074076" y="1632.8271604938273"/>
      <point x="-412.9753086419753" y="1644.888888888889"/>
      <point x="-410.679012345679" y="1656.9506172839506" type="curve"/>
      <point x="-484.5432098765432" y="1671.1851851851852" type="line"/>
      <point x="-500.41975308641975" y="1638.5432098765432"/>
      <point x="-507.5925925925926" y="1605.432098765432"/>
      <point x="-507.5925925925926" y="1573.5555555555557" type="curve" smooth="yes"/>
      <point x="-507.5925925925926" y="1472.3827160493827"/>
      <point x="-433.95061728395063" y="1382.7407407407406"/>
      <point x="-269.25925925925924" y="1361.4444444444443" type="curve" smooth="yes"/>
      <point x="18.938271604938272" y="1324.8024691358025" type="line" smooth="yes"/>
      <point x="174.02469135802468" y="1302.148148148148"/>
      <point x="209.679012345679" y="1282.8641975308642"/>
      <point x="209.679012345679" y="1185.5432098765432" type="curve" smooth="yes"/>
      <point x="209.679012345679" y="1164.8395061728395"/>
      <point x="207.97530864197532" y="1138.6666666666667"/>
      <point x="205.74074074074073" y="1110.0864197530864" type="curve"/>
    </contour>
    <component base="aaMatra-deva"/>
  </outline>
</glyph>
<glyph name="oe-deva" format="2">
  <advance width="1389.0493827160494"/>
  <unicode hex="0973"/>
  <anchor x="1105.5185185185185" y="0.0" name="bottom"/>
  <anchor x="915.2098765432099" y="1256.3827160493827" name="candra"/>
  <anchor x="1118.79012345679" y="1256.3827160493827" name="top"/>
  <outline>
    <contour>
      <point x="1033.9012345679012" y="1177.2222222222222" type="line"/>
      <point x="1178.8395061728395" y="1177.2222222222222" type="line"/>
      <point x="1178.8395061728395" y="1493.6296296296296" type="line"/>
      <point x="1033.9012345679012" y="1493.6296296296296" type="line"/>
    </contour>
    <component base="a-deva"/>
  </outline>
</glyph>
<glyph name="ooe-deva" format="2">
  <advance width="1955.8765432098764"/>
  <unicode hex="0974"/>
  <anchor x="1105.5185185185185" y="0.0" name="bottom_1"/>
  <anchor x="1660.6296296296296" y="0.0" name="bottom_2"/>
  <anchor x="915.2098765432099" y="1256.3827160493827" name="candra_1"/>
  <anchor x="1568.9506172839506" y="1256.3827160493827" name="candra_2"/>
  <anchor x="1118.79012345679" y="1256.3827160493827" name="top_1"/>
  <anchor x="1661.1604938271605" y="1256.3827160493827" name="top_2"/>
  <outline>
    <contour>
      <point x="1590.3086419753085" y="1172.530864197531" type="line"/>
      <point x="1735.2469135802469" y="1172.530864197531" type="line"/>
      <point x="1735.2469135802469" y="1493.6296296296296" type="line"/>
      <point x="1590.3086419753085" y="1493.6296296296296" type="line"/>
    </contour>
    <component base="aa-deva"/>
  </outline>
</glyph>
<glyph name="aw-deva" format="2">
  <advance width="1938.3333333333333"/>
  <unicode hex="0975"/>
  <anchor x="1105.5185185185185" y="0.0" name="bottom_1"/>
  <anchor x="1660.6296296296296" y="0.0" name="bottom_2"/>
  <anchor x="915.2098765432099" y="1256.3827160493827" name="candra_1"/>
  <anchor x="1568.9506172839506" y="1256.3827160493827" name="candra_2"/>
  <anchor x="1118.79012345679" y="1256.3827160493827" name="top_1"/>
  <anchor x="1661.1604938271605" y="1256.3827160493827" name="top_2"/>
  <outline>
    <contour>
      <point x="1709.8024691358025" y="1208.0123456790122" type="line"/>
      <point x="1757.1851851851852" y="1286.8148148148148"/>
      <point x="1775.469135802469" y="1354.148148148148"/>
      <point x="1775.469135802469" y="1411.1234567901236" type="curve" smooth="yes"/>
      <point x="1775.469135802469" y="1538.9876543209875"/>
      <point x="1680.4814814814815" y="1608.8641975308642"/>
      <point x="1499.9506172839506" y="1639.1604938271605" type="curve" smooth="yes"/>
      <point x="1292.320987654321" y="1673.4444444444443" type="line" smooth="yes"/>
      <point x="1163.3827160493827" y="1695.9753086419753"/>
      <point x="1126.2592592592594" y="1729.8148148148148"/>
      <point x="1123.320987654321" y="1780.1728395061727" type="curve" smooth="yes"/>
      <point x="1123.0864197530864" y="1789.469135802469"/>
      <point x="1123.851851851852" y="1799.0"/>
      <point x="1125.3827160493827" y="1809.530864197531" type="curve"/>
      <point x="1059.2222222222222" y="1822.469135802469" type="line"/>
      <point x="1036.9382716049383" y="1795.0617283950617"/>
      <point x="1026.7654320987654" y="1765.1851851851852"/>
      <point x="1026.7654320987654" y="1736.5432098765432" type="curve" smooth="yes"/>
      <point x="1026.7654320987654" y="1662.3086419753085"/>
      <point x="1090.7037037037037" y="1592.6049382716049"/>
      <point x="1212.5802469135801" y="1572.0740740740741" type="curve" smooth="yes"/>
      <point x="1450.5185185185185" y="1531.432098765432" type="line" smooth="yes"/>
      <point x="1602.2345679012346" y="1505.0740740740741"/>
      <point x="1675.2716049382716" y="1466.5925925925926"/>
      <point x="1675.2716049382716" y="1361.8641975308642" type="curve" smooth="yes"/>
      <point x="1675.2716049382716" y="1333.3456790123457"/>
      <point x="1672.5061728395062" y="1293.7530864197531"/>
      <point x="1651.6913580246915" y="1238.0493827160494" type="curve"/>
    </contour>
    <contour>
      <point x="1661.469135802469" y="1097.6666666666667" type="line"/>
      <point x="1674.8765432098764" y="1145.3086419753085"/>
      <point x="1684.283950617284" y="1190.5925925925926"/>
      <point x="1684.283950617284" y="1229.469135802469" type="curve" smooth="yes"/>
      <point x="1684.283950617284" y="1364.5925925925926"/>
      <point x="1610.851851851852" y="1410.7530864197531"/>
      <point x="1423.8641975308642" y="1439.4567901234568" type="curve" smooth="yes"/>
      <point x="1176.4814814814815" y="1477.9135802469136" type="line" smooth="yes"/>
      <point x="1025.1234567901236" y="1500.148148148148"/>
      <point x="988.2345679012345" y="1557.6913580246915"/>
      <point x="988.2345679012345" y="1625.4567901234568" type="curve" smooth="yes"/>
      <point x="987.4691358024692" y="1637.5185185185185"/>
      <point x="988.7654320987655" y="1649.5802469135801"/>
      <point x="991.0617283950618" y="1661.641975308642" type="curve"/>
      <point x="917.1975308641976" y="1675.8765432098764" type="line"/>
      <point x="901.320987654321" y="1643.2345679012346"/>
      <point x="894.1481481481482" y="1610.1234567901236"/>
      <point x="894.1481481481482" y="1578.2469135802469" type="curve" smooth="yes"/>
      <point x="894.1481481481482" y="1477.0740740740741"/>
      <point x="967.0246913580247" y="1387.432098765432"/>
      <point x="1132.4814814814815" y="1366.1358024691358" type="curve" smooth="yes"/>
      <point x="1420.679012345679" y="1329.4938271604938" type="line" smooth="yes"/>
      <point x="1575.7654320987654" y="1307.0740740740741"/>
      <point x="1611.4197530864199" y="1287.5555555555557"/>
      <point x="1611.4197530864199" y="1190.2345679012346" type="curve" smooth="yes"/>
      <point x="1611.4197530864199" y="1169.530864197531"/>
      <point x="1609.716049382716" y="1143.358024691358"/>
      <point x="1607.4814814814815" y="1114.7777777777778" type="curve"/>
    </contour>
    <component base="aa-deva"/>
  </outline>
</glyph>
<glyph name="ue-deva" format="2">
  <advance width="1389.0493827160494"/>
  <unicode hex="0976"/>
  <anchor x="1105.5185185185185" y="0.0" name="bottom"/>
  <anchor x="915.2098765432099" y="1256.3827160493827" name="candra"/>
  <anchor x="1118.79012345679" y="1256.3827160493827" name="top"/>
  <outline>
    <contour>
      <point x="625.9753086419753" y="-269.037037037037" type="curve" smooth="yes"/>
      <point x="779.6543209876543" y="-269.037037037037"/>
      <point x="886.4691358024692" y="-194.58024691358025"/>
      <point x="950.5185185185185" y="-61.432098765432094" type="curve"/>
      <point x="859.9135802469136" y="-7.864197530864197" type="line"/>
      <point x="817.9135802469136" y="-74.33333333333333"/>
      <point x="749.2098765432099" y="-141.3827160493827"/>
      <point x="618.8641975308642" y="-141.3827160493827" type="curve" smooth="yes"/>
      <point x="484.22222222222223" y="-141.3827160493827"/>
      <point x="419.51851851851853" y="-83.50617283950618"/>
      <point x="374.75308641975306" y="-10.5679012345679" type="curve"/>
      <point x="297.962962962963" y="-65.37037037037037" type="line"/>
      <point x="345.6666666666667" y="-168.7037037037037"/>
      <point x="449.7654320987654" y="-269.037037037037"/>
    </contour>
    <component base="a-deva"/>
  </outline>
</glyph>
<glyph name="uue-deva" format="2">
  <advance width="1389.0493827160494"/>
  <unicode hex="0977"/>
  <anchor x="1105.5185185185185" y="0.0" name="bottom"/>
  <anchor x="915.2098765432099" y="1256.3827160493827" name="candra"/>
  <anchor x="1118.79012345679" y="1256.3827160493827" name="top"/>
  <outline>
    <contour>
      <point x="608.320987654321" y="-228.41975308641975" type="curve" smooth="yes"/>
      <point x="772.0" y="-228.41975308641975"/>
      <point x="878.8148148148148" y="-153.96296296296296"/>
      <point x="942.8641975308642" y="-20.81481481481481" type="curve"/>
      <point x="852.2592592592592" y="32.75308641975309" type="line"/>
      <point x="810.2592592592592" y="-33.71604938271605"/>
      <point x="741.5555555555555" y="-100.76543209876543"/>
      <point x="601.2098765432099" y="-100.76543209876543" type="curve" smooth="yes"/>
      <point x="456.5679012345679" y="-100.76543209876543"/>
      <point x="391.8641975308642" y="-42.888888888888886"/>
      <point x="347.0987654320988" y="30.049382716049386" type="curve"/>
      <point x="270.30864197530866" y="-24.75308641975308" type="line"/>
      <point x="318.01234567901236" y="-128.0864197530864"/>
      <point x="422.1111111111111" y="-228.41975308641975"/>
    </contour>
    <contour>
      <point x="615.9012345679013" y="-503.9012345679012" type="curve" smooth="yes"/>
      <point x="779.5802469135803" y="-503.9012345679012"/>
      <point x="886.395061728395" y="-429.44444444444446"/>
      <point x="950.4444444444445" y="-296.2962962962963" type="curve"/>
      <point x="859.8395061728395" y="-242.72839506172838" type="line"/>
      <point x="817.8395061728395" y="-309.1975308641975"/>
      <point x="749.1358024691358" y="-376.01234567901236"/>
      <point x="608.7901234567901" y="-376.01234567901236" type="curve" smooth="yes"/>
      <point x="464.14814814814815" y="-376.01234567901236"/>
      <point x="399.44444444444446" y="-318.1358024691358"/>
      <point x="354.679012345679" y="-245.4320987654321" type="curve"/>
      <point x="277.8888888888889" y="-300.2345679012346" type="line"/>
      <point x="325.5925925925926" y="-403.3333333333333"/>
      <point x="429.69135802469134" y="-503.9012345679012"/>
    </contour>
    <component base="a-deva"/>
  </outline>
</glyph>
<glyph name="gga-deva" format="2">
  <advance width="1139.111111111111"/>
  <unicode hex="097B"/>
  <anchor x="861.1728395061729" y="0.0" name="bottom"/>
  <anchor x="788.2592592592592" y="1256.3827160493827" name="candra"/>
  <anchor x="311.58024691358025" y="134.09876543209876" name="nukta"/>
  <anchor x="861.9382716049382" y="1256.3827160493827" name="top"/>
  <outline>
    <contour>
      <point x="84.37037037037037" y="-62.32098765432099" type="line"/>
      <point x="934.0246913580247" y="-62.32098765432099" type="line"/>
      <point x="934.0246913580247" y="55.629629629629626" type="line"/>
      <point x="84.37037037037037" y="55.629629629629626" type="line"/>
    </contour>
    <component base="ga-deva"/>
  </outline>
</glyph>
<glyph name="jja-deva" format="2">
  <advance width="1418.9382716049383"/>
  <unicode hex="097C"/>
  <anchor x="1143.9382716049383" y="0.0" name="bottom"/>
  <anchor x="1027.0" y="1256.3827160493827" name="candra"/>
  <anchor x="139.12345679012347" y="74.69135802469135" name="nukta"/>
  <anchor x="1144.7654320987654" y="1256.3827160493827" name="top"/>
  <outline>
    <contour>
      <point x="121.74074074074073" y="-62.32098765432099" type="line"/>
      <point x="1214.0864197530864" y="-62.32098765432099" type="line"/>
      <point x="1214.0864197530864" y="54.864197530864196" type="line"/>
      <point x="121.74074074074073" y="54.864197530864196" type="line"/>
    </contour>
    <component base="ja-deva"/>
  </outline>
</glyph>
<glyph name="ddda-deva" format="2">
  <advance width="1002.4197530864197"/>
  <unicode hex="097E"/>
  <anchor x="525.5555555555555" y="-83.93827160493827" name="bottom"/>
  <anchor x="663.358024691358" y="1256.3827160493827" name="candra"/>
  <anchor x="527.4320987654321" y="-222.62962962962962" name="nukta"/>
  <anchor x="735.2716049382716" y="1256.3827160493827" name="top"/>
  <outline>
    <contour>
      <point x="102.35802469135803" y="-280.0617283950617" type="line"/>
      <point x="920.1234567901234" y="-280.0617283950617" type="line"/>
      <point x="920.1234567901234" y="-162.87654320987653" type="line"/>
      <point x="102.35802469135803" y="-162.87654320987653" type="line"/>
    </contour>
    <component base="dda-deva"/>
  </outline>
</glyph>
<glyph name="bba-deva" format="2">
  <advance width="1107.6913580246915"/>
  <unicode hex="097F"/>
  <anchor x="829.9876543209876" y="0.0" name="bottom"/>
  <anchor x="735.4938271604939" y="1256.3827160493827" name="candra"/>
  <anchor x="217.27160493827162" y="43.2962962962963" name="nukta"/>
  <anchor x="829.9876543209876" y="1256.3827160493827" name="top"/>
  <outline>
    <contour>
      <point x="84.60493827160494" y="-62.32098765432099" type="line"/>
      <point x="902.8395061728395" y="-62.32098765432099" type="line"/>
      <point x="902.8395061728395" y="55.629629629629626" type="line"/>
      <point x="84.60493827160494" y="55.629629629629626" type="line"/>
    </contour>
    <component base="ba-deva"/>
  </outline>
</glyph>
<glyph name="horizontalbar" format="2">
  <advance width="1638.0"/>
  <unicode hex="2015"/>
  <outline>
    <contour>
      <point x="83.70370370370371" y="459.30864197530866" type="line"/>
      <point x="1554.2962962962963" y="459.30864197530866" type="line"/>
      <point x="1554.2962962962963" y="569.0987654320987" type="line"/>
      <point x="83.70370370370371" y="569.0987654320987" type="line"/>
    </contour>
  </outline>
</glyph>
<glyph name="minute" format="2">
  <advance width="500.2469135802469"/>
  <unicode hex="2032"/>
  <outline>
    <contour>
      <point x="166.53086419753086" y="904.3086419753087" type="line"/>
      <point x="267.96296296296293" y="904.3086419753087" type="line"/>
      <point x="335.95061728395063" y="1218.2222222222222" type="line"/>
      <point x="366.7654320987654" y="1413.8271604938273" type="line"/>
      <point x="213.2962962962963" y="1413.8271604938273" type="line"/>
    </contour>
  </outline>
</glyph>
<glyph name="guilsinglleft" format="2">
  <advance width="551.0987654320987"/>
  <unicode hex="2039"/>
  <outline>
    <contour>
      <point x="370.7037037037037" y="136.9506172839506" type="line"/>
      <point x="440.0987654320988" y="191.87654320987653" type="line"/>
      <point x="197.44444444444446" y="516.0" type="line"/>
      <point x="440.0987654320988" y="836.8271604938271" type="line"/>
      <point x="370.7037037037037" y="895.0493827160494" type="line"/>
      <point x="91.17283950617283" y="576.0987654320987" type="line"/>
      <point x="91.17283950617283" y="456.9012345679012" type="line"/>
    </contour>
  </outline>
</glyph>
<glyph name="arrowleft" format="2">
  <advance width="1268.2962962962963"/>
  <unicode hex="2190"/>
  <outline>
    <contour>
      <point x="622.9506172839506" y="-26.876543209876544" type="line"/>
      <point x="704.395061728395" y="62.20987654320987" type="line"/>
      <point x="283.58024691358025" y="455.08641975308643" type="line"/>
      <point x="1196.2469135802469" y="455.08641975308643" type="line"/>
      <point x="1196.2469135802469" y="585.3333333333334" type="line"/>
      <point x="283.58024691358025" y="585.3333333333334" type="line"/>
      <point x="704.395061728395" y="978.2098765432099" type="line"/>
      <point x="622.9506172839506" y="1068.0617283950617" type="line"/>
      <point x="66.8395061728395" y="524.5925925925926" type="line"/>
      <point x="66.8395061728395" y="516.5925925925926" type="line"/>
    </contour>
  </outline>
</glyph>
<glyph name="arrowup" format="2">
  <advance width="1268.2962962962963"/>
  <unicode hex="2191"/>
  <outline>
    <contour>
      <point x="568.4938271604939" y="-50.46913580246913" type="line"/>
      <point x="698.0370370370371" y="-50.46913580246913" type="line"/>
      <point x="698.0370370370371" y="863.604938271605" type="line"/>
      <point x="1091.3827160493827" y="441.85185185185185" type="line"/>
      <point x="1181.469135802469" y="522.8271604938271" type="line"/>
      <point x="637.5308641975308" y="1078.7037037037037" type="line"/>
      <point x="629.5308641975308" y="1078.7037037037037" type="line"/>
      <point x="86.29629629629629" y="522.8271604938271" type="line"/>
      <point x="174.91358024691357" y="441.85185185185185" type="line"/>
      <point x="568.4938271604939" y="863.604938271605" type="line"/>
    </contour>
  </outline>
</glyph>
<glyph name="arrowright" format="2">
  <advance width="1268.2962962962963"/>
  <unicode hex="2192"/>
  <outline>
    <contour>
      <point x="647.1728395061729" y="-26.876543209876544" type="line"/>
      <point x="1203.283950617284" y="516.5925925925926" type="line"/>
      <point x="1203.283950617284" y="524.5925925925926" type="line"/>
      <point x="647.1728395061729" y="1068.0617283950617" type="line"/>
      <point x="565.4938271604939" y="978.2098765432099" type="line"/>
      <point x="986.3086419753087" y="585.3333333333334" type="line"/>
      <point x="74.11111111111111" y="585.3333333333334" type="line"/>
      <point x="74.11111111111111" y="455.08641975308643" type="line"/>
      <point x="986.3086419753087" y="455.08641975308643" type="line"/>
      <point x="565.4938271604939" y="62.20987654320987" type="line"/>
    </contour>
  </outline>
</glyph>
<glyph name="product" format="2">
  <advance width="1371.0246913580247"/>
  <unicode hex="220F"/>
  <outline>
    <contour>
      <point x="184.1851851851852" y="-246.0" type="line"/>
      <point x="341.41975308641975" y="-246.0" type="line"/>
      <point x="341.41975308641975" y="1168.641975308642" type="line"/>
      <point x="1027.0740740740741" y="1168.641975308642" type="line"/>
      <point x="1027.0740740740741" y="-246.0" type="line"/>
      <point x="1188.6049382716049" y="-246.0" type="line"/>
      <point x="1188.6049382716049" y="1307.0617283950617" type="line"/>
      <point x="184.1851851851852" y="1307.0617283950617" type="line"/>
    </contour>
  </outline>
</glyph>
<glyph name="acutecomb.cap" format="2">
  <anchor x="83.55555555555556" y="1344.5925925925926" name="_top"/>
  <anchor x="191.09259259259258" y="1674.1728395061727" name="top"/>
  <outline>
    <contour>
      <point x="10.0" y="1476.8271604938273" type="line"/>
      <point x="141.54320987654322" y="1476.8271604938273" type="line"/>
      <point x="372.18518518518516" y="1704.1728395061727" type="line"/>
      <point x="191.88888888888889" y="1704.1728395061727" type="line"/>
    </contour>
  </outline>
</glyph>
<glyph name="aiMatra_reph_anusvara-deva" format="2">
  <advance width="540.0"/>
  <outline>
    <contour>
      <point x="454.95061728395063" y="1353.2222222222222" type="curve" smooth="yes"/>
      <point x="513.8888888888889" y="1353.2222222222222"/>
      <point x="538.5925925925926" y="1377.6913580246915"/>
      <point x="538.5925925925926" y="1435.6296296296296" type="curve" smooth="yes"/>
      <point x="538.5925925925926" y="1493.8024691358025"/>
      <point x="513.8888888888889" y="1518.2716049382716"/>
      <point x="454.95061728395063" y="1518.2716049382716" type="curve" smooth="yes"/>
      <point x="396.77777777777777" y="1518.2716049382716"/>
      <point x="371.30864197530866" y="1493.8024691358025"/>
      <point x="371.30864197530866" y="1435.6296296296296" type="curve" smooth="yes"/>
      <point x="371.30864197530866" y="1377.6913580246915"/>
      <point x="396.77777777777777" y="1353.2222222222222"/>
    </contour>
    <component base="aiMatra_reph-deva"/>
  </outline>
</glyph>
<glyph name="anusvara-deva.001" format="2">
  <anchor x="167.62962962962962" y="1256.3827160493827" name="_candra"/>
  <outline>
    <contour>
      <point x="348.98765432098764" y="1489.1234567901236" type="curve" smooth="yes"/>
      <point x="412.61728395061726" y="1489.1234567901236"/>
      <point x="439.1975308641975" y="1515.469135802469"/>
      <point x="439.1975308641975" y="1578.0987654320988" type="curve" smooth="yes"/>
      <point x="439.1975308641975" y="1640.962962962963"/>
      <point x="412.61728395061726" y="1667.3086419753085"/>
      <point x="348.98765432098764" y="1667.3086419753085" type="curve" smooth="yes"/>
      <point x="286.12345679012344" y="1667.3086419753085"/>
      <point x="258.77777777777777" y="1640.962962962963"/>
      <point x="258.77777777777777" y="1578.0987654320988" type="curve" smooth="yes"/>
      <point x="258.77777777777777" y="1515.469135802469"/>
      <point x="286.12345679012344" y="1489.1234567901236"/>
    </contour>
  </outline>
</glyph>
<glyph name="b_j_ya-deva" format="2">
  <advance width="2701.296296296296"/>
  <anchor x="2424.1234567901233" y="0.0" name="bottom"/>
  <anchor x="2327.8024691358023" y="1256.3827160493827" name="candra"/>
  <anchor x="1752.432098765432" y="56.96296296296296" name="nukta"/>
  <anchor x="2424.1234567901233" y="1256.3827160493827" name="top"/>
  <outline>
    <contour>
      <point x="1213.3827160493827" y="899.8148148148148" type="line"/>
      <point x="1165.8765432098764" y="797.6296296296297" type="line"/>
      <point x="1290.0617283950617" y="736.4444444444445"/>
      <point x="1361.7407407407406" y="655.7901234567901"/>
      <point x="1361.7407407407406" y="530.395061728395" type="curve" smooth="yes"/>
      <point x="1361.7407407407406" y="418.96296296296293"/>
      <point x="1297.432098765432" y="346.82716049382714"/>
      <point x="1171.0493827160494" y="345.5925925925926" type="curve" smooth="yes"/>
      <point x="916.0864197530864" y="343.65432098765433"/>
      <point x="857.4691358024692" y="662.3333333333334"/>
      <point x="832.9382716049382" y="884.5061728395061" type="curve"/>
      <point x="710.9876543209876" y="868.1604938271605" type="line"/>
      <point x="736.641975308642" y="484.1111111111111"/>
      <point x="861.5308641975308" y="206.4814814814815"/>
      <point x="1177.0987654320988" y="206.4814814814815" type="curve" smooth="yes"/>
      <point x="1381.6296296296296" y="206.4814814814815"/>
      <point x="1508.851851851852" y="325.30864197530866"/>
      <point x="1508.851851851852" y="506.01234567901236" type="curve" smooth="yes"/>
      <point x="1508.851851851852" y="658.2592592592592"/>
      <point x="1434.1358024691358" y="745.395061728395"/>
      <point x="1295.4938271604938" y="818.6296296296297" type="curve"/>
    </contour>
    <contour>
      <point x="1606.1604938271605" y="1256.3827160493827" type="line"/>
      <point x="-13.641975308641975" y="1256.3827160493827" type="line"/>
      <point x="-13.641975308641975" y="1133.851851851852" type="line"/>
      <point x="1606.1604938271605" y="1133.851851851852" type="line"/>
    </contour>
    <contour>
      <point x="1900.530864197531" y="899.8148148148148" type="line"/>
      <point x="1213.3827160493827" y="899.8148148148148" type="line"/>
      <point x="1273.2469135802469" y="776.6913580246913" type="line"/>
      <point x="1900.530864197531" y="776.6913580246913" type="line"/>
    </contour>
    <contour>
      <point x="482.8395061728395" y="938.4567901234568" type="curve" smooth="yes"/>
      <point x="317.9753086419753" y="938.4567901234568"/>
      <point x="85.09876543209877" y="895.6296296296297"/>
      <point x="85.09876543209877" y="565.5308641975308" type="curve" smooth="yes"/>
      <point x="85.09876543209877" y="363.8641975308642"/>
      <point x="180.53086419753086" y="200.85185185185185"/>
      <point x="424.1358024691358" y="200.85185185185185" type="curve" smooth="yes"/>
      <point x="564.5061728395061" y="200.85185185185185"/>
      <point x="720.5061728395061" y="257.2345679012346"/>
      <point x="832.283950617284" y="420.91358024691357" type="curve"/>
      <point x="804.716049382716" y="574.8641975308642" type="line"/>
      <point x="710.4691358024692" y="417.38271604938274"/>
      <point x="601.641975308642" y="320.5061728395062"/>
      <point x="443.17283950617286" y="320.5061728395062" type="curve" smooth="yes"/>
      <point x="299.39506172839504" y="320.5061728395062"/>
      <point x="231.679012345679" y="391.641975308642"/>
      <point x="231.679012345679" y="560.4197530864197" type="curve" smooth="yes"/>
      <point x="231.679012345679" y="790.8395061728395"/>
      <point x="352.46913580246917" y="817.0987654320987"/>
      <point x="482.71604938271605" y="817.0987654320987" type="curve" smooth="yes"/>
      <point x="543.2962962962963" y="817.0987654320987"/>
      <point x="580.0" y="813.8024691358024"/>
      <point x="619.641975308642" y="799.3333333333334" type="curve"/>
      <point x="650.9876543209876" y="910.0493827160494" type="line"/>
      <point x="597.0493827160494" y="931.2222222222222"/>
      <point x="546.4320987654321" y="938.4567901234568"/>
    </contour>
    <contour>
      <point x="303.679012345679" y="862.7777777777778" type="line"/>
      <point x="229.12345679012347" y="783.925925925926" type="line"/>
      <point x="698.7283950617284" y="308.7283950617284" type="line"/>
      <point x="772.5185185185185" y="386.81481481481484" type="line"/>
    </contour>
    <component base="ya-deva" xOffset="1556.432098765432"/>
  </outline>
</glyph>
<glyph name="b_ra-deva" format="2">
  <advance width="618.4320987654321"/>
  <outline>
    <contour>
      <point x="246.41975308641975" y="-57.07407407407407" type="line"/>
      <point x="796.8518518518518" y="350.48148148148147" type="line"/>
      <point x="754.2962962962963" y="427.44444444444446" type="line"/>
      <point x="163.8641975308642" y="51.06172839506173" type="line"/>
    </contour>
    <component base="b-deva"/>
  </outline>
</glyph>
<glyph name="bh_la-deva.loclMAR" format="2">
  <advance width="1232.3086419753085"/>
  <anchor x="902.1604938271605" y="-486.65432098765433" name="bottom"/>
  <anchor x="647.2962962962963" y="1257.148148148148" name="candra"/>
  <anchor x="949.9629629629629" y="1287.7654320987654" name="top"/>
  <outline>
    <contour>
      <point x="303.7654320987654" y="576.4691358024692" type="line"/>
      <point x="449.4691358024691" y="576.4691358024692" type="line"/>
      <point x="449.4691358024691" y="1035.8271604938273" type="line" smooth="yes"/>
      <point x="449.4691358024691" y="1149.6296296296296"/>
      <point x="430.7654320987654" y="1277.9135802469136"/>
      <point x="229.49382716049382" y="1277.9135802469136" type="curve" smooth="yes"/>
      <point x="168.08641975308643" y="1277.9135802469136"/>
      <point x="118.79012345679013" y="1267.6172839506173"/>
      <point x="78.9753086419753" y="1251.9135802469136" type="curve"/>
      <point x="100.67901234567901" y="1132.5555555555557" type="line"/>
      <point x="127.79012345679013" y="1139.5555555555557"/>
      <point x="166.14814814814815" y="1148.6172839506173"/>
      <point x="205.8641975308642" y="1148.6172839506173" type="curve" smooth="yes"/>
      <point x="271.4691358024691" y="1148.851851851852"/>
      <point x="303.7654320987654" y="1124.2592592592594"/>
      <point x="303.7654320987654" y="1039.5925925925926" type="curve" smooth="yes"/>
    </contour>
    <contour>
      <point x="326.39506172839504" y="330.24691358024694" type="line"/>
      <point x="427.8888888888889" y="332.77777777777777"/>
      <point x="448.4691358024691" y="386.0"/>
      <point x="448.4691358024691" y="449.39506172839504" type="curve" smooth="yes"/>
      <point x="448.4691358024691" y="647.3703703703703" type="line"/>
      <point x="325.3333333333333" y="647.3703703703703" type="line"/>
      <point x="152.87654320987653" y="626.6666666666666" type="line"/>
      <point x="152.87654320987653" y="523.2345679012345" type="line"/>
    </contour>
    <contour>
      <point x="309.5308641975309" y="510.71604938271605" type="line"/>
      <point x="988.9382716049382" y="510.71604938271605" type="line"/>
      <point x="988.9382716049382" y="640.074074074074" type="line"/>
      <point x="309.5308641975309" y="640.074074074074" type="line"/>
    </contour>
    <contour>
      <point x="878.1111111111111" y="63.81481481481482" type="line"/>
      <point x="1023.8148148148148" y="63.81481481481482" type="line"/>
      <point x="1023.8148148148148" y="1200.6913580246915" type="line"/>
      <point x="878.1111111111111" y="1200.6913580246915" type="line"/>
    </contour>
    <contour>
      <point x="689.0370370370371" y="1133.851851851852" type="line"/>
      <point x="1246.9506172839506" y="1133.851851851852" type="line"/>
      <point x="1246.9506172839506" y="1256.3827160493827" type="line"/>
      <point x="689.0370370370371" y="1256.3827160493827" type="line"/>
    </contour>
    <component base="add" xOffset="89.30864197530865"/>
  </outline>
</glyph>
<glyph name="bh_r_ya-deva" format="2">
  <advance width="1942.8395061728395"/>
  <anchor x="1668.6666666666667" y="18.382716049382715" name="bottom"/>
  <anchor x="1385.962962962963" y="1257.148148148148" name="candra"/>
  <anchor x="1099.6543209876543" y="48.22222222222222" name="nukta"/>
  <anchor x="1668.6666666666667" y="1287.7654320987654" name="top"/>
  <outline>
    <contour>
      <point x="415.2716049382716" y="-52.641975308641975" type="line"/>
      <point x="1025.4197530864199" y="442.0246913580247" type="line"/>
      <point x="956.0123456790124" y="535.8888888888889" type="line"/>
      <point x="326.01234567901236" y="53.4320987654321" type="line"/>
    </contour>
    <contour>
      <point x="323.58024691358025" y="304.30864197530866" type="line"/>
      <point x="425.0740740740741" y="306.60493827160496"/>
      <point x="445.65432098765433" y="360.0617283950617"/>
      <point x="445.65432098765433" y="423.22222222222223" type="curve" smooth="yes"/>
      <point x="445.65432098765433" y="621.1975308641976" type="line"/>
      <point x="322.51851851851853" y="621.1975308641976" type="line"/>
      <point x="150.06172839506172" y="600.7283950617284" type="line"/>
      <point x="150.06172839506172" y="497.2962962962963" type="line"/>
    </contour>
    <contour>
      <point x="300.95061728395063" y="550.2962962962963" type="line"/>
      <point x="446.65432098765433" y="550.2962962962963" type="line"/>
      <point x="446.65432098765433" y="1035.8271604938273" type="line" smooth="yes"/>
      <point x="446.65432098765433" y="1149.6296296296296"/>
      <point x="427.95061728395063" y="1277.9135802469136"/>
      <point x="226.679012345679" y="1277.9135802469136" type="curve" smooth="yes"/>
      <point x="165.2716049382716" y="1277.9135802469136"/>
      <point x="115.9753086419753" y="1267.6172839506173"/>
      <point x="76.1604938271605" y="1251.9135802469136" type="curve"/>
      <point x="97.8641975308642" y="1132.5555555555557" type="line"/>
      <point x="124.9753086419753" y="1139.5555555555557"/>
      <point x="163.33333333333334" y="1148.6172839506173"/>
      <point x="203.0493827160494" y="1148.6172839506173" type="curve" smooth="yes"/>
      <point x="268.65432098765433" y="1148.851851851852"/>
      <point x="300.95061728395063" y="1124.2592592592594"/>
      <point x="300.95061728395063" y="1039.5925925925926" type="curve" smooth="yes"/>
    </contour>
    <contour>
      <point x="306.71604938271605" y="484.77777777777777" type="line"/>
      <point x="986.1234567901234" y="484.77777777777777" type="line"/>
      <point x="986.1234567901234" y="614.1358024691358" type="line"/>
      <point x="306.71604938271605" y="614.1358024691358" type="line"/>
    </contour>
    <contour>
      <point x="686.2222222222222" y="1133.851851851852" type="line"/>
      <point x="839.7283950617284" y="1133.851851851852" type="line"/>
      <point x="839.7283950617284" y="1256.3827160493827" type="line"/>
      <point x="686.2222222222222" y="1256.3827160493827" type="line"/>
    </contour>
    <component base="ya-deva" xOffset="797.9753086419753"/>
  </outline>
</glyph>
<glyph name="bha_ra-deva" format="2">
  <advance width="1207.0246913580247"/>
  <anchor x="934.2592592592592" y="27.765432098765434" name="bottom"/>
  <anchor x="642.4567901234568" y="1257.148148148148" name="candra"/>
  <anchor x="932.7283950617284" y="1287.7654320987654" name="top"/>
  <anchor x="366.7037037037037" y="52.91358024691358" name="nukta"/>
  <outline>
    <contour>
      <point x="361.7901234567901" y="-40.91358024691358" type="line"/>
      <point x="978.9753086419753" y="442.0246913580247" type="line"/>
      <point x="918.9506172839506" y="535.8888888888889" type="line"/>
      <point x="272.5308641975309" y="65.1604938271605" type="line"/>
    </contour>
    <component base="bha-deva" xOffset="-14.54320987654321"/>
  </outline>
</glyph>
<glyph name="brevecomb_acutecomb.cap" format="2">
  <anchor x="256.4567901234568" y="1344.5925925925926" name="_top"/>
  <anchor x="256.4567901234568" y="1854.6296296296296" name="top"/>
  <outline>
    <contour>
      <point x="256.4567901234568" y="1450.358024691358" type="curve" smooth="yes"/>
      <point x="412.2716049382716" y="1450.358024691358"/>
      <point x="489.679012345679" y="1557.9506172839506"/>
      <point x="502.91358024691357" y="1667.8765432098764" type="curve"/>
      <point x="416.1111111111111" y="1667.8765432098764" type="line"/>
      <point x="399.87654320987656" y="1597.5802469135801"/>
      <point x="355.28395061728395" y="1535.6913580246915"/>
      <point x="256.4567901234568" y="1535.6913580246915" type="curve" smooth="yes"/>
      <point x="157.62962962962962" y="1535.6913580246915"/>
      <point x="113.03703703703704" y="1597.5802469135801"/>
      <point x="96.80246913580247" y="1667.8765432098764" type="curve"/>
      <point x="10.0" y="1667.8765432098764" type="line"/>
      <point x="23.234567901234566" y="1557.9506172839506"/>
      <point x="100.64197530864197" y="1450.358024691358"/>
    </contour>
    <contour>
      <point x="177.58024691358025" y="1641.641975308642" type="line"/>
      <point x="272.32098765432096" y="1641.641975308642" type="line"/>
      <point x="470.4938271604938" y="1854.6296296296296" type="line"/>
      <point x="330.7654320987654" y="1854.6296296296296" type="line"/>
    </contour>
  </outline>
</glyph>
<glyph name="brevecomb_acutecomb" format="2">
  <anchor x="265.75308641975306" y="993.0493827160494" name="_top"/>
  <anchor x="265.75308641975306" y="1612.0987654320988" name="top"/>
  <outline>
    <contour>
      <point x="206.4814814814815" y="1382.6913580246915" type="line"/>
      <point x="300.98765432098764" y="1382.6913580246915" type="line"/>
      <point x="465.14814814814815" y="1612.0987654320988" type="line"/>
      <point x="332.12345679012344" y="1612.0987654320988" type="line"/>
    </contour>
    <contour>
      <point x="271.87654320987656" y="1163.8395061728395" type="curve" smooth="yes"/>
      <point x="446.75308641975306" y="1163.8395061728395"/>
      <point x="516.0370370370371" y="1286.530864197531"/>
      <point x="525.3333333333334" y="1381.5555555555557" type="curve"/>
      <point x="439.4691358024691" y="1381.5555555555557" type="line"/>
      <point x="426.5308641975309" y="1326.7530864197531"/>
      <point x="375.0" y="1252.283950617284"/>
      <point x="271.87654320987656" y="1252.283950617284" type="curve" smooth="yes"/>
      <point x="168.28395061728395" y="1252.283950617284"/>
      <point x="116.28395061728395" y="1325.8148148148148"/>
      <point x="104.28395061728395" y="1381.5555555555557" type="curve"/>
      <point x="18.419753086419753" y="1381.5555555555557" type="line"/>
      <point x="27.71604938271605" y="1286.530864197531"/>
      <point x="97.0" y="1163.8395061728395"/>
    </contour>
  </outline>
</glyph>
<glyph name="brevecomb_gravecomb" format="2">
  <anchor x="265.75308641975306" y="993.0493827160494" name="_top"/>
  <anchor x="265.75308641975306" y="1612.0987654320988" name="top"/>
  <outline>
    <contour>
      <point x="245.82716049382717" y="1382.6913580246915" type="line"/>
      <point x="340.3333333333333" y="1382.6913580246915" type="line"/>
      <point x="199.3827160493827" y="1612.0987654320988" type="line"/>
      <point x="66.35802469135803" y="1612.0987654320988" type="line"/>
    </contour>
    <contour>
      <point x="271.87654320987656" y="1163.8395061728395" type="curve" smooth="yes"/>
      <point x="446.75308641975306" y="1163.8395061728395"/>
      <point x="516.0370370370371" y="1286.530864197531"/>
      <point x="525.3333333333334" y="1381.5555555555557" type="curve"/>
      <point x="439.4691358024691" y="1381.5555555555557" type="line"/>
      <point x="427.4691358024691" y="1325.8148148148148"/>
      <point x="375.4691358024691" y="1252.283950617284"/>
      <point x="271.87654320987656" y="1252.283950617284" type="curve" smooth="yes"/>
      <point x="168.28395061728395" y="1252.283950617284"/>
      <point x="116.28395061728395" y="1325.8148148148148"/>
      <point x="104.28395061728395" y="1381.5555555555557" type="curve"/>
      <point x="18.419753086419753" y="1381.5555555555557" type="line"/>
      <point x="27.71604938271605" y="1286.530864197531"/>
      <point x="97.0" y="1163.8395061728395"/>
    </contour>
  </outline>
</glyph>
<glyph name="brevecomb_hookabovecomb.cap" format="2">
  <anchor x="256.4567901234568" y="1344.5925925925926" name="_top"/>
  <anchor x="256.4567901234568" y="1945.567901234568" name="top"/>
  <outline>
    <contour>
      <point x="256.4567901234568" y="1450.358024691358" type="curve" smooth="yes"/>
      <point x="412.2716049382716" y="1450.358024691358"/>
      <point x="489.679012345679" y="1557.9506172839506"/>
      <point x="502.91358024691357" y="1667.8765432098764" type="curve"/>
      <point x="416.1111111111111" y="1667.8765432098764" type="line"/>
      <point x="399.87654320987656" y="1597.5802469135801"/>
      <point x="355.28395061728395" y="1535.6913580246915"/>
      <point x="256.4567901234568" y="1535.6913580246915" type="curve" smooth="yes"/>
      <point x="157.62962962962962" y="1535.6913580246915"/>
      <point x="113.03703703703704" y="1597.5802469135801"/>
      <point x="96.80246913580247" y="1667.8765432098764" type="curve"/>
      <point x="10.0" y="1667.8765432098764" type="line"/>
      <point x="23.234567901234566" y="1557.9506172839506"/>
      <point x="100.64197530864197" y="1450.358024691358"/>
    </contour>
    <contour>
      <point x="211.64197530864197" y="1637.641975308642" type="line"/>
      <point x="306.5679012345679" y="1654.7037037037037"/>
      <point x="396.44444444444446" y="1695.641975308642"/>
      <point x="396.44444444444446" y="1797.2222222222222" type="curve" smooth="yes"/>
      <point x="396.44444444444446" y="1893.5185185185185"/>
      <point x="307.32098765432096" y="1940.0987654320988"/>
      <point x="154.7037037037037" y="1945.567901234568" type="curve"/>
      <point x="139.06172839506172" y="1863.7037037037037" type="line"/>
      <point x="238.76543209876544" y="1857.7037037037037"/>
      <point x="283.65432098765433" y="1836.7037037037037"/>
      <point x="283.65432098765433" y="1782.5802469135801" type="curve" smooth="yes"/>
      <point x="283.65432098765433" y="1738.7530864197531"/>
      <point x="241.53086419753086" y="1719.6913580246915"/>
      <point x="190.40740740740742" y="1706.3950617283951" type="curve"/>
    </contour>
  </outline>
</glyph>
<glyph name="brevecomb_hookabovecomb" format="2">
  <anchor x="265.75308641975306" y="993.0493827160494" name="_top"/>
  <anchor x="265.75308641975306" y="1712.3827160493827" name="top"/>
  <outline>
    <contour>
      <point x="212.40740740740742" y="1396.4567901234568" type="line"/>
      <point x="307.0987654320988" y="1418.7530864197531"/>
      <point x="399.44444444444446" y="1456.9876543209878"/>
      <point x="399.44444444444446" y="1564.2716049382716" type="curve" smooth="yes"/>
      <point x="399.44444444444446" y="1661.5061728395062"/>
      <point x="308.85185185185185" y="1708.148148148148"/>
      <point x="155.46913580246914" y="1712.3827160493827" type="curve"/>
      <point x="142.59259259259258" y="1632.283950617284" type="line"/>
      <point x="242.06172839506172" y="1627.8148148148148"/>
      <point x="283.65432098765433" y="1602.283950617284"/>
      <point x="283.65432098765433" y="1546.6296296296296" type="curve" smooth="yes"/>
      <point x="283.65432098765433" y="1502.567901234568"/>
      <point x="247.06172839506172" y="1479.9753086419753"/>
      <point x="195.93827160493828" y="1464.9135802469136" type="curve"/>
    </contour>
    <contour>
      <point x="271.87654320987656" y="1163.8395061728395" type="curve" smooth="yes"/>
      <point x="446.75308641975306" y="1163.8395061728395"/>
      <point x="516.0370370370371" y="1286.530864197531"/>
      <point x="525.3333333333334" y="1381.5555555555557" type="curve"/>
      <point x="439.4691358024691" y="1381.5555555555557" type="line"/>
      <point x="427.4691358024691" y="1325.8148148148148"/>
      <point x="375.4691358024691" y="1252.283950617284"/>
      <point x="271.87654320987656" y="1252.283950617284" type="curve" smooth="yes"/>
      <point x="168.28395061728395" y="1252.283950617284"/>
      <point x="116.28395061728395" y="1325.8148148148148"/>
      <point x="104.28395061728395" y="1381.5555555555557" type="curve"/>
      <point x="18.419753086419753" y="1381.5555555555557" type="line"/>
      <point x="27.71604938271605" y="1286.530864197531"/>
      <point x="97.0" y="1163.8395061728395"/>
    </contour>
  </outline>
</glyph>
<glyph name="brevecomb_tildecomb.cap" format="2">
  <anchor x="276.9259259259259" y="1344.5925925925926" name="_top"/>
  <anchor x="276.9259259259259" y="1917.9753086419753" name="top"/>
  <outline>
    <contour>
      <point x="276.9259259259259" y="1450.358024691358" type="curve" smooth="yes"/>
      <point x="432.74074074074076" y="1450.358024691358"/>
      <point x="510.14814814814815" y="1557.9506172839506"/>
      <point x="523.3827160493827" y="1667.8765432098764" type="curve"/>
      <point x="436.58024691358025" y="1667.8765432098764" type="line"/>
      <point x="420.34567901234567" y="1597.5802469135801"/>
      <point x="375.75308641975306" y="1535.6913580246915"/>
      <point x="276.9259259259259" y="1535.6913580246915" type="curve" smooth="yes"/>
      <point x="178.09876543209876" y="1535.6913580246915"/>
      <point x="133.50617283950618" y="1597.5802469135801"/>
      <point x="117.27160493827161" y="1667.8765432098764" type="curve"/>
      <point x="30.469135802469136" y="1667.8765432098764" type="line"/>
      <point x="43.7037037037037" y="1557.9506172839506"/>
      <point x="121.11111111111111" y="1450.358024691358"/>
    </contour>
    <contour>
      <point x="10.0" y="1731.8765432098764" type="curve"/>
      <point x="92.5679012345679" y="1731.8765432098764" type="line"/>
      <point x="101.80246913580247" y="1791.1728395061727"/>
      <point x="132.5679012345679" y="1825.530864197531"/>
      <point x="174.62962962962962" y="1825.530864197531" type="curve" smooth="yes"/>
      <point x="240.22222222222223" y="1825.530864197531"/>
      <point x="286.0987654320988" y="1731.8765432098764"/>
      <point x="385.0987654320988" y="1731.8765432098764" type="curve" smooth="yes"/>
      <point x="479.6296296296296" y="1731.8765432098764"/>
      <point x="534.1481481481482" y="1816.469135802469"/>
      <point x="543.8518518518518" y="1917.9753086419753" type="curve"/>
      <point x="461.28395061728395" y="1917.9753086419753" type="line"/>
      <point x="452.04938271604937" y="1860.4444444444443"/>
      <point x="421.28395061728395" y="1824.851851851852"/>
      <point x="379.22222222222223" y="1824.851851851852" type="curve" smooth="yes"/>
      <point x="313.6296296296296" y="1824.851851851852"/>
      <point x="267.75308641975306" y="1917.9753086419753"/>
      <point x="168.7530864197531" y="1917.9753086419753" type="curve" smooth="yes"/>
      <point x="74.22222222222223" y="1917.9753086419753"/>
      <point x="19.703703703703702" y="1835.148148148148"/>
    </contour>
  </outline>
</glyph>
<glyph name="brevecomb_tildecomb" format="2">
  <anchor x="274.69135802469134" y="993.0493827160494" name="_top"/>
  <anchor x="274.69135802469134" y="1635.6172839506173" name="top"/>
  <outline>
    <contour>
      <point x="274.69135802469134" y="1170.8765432098764" type="curve" smooth="yes"/>
      <point x="449.5679012345679" y="1170.8765432098764"/>
      <point x="518.6172839506173" y="1287.469135802469"/>
      <point x="527.9135802469136" y="1378.9753086419753" type="curve"/>
      <point x="440.641975308642" y="1378.9753086419753" type="line"/>
      <point x="428.641975308642" y="1327.9259259259259"/>
      <point x="378.04938271604937" y="1258.148148148148"/>
      <point x="274.69135802469134" y="1258.148148148148" type="curve" smooth="yes"/>
      <point x="171.33333333333334" y="1258.148148148148"/>
      <point x="120.74074074074073" y="1327.9259259259259"/>
      <point x="108.74074074074073" y="1378.9753086419753" type="curve"/>
      <point x="21.469135802469136" y="1378.9753086419753" type="line"/>
      <point x="30.765432098765434" y="1287.469135802469"/>
      <point x="99.81481481481481" y="1170.8765432098764"/>
    </contour>
    <contour>
      <point x="10.0" y="1469.888888888889" type="curve"/>
      <point x="91.5679012345679" y="1469.888888888889" type="line"/>
      <point x="101.5679012345679" y="1529.4197530864199"/>
      <point x="130.5679012345679" y="1558.4814814814815"/>
      <point x="172.39506172839506" y="1558.4814814814815" type="curve" smooth="yes"/>
      <point x="239.98765432098764" y="1558.4814814814815"/>
      <point x="278.69135802469134" y="1469.888888888889"/>
      <point x="380.6296296296296" y="1469.888888888889" type="curve" smooth="yes"/>
      <point x="475.1604938271605" y="1469.888888888889"/>
      <point x="530.2098765432099" y="1548.1851851851852"/>
      <point x="539.3827160493827" y="1650.9259259259259" type="curve"/>
      <point x="457.81481481481484" y="1650.9259259259259" type="line"/>
      <point x="447.81481481481484" y="1591.6296296296296"/>
      <point x="418.81481481481484" y="1562.3333333333333"/>
      <point x="376.98765432098764" y="1562.3333333333333" type="curve" smooth="yes"/>
      <point x="309.39506172839504" y="1562.3333333333333"/>
      <point x="270.69135802469134" y="1650.9259259259259"/>
      <point x="168.7530864197531" y="1650.9259259259259" type="curve" smooth="yes"/>
      <point x="74.22222222222223" y="1650.9259259259259"/>
      <point x="19.17283950617284" y="1573.6296296296296"/>
    </contour>
  </outline>
</glyph>
<glyph name="ca_ra-deva" format="2">
  <advance width="1229.6172839506173"/>
  <anchor x="951.5555555555555" y="27.765432098765434" name="bottom"/>
  <anchor x="611.0246913580247" y="1256.3827160493827" name="candra"/>
  <anchor x="953.6172839506173" y="1287.7654320987654" name="top"/>
  <anchor x="301.320987654321" y="52.91358024691358" name="nukta"/>
  <outline>
    <contour>
      <point x="309.1604938271605" y="-69.82716049382717" type="line"/>
      <point x="928.5679012345679" y="350.48148148148147" type="line"/>
      <point x="886.2469135802469" y="427.44444444444446" type="line"/>
      <point x="229.1358024691358" y="39.60493827160494" type="line"/>
    </contour>
    <component base="ca-deva"/>
  </outline>
</glyph>
<glyph name="candraBindu-deva.imatra" format="2">
  <anchor x="269.4691358024691" y="1504.2469135802469" name="_candra"/>
  <anchor x="273.2345679012346" y="1872.9876543209878" name="top"/>
  <outline>
    <contour>
      <point x="270.5308641975309" y="1701.3333333333333" type="curve" smooth="yes"/>
      <point x="414.2098765432099" y="1701.3333333333333"/>
      <point x="520.2592592592592" y="1775.0246913580247"/>
      <point x="585.074074074074" y="1908.1728395061727" type="curve"/>
      <point x="494.7037037037037" y="1961.7407407407406" type="line"/>
      <point x="452.7037037037037" y="1896.037037037037"/>
      <point x="392.04938271604937" y="1828.4567901234568"/>
      <point x="273.4074074074074" y="1828.4567901234568" type="curve" smooth="yes"/>
      <point x="160.17283950617283" y="1828.4567901234568"/>
      <point x="95.46913580246914" y="1886.8641975308642"/>
      <point x="50.7037037037037" y="1959.037037037037" type="curve"/>
      <point x="-43.60493827160494" y="1901.530864197531" type="line"/>
      <point x="4.098765432098768" y="1798.1975308641975"/>
      <point x="103.55555555555556" y="1701.3333333333333"/>
    </contour>
    <contour>
      <point x="266.7037037037037" y="1900.037037037037" type="curve" smooth="yes"/>
      <point x="330.3333333333333" y="1900.037037037037"/>
      <point x="356.91358024691357" y="1926.3827160493827"/>
      <point x="356.91358024691357" y="1989.0123456790122" type="curve" smooth="yes"/>
      <point x="356.91358024691357" y="2051.8765432098767"/>
      <point x="330.3333333333333" y="2078.222222222222"/>
      <point x="266.7037037037037" y="2078.222222222222" type="curve" smooth="yes"/>
      <point x="203.83950617283952" y="2078.222222222222"/>
      <point x="176.49382716049382" y="2051.8765432098767"/>
      <point x="176.49382716049382" y="1989.0123456790122" type="curve" smooth="yes"/>
      <point x="176.49382716049382" y="1926.3827160493827"/>
      <point x="203.83950617283952" y="1900.037037037037"/>
    </contour>
  </outline>
</glyph>
<glyph name="caronvertical" format="2">
  <advance width="254.0"/>
  <guideline x="-159.0" y="1551.0" angle="0.0"/>
  <anchor x="170.79012345679013" y="1018.0493827160494" name="_car"/>
  <outline>
    <contour>
      <point x="127.67901234567901" y="1118.9506172839506" type="line"/>
      <point x="205.4814814814815" y="1118.9506172839506" type="line"/>
      <point x="232.2962962962963" y="1437.0123456790122" type="line"/>
      <point x="234.0" y="1551.0" type="line"/>
      <point x="120.44444444444444" y="1551.0" type="line"/>
    </contour>
  </outline>
</glyph>
<glyph name="cedillacomb.cap" format="2">
  <anchor x="163.16049382716048" y="0.0" name="_bottom"/>
  <anchor x="163.16049382716048" y="-434.34567901234567" name="bottom"/>
  <outline>
    <contour>
      <point x="26.703703703703702" y="-434.34567901234567" type="line"/>
      <point x="177.5679012345679" y="-420.04938271604937"/>
      <point x="316.32098765432096" y="-365.1111111111111"/>
      <point x="316.32098765432096" y="-248.82716049382717" type="curve" smooth="yes"/>
      <point x="316.32098765432096" y="-164.82716049382717"/>
      <point x="261.25925925925924" y="-126.12345679012346"/>
      <point x="194.79012345679013" y="-103.88888888888889" type="curve"/>
      <point x="248.14814814814815" y="5.469135802469136" type="line"/>
      <point x="144.53086419753086" y="5.469135802469136" type="line"/>
      <point x="62.53086419753087" y="-153.46913580246914" type="line"/>
      <point x="145.46913580246914" y="-173.7037037037037"/>
      <point x="193.88888888888889" y="-200.7037037037037"/>
      <point x="193.88888888888889" y="-254.35802469135803" type="curve" smooth="yes"/>
      <point x="193.88888888888889" y="-310.12345679012344"/>
      <point x="118.5925925925926" y="-339.65432098765433"/>
      <point x="10.0" y="-353.95061728395063" type="curve"/>
    </contour>
  </outline>
</glyph>
<glyph name="circumflexcomb_acutecomb.cap" format="2">
  <anchor x="267.679012345679" y="1344.5925925925926" name="_top"/>
  <anchor x="267.679012345679" y="1802.5802469135801" name="top"/>
  <outline>
    <contour>
      <point x="10.0" y="1446.8271604938273" type="line"/>
      <point x="131.19753086419752" y="1446.8271604938273" type="line"/>
      <point x="262.91358024691357" y="1575.4814814814815" type="line"/>
      <point x="270.91358024691357" y="1575.4814814814815" type="line"/>
      <point x="402.6296296296296" y="1446.8271604938273" type="line"/>
      <point x="523.8271604938271" y="1446.8271604938273" type="line"/>
      <point x="335.12345679012344" y="1662.1728395061727" type="line"/>
      <point x="198.7037037037037" y="1662.1728395061727" type="line"/>
    </contour>
    <contour>
      <point x="449.2469135802469" y="1577.0" type="line"/>
      <point x="549.6296296296297" y="1577.0" type="line"/>
      <point x="734.2098765432099" y="1802.5802469135801" type="line"/>
      <point x="594.7777777777778" y="1802.5802469135801" type="line"/>
    </contour>
  </outline>
</glyph>
<glyph name="circumflexcomb_acutecomb" format="2">
  <anchor x="243.80246913580248" y="993.0493827160494" name="_top"/>
  <anchor x="244.5679012345679" y="1542.0493827160494" name="top"/>
  <outline>
    <contour>
      <point x="10.0" y="1173.469135802469" type="line"/>
      <point x="118.32098765432099" y="1173.469135802469" type="line"/>
      <point x="239.80246913580248" y="1324.1234567901236" type="line"/>
      <point x="247.80246913580248" y="1324.1234567901236" type="line"/>
      <point x="369.28395061728395" y="1173.469135802469" type="line"/>
      <point x="477.60493827160496" y="1173.469135802469" type="line"/>
      <point x="308.30864197530866" y="1415.0493827160494" type="line"/>
      <point x="179.2962962962963" y="1415.0493827160494" type="line"/>
    </contour>
    <contour>
      <point x="422.1975308641975" y="1310.641975308642" type="line"/>
      <point x="520.5802469135803" y="1310.641975308642" type="line"/>
      <point x="708.5185185185185" y="1542.0493827160494" type="line"/>
      <point x="573.5555555555555" y="1542.0493827160494" type="line"/>
    </contour>
  </outline>
</glyph>
<glyph name="circumflexcomb_brevecomb.cap" format="2">
  <advance width="533.8271604938271"/>
  <anchor x="266.91358024691357" y="1344.5925925925926" name="_top"/>
  <anchor x="266.91358024691357" y="1915.20987654321" name="top"/>
  <outline>
    <contour>
      <point x="10.0" y="1446.8271604938273" type="line"/>
      <point x="131.19753086419752" y="1446.8271604938273" type="line"/>
      <point x="262.91358024691357" y="1575.4814814814815" type="line"/>
      <point x="270.91358024691357" y="1575.4814814814815" type="line"/>
      <point x="402.6296296296296" y="1446.8271604938273" type="line"/>
      <point x="523.8271604938271" y="1446.8271604938273" type="line"/>
      <point x="335.12345679012344" y="1662.1728395061727" type="line"/>
      <point x="198.7037037037037" y="1662.1728395061727" type="line"/>
    </contour>
    <contour>
      <point x="266.91358024691357" y="1720.5802469135801" type="curve" smooth="yes"/>
      <point x="422.7283950617284" y="1720.5802469135801"/>
      <point x="500.1358024691358" y="1810.5802469135801"/>
      <point x="513.3703703703703" y="1915.20987654321" type="curve"/>
      <point x="426.5679012345679" y="1915.20987654321" type="line"/>
      <point x="410.3333333333333" y="1852.4444444444443"/>
      <point x="365.74074074074076" y="1806.148148148148"/>
      <point x="266.91358024691357" y="1806.148148148148" type="curve" smooth="yes"/>
      <point x="168.08641975308643" y="1806.148148148148"/>
      <point x="123.49382716049382" y="1852.4444444444443"/>
      <point x="107.25925925925925" y="1915.20987654321" type="curve"/>
      <point x="20.45679012345679" y="1915.20987654321" type="line"/>
      <point x="33.691358024691354" y="1810.5802469135801"/>
      <point x="111.09876543209876" y="1720.5802469135801"/>
    </contour>
  </outline>
</glyph>
<glyph name="circumflexcomb_brevecomb" format="2">
  <advance width="519.604938271605"/>
  <anchor x="259.8024691358025" y="993.0493827160494" name="_top"/>
  <anchor x="259.8024691358025" y="1635.6172839506173" name="top"/>
  <outline>
    <contour>
      <point x="10.0" y="1168.7037037037037" type="line"/>
      <point x="121.25925925925925" y="1168.7037037037037" type="line"/>
      <point x="255.80246913580248" y="1303.8271604938273" type="line"/>
      <point x="263.8024691358025" y="1303.8271604938273" type="line"/>
      <point x="398.34567901234567" y="1168.7037037037037" type="line"/>
      <point x="509.60493827160496" y="1168.7037037037037" type="line"/>
      <point x="331.71604938271605" y="1380.5802469135801" type="line"/>
      <point x="187.88888888888889" y="1380.5802469135801" type="line"/>
    </contour>
    <contour>
      <point x="259.8024691358025" y="1441.2222222222222" type="curve" smooth="yes"/>
      <point x="413.61728395061726" y="1441.2222222222222"/>
      <point x="484.25925925925924" y="1536.6296296296296"/>
      <point x="493.0246913580247" y="1635.6172839506173" type="curve"/>
      <point x="404.75308641975306" y="1635.6172839506173" type="line"/>
      <point x="394.75308641975306" y="1575.5555555555557"/>
      <point x="350.1604938271605" y="1529.2592592592594"/>
      <point x="259.8024691358025" y="1529.2592592592594" type="curve" smooth="yes"/>
      <point x="169.44444444444446" y="1529.2592592592594"/>
      <point x="124.85185185185185" y="1575.5555555555557"/>
      <point x="114.85185185185185" y="1635.6172839506173" type="curve"/>
      <point x="26.580246913580247" y="1635.6172839506173" type="line"/>
      <point x="35.34567901234568" y="1536.6296296296296"/>
      <point x="105.98765432098766" y="1441.2222222222222"/>
    </contour>
  </outline>
</glyph>
<glyph name="circumflexcomb_gravecomb.cap" format="2">
  <anchor x="267.679012345679" y="1344.5925925925926" name="_top"/>
  <anchor x="267.679012345679" y="1802.5802469135801" name="top"/>
  <outline>
    <contour>
      <point x="10.0" y="1446.8271604938273" type="line"/>
      <point x="131.19753086419752" y="1446.8271604938273" type="line"/>
      <point x="262.91358024691357" y="1575.4814814814815" type="line"/>
      <point x="270.91358024691357" y="1575.4814814814815" type="line"/>
      <point x="402.6296296296296" y="1446.8271604938273" type="line"/>
      <point x="523.8271604938271" y="1446.8271604938273" type="line"/>
      <point x="335.12345679012344" y="1662.1728395061727" type="line"/>
      <point x="198.7037037037037" y="1662.1728395061727" type="line"/>
    </contour>
    <contour>
      <point x="532.4814814814815" y="1577.0" type="line"/>
      <point x="633.0987654320987" y="1577.0" type="line"/>
      <point x="487.5679012345679" y="1802.5802469135801" type="line"/>
      <point x="348.3703703703704" y="1802.5802469135801" type="line"/>
    </contour>
  </outline>
</glyph>
<glyph name="circumflexcomb_gravecomb" format="2">
  <anchor x="244.33333333333334" y="993.0493827160494" name="_top"/>
  <anchor x="244.33333333333334" y="1542.0493827160494" name="top"/>
  <outline>
    <contour>
      <point x="10.0" y="1173.469135802469" type="line"/>
      <point x="118.32098765432099" y="1173.469135802469" type="line"/>
      <point x="239.80246913580248" y="1324.1234567901236" type="line"/>
      <point x="247.80246913580248" y="1324.1234567901236" type="line"/>
      <point x="369.28395061728395" y="1173.469135802469" type="line"/>
      <point x="477.60493827160496" y="1173.469135802469" type="line"/>
      <point x="308.30864197530866" y="1415.0493827160494" type="line"/>
      <point x="179.2962962962963" y="1415.0493827160494" type="line"/>
    </contour>
    <contour>
      <point x="547.7283950617284" y="1310.641975308642" type="line"/>
      <point x="646.1111111111111" y="1310.641975308642" type="line"/>
      <point x="493.75308641975306" y="1542.0493827160494" type="line"/>
      <point x="359.25925925925924" y="1542.0493827160494" type="line"/>
    </contour>
  </outline>
</glyph>
<glyph name="circumflexcomb_hookabovecomb.cap" format="2">
  <anchor x="266.679012345679" y="1344.5925925925926" name="_top"/>
  <anchor x="266.679012345679" y="1852.5185185185185" name="top"/>
  <outline>
    <contour>
      <point x="10.0" y="1446.8271604938273" type="line"/>
      <point x="131.19753086419752" y="1446.8271604938273" type="line"/>
      <point x="262.91358024691357" y="1575.4814814814815" type="line"/>
      <point x="270.91358024691357" y="1575.4814814814815" type="line"/>
      <point x="402.6296296296296" y="1446.8271604938273" type="line"/>
      <point x="523.8271604938271" y="1446.8271604938273" type="line"/>
      <point x="335.12345679012344" y="1662.1728395061727" type="line"/>
      <point x="198.7037037037037" y="1662.1728395061727" type="line"/>
    </contour>
    <contour>
      <point x="498.48148148148147" y="1544.8271604938273" type="line"/>
      <point x="593.6419753086419" y="1561.888888888889"/>
      <point x="682.5185185185185" y="1602.8271604938273"/>
      <point x="682.5185185185185" y="1705.1728395061727" type="curve" smooth="yes"/>
      <point x="682.5185185185185" y="1799.7037037037037"/>
      <point x="594.395061728395" y="1846.5185185185185"/>
      <point x="440.77777777777777" y="1852.5185185185185" type="curve"/>
      <point x="424.1358024691358" y="1770.888888888889" type="line"/>
      <point x="525.604938271605" y="1765.4197530864199"/>
      <point x="569.7283950617284" y="1744.6543209876543"/>
      <point x="569.7283950617284" y="1690.530864197531" type="curve" smooth="yes"/>
      <point x="569.7283950617284" y="1646.7037037037037"/>
      <point x="528.3703703703703" y="1626.8765432098764"/>
      <point x="476.2469135802469" y="1614.3456790123457" type="curve"/>
    </contour>
  </outline>
</glyph>
<glyph name="circumflexcomb_hookabovecomb" format="2">
  <anchor x="243.80246913580248" y="993.0493827160494" name="_top"/>
  <anchor x="243.80246913580248" y="1602.1604938271605" name="top"/>
  <outline>
    <contour>
      <point x="10.0" y="1173.469135802469" type="line"/>
      <point x="118.32098765432099" y="1173.469135802469" type="line"/>
      <point x="239.80246913580248" y="1324.1234567901236" type="line"/>
      <point x="247.80246913580248" y="1324.1234567901236" type="line"/>
      <point x="369.28395061728395" y="1173.469135802469" type="line"/>
      <point x="477.60493827160496" y="1173.469135802469" type="line"/>
      <point x="308.30864197530866" y="1415.0493827160494" type="line"/>
      <point x="179.2962962962963" y="1415.0493827160494" type="line"/>
    </contour>
    <contour>
      <point x="477.3703703703704" y="1286.0" type="line"/>
      <point x="570.2962962962963" y="1309.2962962962963"/>
      <point x="662.4074074074074" y="1346.530864197531"/>
      <point x="662.4074074074074" y="1453.5185185185185" type="curve" smooth="yes"/>
      <point x="662.4074074074074" y="1550.0493827160494"/>
      <point x="572.0493827160494" y="1596.6913580246915"/>
      <point x="418.6666666666667" y="1602.1604938271605" type="curve"/>
      <point x="405.55555555555554" y="1522.8271604938273" type="line"/>
      <point x="505.25925925925924" y="1516.8271604938273"/>
      <point x="547.3827160493827" y="1491.2962962962963"/>
      <point x="547.3827160493827" y="1437.1728395061727" type="curve" smooth="yes"/>
      <point x="547.3827160493827" y="1392.5802469135801"/>
      <point x="511.0246913580247" y="1369.7530864197531"/>
      <point x="458.9012345679012" y="1353.9259259259259" type="curve"/>
    </contour>
  </outline>
</glyph>
<glyph name="circumflexcomb_tildecomb.cap" format="2">
  <anchor x="277.6296296296296" y="1344.5925925925926" name="_top"/>
  <anchor x="277.6296296296296" y="1917.9753086419753" name="top"/>
  <outline>
    <contour>
      <point x="20.71604938271605" y="1476.8271604938273" type="line"/>
      <point x="141.91358024691357" y="1476.8271604938273" type="line"/>
      <point x="273.6296296296296" y="1605.4814814814815" type="line"/>
      <point x="281.6296296296296" y="1605.4814814814815" type="line"/>
      <point x="413.34567901234567" y="1476.8271604938273" type="line"/>
      <point x="534.5432098765432" y="1476.8271604938273" type="line"/>
      <point x="345.8395061728395" y="1692.1728395061727" type="line"/>
      <point x="209.41975308641975" y="1692.1728395061727" type="line"/>
    </contour>
    <contour>
      <point x="10.703703703703704" y="1761.8765432098764" type="curve"/>
      <point x="93.27160493827161" y="1761.8765432098764" type="line"/>
      <point x="102.50617283950618" y="1821.1728395061727"/>
      <point x="133.2716049382716" y="1855.530864197531"/>
      <point x="175.33333333333334" y="1855.530864197531" type="curve" smooth="yes"/>
      <point x="240.92592592592592" y="1855.530864197531"/>
      <point x="286.8024691358025" y="1761.8765432098764"/>
      <point x="385.8024691358025" y="1761.8765432098764" type="curve" smooth="yes"/>
      <point x="480.3333333333333" y="1761.8765432098764"/>
      <point x="534.8518518518518" y="1846.469135802469"/>
      <point x="544.5555555555555" y="1947.9753086419753" type="curve"/>
      <point x="461.98765432098764" y="1947.9753086419753" type="line"/>
      <point x="452.75308641975306" y="1890.4444444444443"/>
      <point x="421.98765432098764" y="1854.851851851852"/>
      <point x="379.9259259259259" y="1854.851851851852" type="curve" smooth="yes"/>
      <point x="314.3333333333333" y="1854.851851851852"/>
      <point x="268.4567901234568" y="1947.9753086419753"/>
      <point x="169.45679012345678" y="1947.9753086419753" type="curve" smooth="yes"/>
      <point x="74.92592592592592" y="1947.9753086419753"/>
      <point x="20.40740740740741" y="1865.148148148148"/>
    </contour>
  </outline>
</glyph>
<glyph name="circumflexcomb_tildecomb" format="2">
  <anchor x="274.69135802469134" y="993.0493827160494" name="_top"/>
  <anchor x="274.69135802469134" y="1635.6172839506173" name="top"/>
  <outline>
    <contour>
      <point x="24.88888888888889" y="1168.7037037037037" type="line"/>
      <point x="136.14814814814815" y="1168.7037037037037" type="line"/>
      <point x="270.69135802469134" y="1303.8271604938273" type="line"/>
      <point x="278.69135802469134" y="1303.8271604938273" type="line"/>
      <point x="413.2345679012346" y="1168.7037037037037" type="line"/>
      <point x="524.4938271604939" y="1168.7037037037037" type="line"/>
      <point x="346.60493827160496" y="1380.5802469135801" type="line"/>
      <point x="202.77777777777777" y="1380.5802469135801" type="line"/>
    </contour>
    <contour>
      <point x="10.0" y="1454.5802469135801" type="curve"/>
      <point x="91.5679012345679" y="1454.5802469135801" type="line"/>
      <point x="101.5679012345679" y="1514.111111111111"/>
      <point x="130.5679012345679" y="1543.1728395061727"/>
      <point x="172.39506172839506" y="1543.1728395061727" type="curve" smooth="yes"/>
      <point x="239.98765432098764" y="1543.1728395061727"/>
      <point x="278.69135802469134" y="1454.5802469135801"/>
      <point x="380.6296296296296" y="1454.5802469135801" type="curve" smooth="yes"/>
      <point x="475.1604938271605" y="1454.5802469135801"/>
      <point x="530.2098765432099" y="1532.8765432098764"/>
      <point x="539.3827160493827" y="1635.6172839506173" type="curve"/>
      <point x="457.81481481481484" y="1635.6172839506173" type="line"/>
      <point x="447.81481481481484" y="1576.320987654321"/>
      <point x="418.81481481481484" y="1547.0246913580247"/>
      <point x="376.98765432098764" y="1547.0246913580247" type="curve" smooth="yes"/>
      <point x="309.39506172839504" y="1547.0246913580247"/>
      <point x="270.69135802469134" y="1635.6172839506173"/>
      <point x="168.7530864197531" y="1635.6172839506173" type="curve" smooth="yes"/>
      <point x="74.22222222222223" y="1635.6172839506173"/>
      <point x="19.17283950617284" y="1558.320987654321"/>
    </contour>
  </outline>
</glyph>
<glyph name="d_g_ra-deva" format="2">
  <advance width="1042.2716049382716"/>
  <anchor x="978.2962962962963" y="-34.97530864197531" name="bottom"/>
  <anchor x="634.8518518518518" y="1256.3827160493827" name="candra"/>
  <anchor x="101.5679012345679" y="-17.123456790123456" name="nukta"/>
  <anchor x="720.2345679012345" y="1256.3827160493827" name="top"/>
  <outline>
    <contour>
      <point x="594.4444444444445" y="-411.2098765432099" type="line"/>
      <point x="847.1358024691358" y="140.02469135802468" type="line"/>
      <point x="758.1851851851852" y="196.28395061728395" type="line"/>
      <point x="473.25925925925924" y="-357.8024691358025" type="line"/>
    </contour>
    <contour>
      <point x="291.51851851851853" y="-289.48148148148147" type="line"/>
      <point x="393.24691358024694" y="-286.95061728395063"/>
      <point x="407.65432098765433" y="-234.7283950617284"/>
      <point x="407.65432098765433" y="-180.85185185185185" type="curve" smooth="yes"/>
      <point x="407.65432098765433" y="-10.580246913580247" type="line"/>
      <point x="281.34567901234567" y="-20.098765432098766" type="line"/>
      <point x="142.64197530864197" y="-45.79012345679012" type="line"/>
      <point x="142.64197530864197" y="-135.2962962962963" type="line"/>
    </contour>
    <contour>
      <point x="271.7654320987654" y="-85.64197530864197" type="line"/>
      <point x="406.8888888888889" y="-76.12345679012346" type="line"/>
      <point x="406.8888888888889" y="225.09876543209876" type="line"/>
      <point x="271.7654320987654" y="225.09876543209876" type="line"/>
    </contour>
    <component base="da-deva"/>
  </outline>
</glyph>
<glyph name="d_ra-deva" format="2">
  <advance width="1035.2345679012346"/>
  <anchor x="811.0864197530864" y="-490.01234567901236" name="bottom"/>
  <anchor x="634.8518518518518" y="1256.3827160493827" name="candra"/>
  <anchor x="101.5679012345679" y="-17.123456790123456" name="nukta"/>
  <anchor x="720.2345679012345" y="1256.3827160493827" name="top"/>
  <outline>
    <contour>
      <point x="372.5308641975309" y="-196.66666666666666" type="line" smooth="yes"/>
      <point x="828.3086419753087" y="178.17283950617283" type="line"/>
      <point x="792.7407407407408" y="250.03703703703704" type="line"/>
      <point x="286.74074074074076" y="-94.23456790123457" type="line"/>
    </contour>
    <component base="da-deva"/>
    <component base="halant-deva" xOffset="640.0864197530864" yOffset="-165.23456790123456"/>
  </outline>
</glyph>
<glyph name="d_ya-deva" format="2">
  <advance width="1218.0123456790122"/>
  <anchor x="940.074074074074" y="27.765432098765434" name="bottom"/>
  <anchor x="685.5185185185185" y="1257.148148148148" name="candra"/>
  <anchor x="940.074074074074" y="1287.7654320987654" name="top"/>
  <outline>
    <contour>
      <point x="-13.641975308641975" y="1133.851851851852" type="line"/>
      <point x="1232.4197530864199" y="1133.851851851852" type="line"/>
      <point x="1232.4197530864199" y="1256.3827160493827" type="line"/>
      <point x="-13.641975308641975" y="1256.3827160493827" type="line"/>
    </contour>
    <contour>
      <point x="447.4320987654321" y="860.3333333333334" type="line"/>
      <point x="592.4320987654321" y="860.3333333333334" type="line"/>
      <point x="592.1975308641976" y="1200.0617283950617" type="line"/>
      <point x="447.4320987654321" y="1200.0617283950617" type="line"/>
    </contour>
    <contour>
      <point x="251.0493827160494" y="508.30864197530866" type="curve"/>
      <point x="304.2716049382716" y="584.8641975308642" type="line"/>
      <point x="240.62962962962962" y="627.4567901234568"/>
      <point x="202.02469135802468" y="693.395061728395"/>
      <point x="202.02469135802468" y="763.716049382716" type="curve" smooth="yes"/>
      <point x="202.02469135802468" y="814.9629629629629"/>
      <point x="221.08641975308643" y="860.3333333333334"/>
      <point x="382.6296296296296" y="860.3333333333334" type="curve" smooth="yes"/>
      <point x="540.1604938271605" y="860.3333333333334" type="line"/>
      <point x="528.641975308642" y="989.6913580246913" type="line"/>
      <point x="332.17283950617286" y="988.6913580246913" type="line" smooth="yes"/>
      <point x="146.9506172839506" y="987.6913580246913"/>
      <point x="70.54320987654322" y="915.5802469135803"/>
      <point x="70.54320987654322" y="793.2962962962963" type="curve" smooth="yes"/>
      <point x="70.54320987654322" y="683.4814814814815"/>
      <point x="147.64197530864197" y="569.9012345679013"/>
    </contour>
    <contour>
      <point x="451.98765432098764" y="65.24691358024691" type="curve" smooth="yes"/>
      <point x="675.2716049382716" y="65.24691358024691"/>
      <point x="831.1481481481482" y="194.12345679012347"/>
      <point x="921.9135802469136" y="297.82716049382714" type="curve"/>
      <point x="901.7407407407408" y="444.7037037037037" type="line"/>
      <point x="809.8024691358024" y="314.60493827160496"/>
      <point x="647.1111111111111" y="190.90123456790124"/>
      <point x="449.51851851851853" y="190.90123456790124" type="curve" smooth="yes"/>
      <point x="316.1358024691358" y="190.90123456790124"/>
      <point x="255.2962962962963" y="253.50617283950618"/>
      <point x="255.2962962962963" y="341.82716049382714" type="curve" smooth="yes"/>
      <point x="255.2962962962963" y="451.01234567901236"/>
      <point x="332.0617283950617" y="511.08641975308643"/>
      <point x="534.0123456790124" y="524.4444444444445" type="curve"/>
      <point x="524.8395061728395" y="644.3333333333334" type="line"/>
      <point x="191.28395061728395" y="637.5061728395061"/>
      <point x="108.29629629629629" y="482.9259259259259"/>
      <point x="108.29629629629629" y="353.9382716049383" type="curve" smooth="yes"/>
      <point x="108.29629629629629" y="193.65432098765433"/>
      <point x="225.7037037037037" y="65.24691358024691"/>
    </contour>
    <contour>
      <point x="866.4567901234568" y="-7.814814814814815" type="line"/>
      <point x="1012.9259259259259" y="-7.814814814814815" type="line"/>
      <point x="1012.9259259259259" y="1204.3333333333333" type="line"/>
      <point x="866.4567901234568" y="1204.3333333333333" type="line"/>
    </contour>
  </outline>
</glyph>
<glyph name="dblgravecomb.cap" format="2">
  <anchor x="311.58641975308643" y="1344.5925925925926" name="_top"/>
  <anchor x="311.58641975308643" y="1674.1728395061727" name="top"/>
  <outline>
    <contour>
      <point x="180.87654320987653" y="1446.8271604938273" type="line"/>
      <point x="293.8395061728395" y="1446.8271604938273" type="line"/>
      <point x="158.30864197530863" y="1674.1728395061727" type="line"/>
      <point x="10.0" y="1674.1728395061727" type="line"/>
    </contour>
    <contour>
      <point x="498.44444444444446" y="1446.8271604938273" type="line"/>
      <point x="613.1728395061729" y="1446.8271604938273" type="line"/>
      <point x="477.87654320987656" y="1674.1728395061727" type="line"/>
      <point x="329.5679012345679" y="1674.1728395061727" type="line"/>
    </contour>
  </outline>
</glyph>
<glyph name="dieresiscomb_acutecomb.cap" format="2">
  <anchor x="273.91358024691357" y="1344.5925925925926" name="_top"/>
  <anchor x="273.91358024691357" y="1940.5061728395062" name="top"/>
  <outline>
    <contour>
      <point x="173.87654320987653" y="1714.6913580246915" type="line"/>
      <point x="303.41975308641975" y="1714.6913580246915" type="line"/>
      <point x="532.0617283950618" y="1940.5061728395062" type="line"/>
      <point x="358.2962962962963" y="1940.5061728395062" type="line"/>
    </contour>
    <contour>
      <point x="100.1604938271605" y="1468.3086419753085" type="curve" smooth="yes"/>
      <point x="151.20987654320987" y="1468.3086419753085"/>
      <point x="189.08641975308643" y="1504.1234567901236"/>
      <point x="189.08641975308643" y="1558.469135802469" type="curve" smooth="yes"/>
      <point x="189.08641975308643" y="1610.5802469135801"/>
      <point x="151.20987654320987" y="1647.1604938271605"/>
      <point x="100.1604938271605" y="1647.1604938271605" type="curve" smooth="yes"/>
      <point x="49.111111111111114" y="1647.1604938271605"/>
      <point x="10.0" y="1610.5802469135801"/>
      <point x="10.0" y="1558.469135802469" type="curve" smooth="yes"/>
      <point x="10.0" y="1504.1234567901236"/>
      <point x="49.111111111111114" y="1468.3086419753085"/>
    </contour>
    <contour>
      <point x="447.6666666666667" y="1468.3086419753085" type="curve" smooth="yes"/>
      <point x="498.71604938271605" y="1468.3086419753085"/>
      <point x="537.8271604938271" y="1504.1234567901236"/>
      <point x="537.8271604938271" y="1558.469135802469" type="curve" smooth="yes"/>
      <point x="537.8271604938271" y="1610.5802469135801"/>
      <point x="498.71604938271605" y="1647.1604938271605"/>
      <point x="447.6666666666667" y="1647.1604938271605" type="curve" smooth="yes"/>
      <point x="396.61728395061726" y="1647.1604938271605"/>
      <point x="358.74074074074076" y="1610.5802469135801"/>
      <point x="358.74074074074076" y="1558.469135802469" type="curve" smooth="yes"/>
      <point x="358.74074074074076" y="1504.1234567901236"/>
      <point x="396.61728395061726" y="1468.3086419753085"/>
    </contour>
  </outline>
</glyph>
<glyph name="dieresiscomb_acutecomb" format="2">
  <anchor x="273.91358024691357" y="993.0493827160494" name="_top"/>
  <anchor x="273.91358024691357" y="1680.5061728395062" name="top"/>
  <outline>
    <contour>
      <point x="169.22222222222223" y="1400.5432098765432" type="line"/>
      <point x="280.01234567901236" y="1400.5432098765432" type="line"/>
      <point x="488.7654320987654" y="1609.888888888889" type="line"/>
      <point x="335.69135802469134" y="1609.888888888889" type="line"/>
    </contour>
    <contour>
      <point x="100.1604938271605" y="1137.2222222222222" type="curve" smooth="yes"/>
      <point x="151.20987654320987" y="1137.2222222222222"/>
      <point x="189.08641975308643" y="1176.3333333333333"/>
      <point x="189.08641975308643" y="1225.9135802469136" type="curve" smooth="yes"/>
      <point x="189.08641975308643" y="1276.962962962963"/>
      <point x="151.20987654320987" y="1316.0740740740741"/>
      <point x="100.1604938271605" y="1316.0740740740741" type="curve" smooth="yes"/>
      <point x="49.111111111111114" y="1316.0740740740741"/>
      <point x="10.0" y="1276.962962962963"/>
      <point x="10.0" y="1225.9135802469136" type="curve" smooth="yes"/>
      <point x="10.0" y="1176.3333333333333"/>
      <point x="49.111111111111114" y="1137.2222222222222"/>
    </contour>
    <contour>
      <point x="447.6666666666667" y="1137.2222222222222" type="curve" smooth="yes"/>
      <point x="498.71604938271605" y="1137.2222222222222"/>
      <point x="537.8271604938271" y="1176.3333333333333"/>
      <point x="537.8271604938271" y="1225.9135802469136" type="curve" smooth="yes"/>
      <point x="537.8271604938271" y="1276.962962962963"/>
      <point x="498.71604938271605" y="1316.0740740740741"/>
      <point x="447.6666666666667" y="1316.0740740740741" type="curve" smooth="yes"/>
      <point x="396.61728395061726" y="1316.0740740740741"/>
      <point x="358.74074074074076" y="1276.962962962963"/>
      <point x="358.74074074074076" y="1225.9135802469136" type="curve" smooth="yes"/>
      <point x="358.74074074074076" y="1176.3333333333333"/>
      <point x="396.61728395061726" y="1137.2222222222222"/>
    </contour>
  </outline>
</glyph>
